<svg xmlns="http://www.w3.org/2000/svg" width="60" height="60"><circle fill="#333" cx="30" cy="30" r="30"/><g fill="#FFF"><path d="M20.7 26.4c.4.1 1.4.9 3 1.9 1.5 1 2.8 1.9 3.7 2.5.1 0 .4.1.5.4.4.1.5.3.6.5.1.1.4.4.6.5.4.1.5.4.9.4.1 0 .5.1.6.1.1 0 .5 0 .6-.1.1 0 .5-.1.9-.4.4-.1.5-.4.6-.5.1-.1.5-.4.6-.5.4-.1.5-.4.5-.4.9-.5 3-2.1 6.5-4.5.6-.5 1.3-1 1.8-1.8.5-.6.6-1.4.6-2.1 0-.5-.1-1-.6-1.5-.4-.4-.9-.6-1.5-.6H20.7c-.6 0-1.3.1-1.5.6-.3.5-.5.9-.5 1.7 0 .5.1 1.3.6 1.9.4.9.9 1.4 1.4 1.9z"/><path d="M41.9 27.8c-3 2.1-5.3 3.7-6.8 4.8-.5.4-.9.6-1.3.9-.4.1-.6.4-1.3.6-.5.1-1 .4-1.5.4s-1-.1-1.5-.4c-.5-.1-1-.5-1.3-.6-.4-.1-.6-.5-1.3-.9-1.2-.9-3.5-2.6-6.8-4.8-.6-.4-1.3-.6-1.5-1.3v11c0 .5.1 1 .6 1.5.4.4.9.6 1.7.6H41c.5 0 1-.1 1.5-.6.4-.4.6-.9.6-1.5v-11c-.4.5-.7.9-1.2 1.3z"/></g></svg>