<svg xmlns="http://www.w3.org/2000/svg" width="60" height="60" viewBox="0 0 60 60"><circle fill="#5E227F" cx="30" cy="30.1" r="30"/><path fill="#FFF" d="M29.9 14.5c-8.8 0-16 7.2-16 16 0 7.2 4.6 13 10.9 15.1.8.2 1-.5 1-.8V42c-4.4 1-5.4-2.3-5.4-2.3-.7-2-1.6-2.3-1.6-2.3-1.5-1 .2-1 .2-1 1.6.2 2.4 1.6 2.4 1.6 1.5 2.4 3.7 1.6 4.6 1.3.2-1 .7-1.6 1-2.1-3.6-.5-7.3-1.6-7.3-8 0-1.6.7-3.1 1.6-4.2 0-.3-.3-2 .5-4.1 0 0 1.3-.5 4.4 1.6 1.1-.5 2.6-.7 3.9-.7 1.3 0 2.8.2 3.9.7 3.1-2.1 4.4-1.6 4.4-1.6.8 2.1.5 3.7.2 4.2 1 1 1.6 2.4 1.6 4.2 0 6-3.7 7.5-7.3 7.8.7.5 1 1.5 1 2.9v4.4c0 .5.2.8 1 .8 6.3-2.1 10.9-8.1 10.9-15.1.1-8.4-7.1-15.6-15.9-15.6z"/></svg>