<?xml version="1.0" encoding="utf-8"?>
<!-- Generator: Adobe Illustrator 21.0.0, SVG Export Plug-In . SVG Version: 6.00 Build 0)  -->
<svg version="1.1" id="Layer_1" xmlns="http://www.w3.org/2000/svg" xmlns:xlink="http://www.w3.org/1999/xlink" x="0px" y="0px"
	 viewBox="0 0 240 140" style="enable-background:new 0 0 240 140;" xml:space="preserve">
<style type="text/css">
	.st0{display:none;}
	.st1{display:inline;fill:#eeeeee;}
	.st2{display:inline;fill:#EBEBEB;}
	.st3{display:inline;fill:#FFFFFF;}
	.st4{display:inline;}
	.st5{fill:#eeeeee;}
	.st6{fill:#FFFFFF;}
	.st7{fill:url(#SVGID_1_);}
	.st8{opacity:5.000000e-02;}
	.st9{fill:#231F20;}
	.st10{opacity:5.000000e-02;fill:#231F20;}
	.st11{display:inline;fill-rule:evenodd;clip-rule:evenodd;fill:#eeeeee;}
</style>
<g class="st0">
	<polygon class="st1" points="-80,103 -85.2,44.4 -27.8,44.4 -33,103 -56.5,109.5 	"/>
	<polygon class="st2" points="-56.5,70.9 -66,70.9 -66.7,63.6 -56.5,63.6 -56.5,56.4 -56.5,56.4 -74.5,56.4 -74.3,58.3 -72.6,78.1
		-56.5,78.1 	"/>
	<polygon class="st2" points="-56.5,89.6 -56.5,89.6 -64.5,87.4 -65,81.7 -68.9,81.7 -72.2,81.7 -71.2,93 -56.5,97.1 -56.5,97.1
		"/>
	<path class="st1" d="M-79.8,28.5h3.7v3.6h3.3v-3.6h3.7v10.9h-3.7v-3.7h-3.3v3.7h-3.7L-79.8,28.5L-79.8,28.5z"/>
	<path class="st1" d="M-64.4,32.1h-3.2v-3.6h10.1v3.6h-3.2v7.3h-3.7L-64.4,32.1L-64.4,32.1z"/>
	<path class="st1" d="M-55.9,28.5h3.8l2.3,3.8l2.3-3.8h3.8v10.9h-3.6V34l-2.5,3.9h-0.1l-2.5-3.9v5.4h-3.6V28.5z"/>
	<path class="st1" d="M-41.8,28.5h3.7v7.3h5.1v3.6h-8.8V28.5z"/>
	<polygon class="st3" points="-56.5,70.9 -56.5,78.1 -47.7,78.1 -48.5,87.4 -56.5,89.6 -56.5,97.1 -41.8,93 -41.7,91.8 -40,72.9
		-39.8,70.9 -41.8,70.9 	"/>
	<polygon class="st3" points="-56.5,56.4 -56.5,60.8 -56.5,63.6 -56.5,63.6 -39.2,63.6 -39.2,63.6 -39.2,63.6 -39,62 -38.7,58.3
		-38.5,56.4 	"/>
</g>
<g class="st0">
	<g class="st4">
		<polygon class="st5" points="-33.6,103.1 -57.3,109.5 -81.1,103.1 -86.5,43.8 -28.1,43.8 		"/>
		<g>
			<polygon class="st5" points="-70.8,36.6 -70.8,33.1 -65.6,33.1 -65.6,29.2 -74.7,29.2 -74.7,40.1 -65.6,40.1 -65.6,36.6 			"/>
			<path class="st5" d="M-56.4,33.1h3.6v-3.9h-9c0,0,0,1.9,0,3.9c1.2,1.2,1.8,1.8,3.6,3.5c-1,0-3.6,0-3.6,0v3.5h9v-3.5L-56.4,33.1z"
				/>
			<path class="st5" d="M-43.6,33.1h3.6v-3.9h-9c0,0,0,1.9,0,3.9c1.2,1.2,1.8,1.8,3.6,3.5c-1,0-3.6,0-3.6,0v3.5h9v-3.5L-43.6,33.1z"
				/>
		</g>
		<g>
			<polygon class="st6" points="-57.3,63.4 -74.3,70.5 -73.8,77.5 -57.3,70.5 -39.9,63 -39.2,55.8 			"/>
			<linearGradient id="SVGID_1_" gradientUnits="userSpaceOnUse" x1="-65.8388" y1="77.4888" x2="-65.8388" y2="63.4113">
				<stop  offset="0.3865" style="stop-color:#D0D2D3;stop-opacity:0"/>
				<stop  offset="1" style="stop-color:#D0D2D3"/>
			</linearGradient>
			<polygon class="st7" points="-74.3,70.5 -73.8,77.5 -57.3,70.5 -57.3,63.4 			"/>
			<polygon class="st6" points="-39.2,55.8 -57.3,63.4 -57.3,70.5 -39.9,63 			"/>
			<polygon class="st6" points="-74.3,70.5 -73.7,77.5 -48.5,77.6 -49.1,86.9 -57.4,89.2 -65.4,87.2 -65.9,81.4 -73.3,81.4
				-72.3,92.6 -57.3,97 -42.4,92.7 -40.5,70.5 			"/>
			<g class="st8">
				<polygon class="st9" points="-57.3,70.5 -74.3,70.5 -73.8,77.5 -57.3,77.5 				"/>
				<polygon class="st9" points="-57.3,89.2 -57.4,89.2 -65.4,87.2 -65.9,81.4 -73.3,81.4 -72.3,92.6 -57.3,97 				"/>
			</g>
			<polygon class="st6" points="-75.9,55.8 -39.2,55.8 -39.9,63 -75,63 			"/>
			<polygon class="st10" points="-57.3,55.8 -75.9,55.8 -75,63 -57.3,63 			"/>
		</g>
	</g>
</g>
<g class="st0">
	<path class="st1" d="M-21.7,74.6c-3.4,0-6.3,0.8-8.8,2c-0.9-1.8-1.8-3.4-2-4.6c-0.2-1.4-0.4-2.2-0.2-3.8c0.2-1.6,1.2-4,1.2-4.1
		c0-0.2-0.2-1-2.2-1c-1.9,0-3.6,0.4-3.8,0.9c-0.2,0.5-0.6,1.7-0.8,2.9c-0.3,1.8-3.9,8.1-5.9,11.4c-0.7-1.3-1.2-2.4-1.3-3.3
		c-0.2-1.4-0.4-2.2-0.2-3.8c0.2-1.6,1.2-4,1.2-4.1s-0.2-1-2.2-1c-1.9,0-3.6,0.4-3.8,0.9c-0.2,0.5-0.4,1.7-0.8,2.9
		c-0.4,1.2-5.1,11.7-6.4,14.5c-0.6,1.4-1.2,2.5-1.6,3.3l0,0c0,0,0,0.1-0.1,0.1c-0.3,0.7-0.5,1-0.5,1s0,0,0,0
		c-0.3,0.5-0.5,0.9-0.7,0.9c-0.1,0-0.3-1.3,0-3c0.7-3.7,2.4-9.4,2.4-9.6c0-0.1,0.3-1.1-1.1-1.6c-1.4-0.5-1.9,0.3-2,0.3
		c-0.1,0-0.2,0.3-0.2,0.3s1.5-6.4-2.9-6.4c-2.8,0-6.7,3.1-8.6,5.8c-1.2,0.7-3.8,2.1-6.5,3.6c-1,0.6-2.1,1.2-3.1,1.7
		c-0.1-0.1-0.1-0.2-0.2-0.2c-5.4-5.8-15.5-9.9-15-17.7c0.2-2.8,1.1-10.3,19.3-19.3c14.9-7.4,26.8-5.3,28.9-0.8
		c2.9,6.5-6.4,18.4-21.8,20.2c-5.9,0.7-9-1.6-9.7-2.5c-0.8-0.9-0.9-0.9-1.2-0.8c-0.5,0.3-0.2,1.1,0,1.5c0.5,1.2,2.4,3.3,5.6,4.4
		c2.8,0.9,9.7,1.4,18.1-1.8c9.3-3.6,16.6-13.7,14.5-22.1c-2.1-8.5-16.3-11.4-29.7-6.6c-8,2.8-16.6,7.3-22.8,13.1
		c-7.4,6.9-8.6,12.9-8.1,15.4c1.7,8.9,14,14.7,19,19.1c-0.2,0.1-0.5,0.3-0.7,0.4c-2.5,1.2-11.9,6.1-14.2,11.3
		c-2.7,5.9,0.4,10.1,2.5,10.7c6.3,1.8,12.8-1.4,16.3-6.6s3.1-12,1.5-15.1c0,0,0-0.1-0.1-0.1c0.6-0.4,1.3-0.8,1.9-1.1
		c1.3-0.7,2.5-1.4,3.6-2c-0.6,1.6-1,3.6-1.3,6.5c-0.3,3.3,1.1,7.7,2.9,9.4c0.8,0.7,1.7,0.8,2.3,0.8c2.1,0,3-1.7,4.1-3.8
		c1.3-2.5,2.4-5.4,2.4-5.4s-1.4,7.9,2.5,7.9c1.4,0,2.9-1.8,3.5-2.8v0c0,0,0-0.1,0.1-0.2c0.1-0.2,0.2-0.4,0.2-0.4v0
		c0.6-1,1.8-3.2,3.7-7c2.4-4.8,4.8-10.8,4.8-10.8s0.2,1.5,0.9,3.9c0.4,1.4,1.3,3,2,4.5c-0.6,0.8-0.9,1.2-0.9,1.2s0,0,0,0
		c-0.5,0.6-1,1.3-1.5,1.9c-1.9,2.3-4.2,4.9-4.6,5.7c-0.4,0.9-0.3,1.6,0.4,2.1c0.5,0.4,1.4,0.4,2.4,0.4c1.7-0.1,3-0.5,3.6-0.8
		c0.9-0.3,2-0.9,3.1-1.6c1.9-1.4,3-3.4,2.9-6c-0.1-1.5-0.5-2.9-1.1-4.3c0.2-0.2,0.3-0.5,0.5-0.7c3-4.4,5.3-9.2,5.3-9.2
		s0.2,1.5,0.9,3.9c0.4,1.2,1.1,2.6,1.7,3.9c-2.8,2.3-4.6,4.9-5.2,6.7c-1.1,3.2-0.2,4.7,1.4,5c0.7,0.2,1.8-0.2,2.6-0.5
		c1-0.3,2.2-0.9,3.3-1.7c1.9-1.4,3.7-3.3,3.6-6c-0.1-1.2-0.4-2.4-0.8-3.5c2.4-1,5.5-1.5,9.4-1.1c8.4,1,10.1,6.3,9.8,8.5
		s-2.1,3.4-2.7,3.8s-0.8,0.5-0.7,0.8c0.1,0.4,0.4,0.4,0.9,0.3c0.7-0.1,4.4-1.8,4.6-5.9C-8,80.2-13,74.5-21.7,74.6L-21.7,74.6z
		 M-86.8,96.5c-2.8,3-6.7,4.2-8.4,3.2c-1.8-1-1.1-5.5,2.3-8.8c2.1-2,4.8-3.8,6.6-4.9c0.4-0.2,1-0.6,1.7-1c0.1-0.1,0.2-0.1,0.2-0.1
		l0,0c0.1-0.1,0.3-0.2,0.4-0.3C-82.7,89.2-83.9,93.3-86.8,96.5L-86.8,96.5z M-66.4,82.6c-1,2.4-3,8.5-4.3,8.1
		c-1.1-0.3-1.7-4.9-0.2-9.4c0.8-2.3,2.4-5,3.3-6.1c1.5-1.7,3.2-2.3,3.6-1.6C-63.5,74.6-65.8,81.2-66.4,82.6L-66.4,82.6z M-49.6,90.7
		c-0.4,0.2-0.8,0.4-1,0.2c-0.1-0.1,0.2-0.4,0.2-0.4s2.1-2.3,2.9-3.3c0.5-0.6,1-1.3,1.6-2.1v0.2C-45.8,88.1-48.4,89.9-49.6,90.7
		L-49.6,90.7z M-36.6,87.7c-0.3-0.2-0.2-0.9,0.8-3.1c0.4-0.9,1.3-2.3,2.9-3.7c0.2,0.6,0.3,1.1,0.3,1.6
		C-32.7,85.9-35.2,87.2-36.6,87.7L-36.6,87.7z"/>
</g>
<g class="st0">
	<path class="st1" d="M-88.1,35.2h63c1.3,0,2.3,1,2.3,2.3v63c0,1.3-1,2.3-2.3,2.3h-63c-1.3,0-2.3-1-2.3-2.3v-63
		C-90.3,36.2-89.3,35.2-88.1,35.2z"/>
	<path class="st3" d="M-28.3,86.6c-0.5-3.1-2.5-5.7-8.5-8.1c-2.1-1-4.4-1.6-5.1-3.2c-0.2-0.9-0.3-1.4-0.1-2c0.4-1.8,2.6-2.4,4.3-1.8
		c0.6,0.2,1.2,0.6,1.7,1.1c0.8,0.8,2,0.8,2.9,0.2c0.4-0.3,0.7-0.5,1-0.7c1.2-0.8,1.4-2.4,0.4-3.5c0,0,0,0,0,0c-1.8-2-4.2-3-8.1-2.9
		c-0.4,0-0.9,0.1-1.3,0.1c-2.1,0.4-4.1,1.5-5.3,2.9c-3.2,3.6-2.3,10,1.6,12.6c3.8,2.9,9.5,3.5,10.2,6.2c0.7,3.3-2.4,4.4-5.5,4
		c-1.7-0.3-2.8-1.1-3.8-2.2c-0.7-0.8-1.9-1.1-2.9-0.5c-0.5,0.3-0.8,0.5-1.3,0.7c-1.2,0.7-1.5,2.4-0.6,3.5c0.2,0.3,0.5,0.5,0.8,0.9
		c4.9,5,17.1,4.7,19.3-2.8C-28.4,91-27.8,89.3-28.3,86.6z M-53.6,66.2h-4c-1.3,0-2.3,1-2.3,2.3c0,4.7,0,9.4,0,14.1
		c0,3.5,0.2,6.7-0.4,7.6c-0.9,1.8-3,1.7-4.2,1.4c-0.2,0-0.3-0.1-0.5-0.2c-1-0.5-1.5-1.3-2.1-2.3c-0.2-0.3-0.3-0.6-0.4-0.6
		c-1.1,0.6-2.1,1.3-3.2,1.9c-1.1,0.7-1.5,2.2-0.6,3.3c0.7,0.9,1.5,1.6,2.4,2.2c2.4,1.4,5.6,1.9,9,1.1c2.2-0.6,4.1-2,5.1-4
		c1.4-2.7,1.1-5.9,1.1-9.4C-53.6,77.8-53.6,72.1-53.6,66.2L-53.6,66.2z"/>
</g>
<g class="st0">
	<path class="st1" d="M-160.6,58.5c-2.6,3.7-2.3,8.5-0.3,12.4c0,0.1,0.1,0.2,0.1,0.3c0,0.1,0.1,0.1,0.1,0.2c0,0,0,0.1,0.1,0.1
		c0,0.1,0.1,0.1,0.1,0.2c0.1,0.1,0.1,0.2,0.2,0.3c0,0.1,0.1,0.1,0.1,0.2c0.1,0.1,0.1,0.2,0.2,0.3c0,0,0.1,0.1,0.1,0.1
		c0.1,0.2,0.2,0.3,0.3,0.5c0,0,0,0,0,0c0,0,0,0,0.1,0.1c0.1,0.1,0.2,0.3,0.3,0.4c0,0,0.1,0.1,0.1,0.1c0.1,0.1,0.2,0.2,0.3,0.3
		c0,0,0.1,0.1,0.1,0.1c0.1,0.1,0.2,0.3,0.4,0.4c0,0,0,0,0,0c0,0,0,0,0,0c0.1,0.1,0.2,0.3,0.4,0.4c0,0,0.1,0.1,0.1,0.1
		c0.1,0.1,0.2,0.2,0.3,0.3c0,0,0.1,0.1,0.1,0.1c0.1,0.1,0.3,0.3,0.4,0.4c0,0,0,0,0,0c0,0,0,0,0.1,0.1c0.1,0.1,0.2,0.2,0.4,0.3
		c0.1,0,0.1,0.1,0.2,0.1c0.1,0.1,0.2,0.2,0.3,0.2c0.1,0,0.1,0.1,0.2,0.1c0.1,0.1,0.2,0.2,0.3,0.3c0,0,0.1,0.1,0.1,0.1c0,0,0,0,0,0
		c0.1,0.1,0.2,0.1,0.3,0.2c0.1,0,0.1,0.1,0.1,0.1c0.2,0.1,0.4,0.2,0.5,0.3c0.1,0,0.1,0.1,0.1,0.1c0.1,0.1,0.3,0.2,0.4,0.2
		c0.1,0,0.1,0.1,0.2,0.1c0.1,0,0.2,0.1,0.3,0.1c0,0,0,0,0.1,0c0,0,0.1,0,0.1,0.1c0.1,0.1,0.3,0.1,0.5,0.2c0,0,0.1,0,0.1,0
		c0.2,0.1,0.3,0.1,0.5,0.2c0,0,0.1,0,0.1,0c0.2,0.1,0.3,0.1,0.5,0.2c0,0,0,0,0.1,0c0.2,0.1,0.4,0.1,0.6,0.2c0,0,0.1,0,0.1,0
		c0.2,0.1,0.4,0.1,0.6,0.2c12.4,2.3,16-7.5,16-7.5c-3,4-8.4,5-13.5,3.8c-0.2,0-0.4-0.1-0.6-0.2c0,0-0.1,0-0.1,0
		c-0.2-0.1-0.4-0.1-0.5-0.2c0,0-0.1,0-0.1,0c-0.2-0.1-0.3-0.1-0.5-0.2c0,0-0.1,0-0.1-0.1c-0.2-0.1-0.4-0.1-0.5-0.2c0,0-0.1,0-0.1,0
		c-0.1-0.1-0.3-0.1-0.4-0.2c0,0-0.1,0-0.1-0.1c-0.1-0.1-0.2-0.1-0.3-0.2c-0.1,0-0.2-0.1-0.2-0.1c-0.1-0.1-0.3-0.2-0.4-0.2
		c0,0-0.1-0.1-0.1-0.1c-0.2-0.1-0.4-0.2-0.5-0.3c-0.1,0-0.1-0.1-0.1-0.1c-0.1-0.1-0.3-0.2-0.4-0.3c0,0-0.1-0.1-0.1-0.1
		c-0.1-0.1-0.2-0.2-0.4-0.3c-0.1,0-0.1-0.1-0.2-0.1c-0.1-0.1-0.2-0.2-0.3-0.3c0,0-0.1-0.1-0.1-0.1c-0.1-0.1-0.3-0.2-0.4-0.3
		c0,0,0,0,0,0c-0.1-0.1-0.3-0.3-0.4-0.4c0,0-0.1-0.1-0.1-0.1c-0.1-0.1-0.2-0.2-0.3-0.3c0,0-0.1-0.1-0.1-0.1
		c-0.1-0.1-0.3-0.3-0.4-0.4c0,0,0,0,0,0c-0.1-0.1-0.3-0.3-0.4-0.4c0,0-0.1-0.1-0.1-0.1c-0.1-0.1-0.2-0.2-0.3-0.3
		c0,0-0.1-0.1-0.1-0.1c-0.1-0.1-0.2-0.3-0.3-0.4c-2.8-3.9-3.9-9.2-1.6-13.6"/>
	<path class="st1" d="M-152.6,55.4c-1.9,2.7-1.8,6.3-0.3,9.1c0.2,0.5,0.5,0.9,0.8,1.4c0.3,0.4,0.6,0.9,1,1.2
		c0.1,0.1,0.3,0.3,0.4,0.4c0,0,0.1,0.1,0.1,0.1c0.1,0.1,0.3,0.3,0.4,0.4c0,0,0,0,0,0c0,0,0,0,0,0c0.2,0.1,0.3,0.3,0.5,0.4
		c0,0,0.1,0.1,0.1,0.1c0.2,0.1,0.3,0.3,0.5,0.4c0,0,0,0,0,0c0.1,0.1,0.2,0.1,0.2,0.2c0,0,0.1,0.1,0.1,0.1c0.1,0.1,0.3,0.2,0.4,0.2
		c0,0,0,0,0.1,0c0.1,0.1,0.2,0.1,0.3,0.2c0,0,0.1,0,0.1,0.1c0.1,0,0.2,0.1,0.2,0.1c0,0,0,0,0,0c0.2,0.1,0.3,0.2,0.5,0.2
		c0,0,0.1,0,0.1,0c0.1,0.1,0.3,0.1,0.4,0.2c0.1,0,0.1,0,0.2,0.1c0.1,0,0.3,0.1,0.4,0.1c0.1,0,0.1,0,0.2,0.1c0.2,0.1,0.4,0.1,0.5,0.2
		c9.6,1.6,11.8-5.8,11.8-5.8c-2,2.9-5.9,4.3-10,3.2c-0.2,0-0.4-0.1-0.5-0.2c-0.1,0-0.1,0-0.2-0.1c-0.1,0-0.3-0.1-0.4-0.1
		c-0.1,0-0.1,0-0.2-0.1c-0.1-0.1-0.3-0.1-0.4-0.2c0,0-0.1,0-0.1,0c-0.2-0.1-0.3-0.2-0.5-0.2c-0.1,0-0.2-0.1-0.3-0.1
		c-0.1,0-0.1,0-0.1-0.1c-0.1-0.1-0.2-0.1-0.3-0.2c0,0-0.1,0-0.1,0c-0.1-0.1-0.3-0.2-0.4-0.2c0,0-0.1-0.1-0.1-0.1
		c-0.1-0.1-0.2-0.1-0.3-0.2c-0.2-0.1-0.3-0.2-0.5-0.4c0,0-0.1-0.1-0.1-0.1c-1.8-1.4-3.2-3.4-3.9-5.6c-0.7-2.3-0.6-4.9,0.7-7"/>
	<path class="st1" d="M-145.9,53.1c-1.1,1.6-1.2,3.6-0.4,5.4c0.8,1.9,2.5,3.4,4.4,4.1c0.1,0,0.2,0.1,0.2,0.1c0,0,0.1,0,0.1,0
		c0.1,0,0.2,0.1,0.3,0.1c5.3,1,6.7-2.7,7.1-3.3c-1.3,1.8-3.4,2.2-6,1.6c-0.2,0-0.4-0.1-0.6-0.2c-0.3-0.1-0.5-0.2-0.7-0.3
		c-0.5-0.2-0.9-0.5-1.3-0.8c-2.3-1.8-3.8-5.1-2.2-7.9"/>
	<path class="st1" d="M-23,60.7l0.2,0.9c0.1,0.3-0.1,0.5-0.4,0.5"/>
	<path class="st1" d="M-39.8,59.2c-0.1,0.2-0.1,0.6-0.2,0.8l-1.8,8.6l1.9-9L-39.8,59.2z"/>
	<polygon class="st1" points="-94.7,64.9 -95.7,68.5 -94.7,64.9 	"/>
	<path class="st1" d="M-22.8,61.5l-0.5-2.2c-0.4-1.6-1.6-2.4-4.3-2.4h-11.2c-0.3,0-0.5,0.1-0.6,0.4l-4.2,20.1
		c-0.1,0.3-0.1,0.4,0,0.6c0,0.1,0.5,0.1,0.8,0.1h3.9c0.3,0,0.7,0,0.9,0c0.1-0.1,0.2-0.4,0.3-0.7l1.4-7l1.7-7.8
		c0.1-0.3,0.3-0.5,0.6-0.5l11.1,0C-22.9,62-22.8,61.8-22.8,61.5"/>
	<path class="st1" d="M-7.1,53.4c-0.3,0-4.9,0-4.9,0c-0.3,0-0.6,0.3-0.7,0.5l-8.6,12.7c-0.1,0.2-0.3,0.2-0.4,0l-0.6-2.8
		c-0.1-0.3-0.3-0.5-0.6-0.5h-5.5c-0.3,0-0.4,0.2-0.3,0.5l2.5,8.7c0.1,0.2,0.1,0.7,0,0.9l-1.2,4.4c-0.1,0.2,0.1,0.3,0.4,0.3h5.5
		c0.3,0,0.5-0.1,0.6-0.3l1.2-4.5c0.1-0.2,0.2-0.6,0.4-0.8l14.1-18.6c0.2-0.2,0.1-0.4-0.1-0.4L-7.1,53.4z"/>
	<path class="st1" d="M-64.7,56.9h-5c-0.3,0-0.5,0.1-0.6,0.3l-1.7,7.7l-1.6,7.4c-0.1,0.3-0.3,0.2-0.6,0.2h-3.3
		c-3.2,0-2.9-2.1-2.2-5.1c0,0,2.1-10.2,2.1-10.2c0-0.3-0.1-0.3-0.4-0.3h-4.8c-0.3,0-0.5,0.1-0.6,0.3l-1.9,10.2
		c-1,5.5-1,10.4,5.4,10.6c0.1,0,10.1,0,10.1,0c0.3,0,0.5-0.1,0.6-0.3l2.2-10.3l2.2-10.3C-64.7,57.2-64.6,56.9-64.7,56.9z"/>
	<path class="st1" d="M-114.5,56.9h-5.4c-0.3,0-0.5,0.1-0.6,0.3l-1,4.2c-0.1,0.2,0.1,0.4,0.4,0.4h5.1c0.3,0,0.5-0.2,0.6-0.5l0.9-4.2
		C-114.4,57.2-114.3,56.9-114.5,56.9z"/>
	<path class="st1" d="M-121.4,63.3c-0.3,0-0.5,0.2-0.6,0.5l-0.7,3.2l-1.6,7.4c0,0-0.9,3.9-0.9,4.2c0,0-0.7,2.8-2.4,2.7
		c-0.8-0.1-1.7-0.2-1.7-0.2h0c-0.5-0.1-0.5,0.4-0.6,0.6l-1.1,4.6c-0.1,0.3,0.1,0.5,0.4,0.5c0,0,2.3,0.3,3.9,0.3h0.3
		c4,0,6.1-2.4,7.5-8.8l1.6-7.4l1.5-6.9c0.1-0.3-0.1-0.5-0.4-0.5"/>
	<path class="st1" d="M-52.1,56.9c-9,0-11.2,5.6-12.4,11.1c-1.2,5.6-1.1,10.1,8.2,10.1h0.3c3.7,0,8.2,0,8.2,0c0.3,0,0.5-0.2,0.6-0.5
		l0.9-3.6c0.1-0.3-0.1-0.3-0.4-0.3H-55c-3,0-4.1-0.9-4-3c0-0.2,0.3-0.8,0.5-0.8h12.9c0.6,0,0.6-0.3,0.6-0.3
		C-43.6,63.5-43.5,56.9-52.1,56.9 M-49.7,65.7c0,0.3-0.9,0.2-0.9,0.2l-7-0.1c-0.2,0-0.3-0.3-0.3-0.6c0,0,0-0.3,0-0.4
		c0.5-1.9,2.2-3,4.7-3c2.9,0,3.5,1.4,3.5,3"/>
	<path class="st1" d="M-91,72.3c0,0,2.5-6.1,3.1-9.7c0.8-4.7-1.6-11.6-10.8-11.6c-9.1,0-13.1,6.6-14.6,13.7
		c-1.5,7.2,0.5,13.4,9.5,13.4l13.8,0c0.3,0,0.5-0.2,0.6-0.5l1.2-4.4c0.1-0.3-0.1-0.5-0.4-0.5l-1.1,0l-1.1,0c-0.2,0-0.3-0.1-0.3-0.3
		C-91,72.3-91,72.3-91,72.3 M-95.8,68.5l-1,3.5c-0.1,0.2-0.4,0.4-0.6,0.4h-5.4c-4.1,0-5.1-3.1-4.1-7.8c1-4.8,3-7.8,7-8.1
		c5.5-0.4,6.6,3.4,5.3,7.9L-95.8,68.5z"/>
</g>
<g class="st0">
	<path class="st1" d="M-116.5,92.3c0,4.5,3.7,8.2,8.2,8.2H-61c4.5,0,8.2-3.7,8.2-8.2V44.9c0-4.5-3.7-8.2-8.2-8.2h-47.3
		c-4.5,0-8.2,3.7-8.2,8.2V92.3z"/>
	<path class="st3" d="M-90.1,64.9v-9h7.9c0.8,0,1.5,0.1,2.2,0.2c0.7,0.1,1.3,0.4,1.9,0.7c0.5,0.3,1,0.8,1.3,1.4
		c0.3,0.6,0.5,1.3,0.5,2.2c0,1.6-0.5,2.8-1.5,3.5c-1,0.7-2.2,1.1-3.7,1.1H-90.1L-90.1,64.9z M-98.6,49.3v38.6h18.7
		c1.7,0,3.4-0.2,5.1-0.6c1.6-0.4,3.1-1.1,4.4-2s2.3-2.1,3.1-3.5c0.8-1.4,1.1-3.1,1.1-5.1c0-2.4-0.6-4.5-1.8-6.2
		c-1.2-1.7-2.9-2.9-5.3-3.6c1.7-0.8,3-1.9,3.9-3.2c0.9-1.3,1.3-2.9,1.3-4.9c0-1.8-0.3-3.3-0.9-4.5s-1.4-2.2-2.5-2.9
		c-1.1-0.7-2.4-1.3-3.9-1.6s-3.2-0.5-5-0.5H-98.6L-98.6,49.3z M-90.1,81.3V70.7h9.2c1.8,0,3.3,0.4,4.4,1.3s1.7,2.3,1.7,4.2
		c0,1-0.2,1.8-0.5,2.5c-0.3,0.6-0.8,1.2-1.4,1.5c-0.6,0.4-1.2,0.6-2,0.8c-0.8,0.2-1.5,0.2-2.4,0.2H-90.1L-90.1,81.3z"/>
</g>
<g class="st0">
	<path class="st1" d="M-112.3,97.8h-4.1c-0.1-6.9-0.5-13.5-1.2-19.6h0l-6.3,19.6h-3.1l-6.2-19.6h0c-0.5,5.9-0.8,12.4-0.9,19.6h-3.8
		c0.2-8.7,0.8-16.9,1.8-24.6h5.1l5.9,18.1h0l6-18.1h4.9C-113.1,82.2-112.5,90.4-112.3,97.8"/>
	<path class="st1" d="M-94.5,79.7c-1.7,9.1-3.9,15.7-6.6,19.8c-2.1,3.2-4.5,4.8-7,4.8c-0.7,0-1.5-0.2-2.5-0.6v-2.2
		c0.5,0.1,1.1,0.1,1.7,0.1c1.2,0,2.1-0.3,2.9-1c0.9-0.8,1.3-1.7,1.3-2.7c0-0.7-0.3-2.1-1-4.2l-4.5-14h4l3.2,10.5c0.7,2.4,1,4,0.9,5
		c1.8-4.7,3-9.9,3.7-15.5H-94.5z"/>
	<polygon class="st1" points="-39.7,97.8 -51.4,97.8 -51.4,73.2 -47.4,73.2 -47.4,94.8 -39.7,94.8 	"/>
	<path class="st11" d="M-54.4,98.4l-4.5-2.2c0.4-0.3,0.8-0.7,1.1-1.1c1.9-2.3,2.9-5.6,2.9-10c0-8.1-3.2-12.2-9.6-12.2
		c-3.1,0-5.6,1-7.3,3.1c-1.9,2.3-2.9,5.6-2.9,10c0,4.3,0.8,7.5,2.5,9.5c1.6,1.8,3.9,2.7,7,2.7c1.2,0,2.2-0.1,3.2-0.4l5.9,3.4
		L-54.4,98.4z M-69.1,92.9c-1-1.6-1.5-4.2-1.5-7.7c0-6.2,1.9-9.3,5.6-9.3c2,0,3.4,0.7,4.3,2.2c1,1.6,1.5,4.2,1.5,7.7
		c0,6.2-1.9,9.4-5.6,9.4C-66.7,95.1-68.2,94.4-69.1,92.9"/>
	<path class="st1" d="M-76.4,91c0,2.1-0.8,3.8-2.3,5.1c-1.5,1.3-3.6,2-6.2,2c-2.4,0-4.7-0.8-7-2.3l1.1-2.1c1.9,1,3.7,1.5,5.3,1.5
		c1.5,0,2.6-0.3,3.5-1c0.8-0.7,1.3-1.6,1.3-2.7c0-1.5-1-2.7-2.9-3.8c-1.7-0.9-5.2-2.9-5.2-2.9c-1.9-1.4-2.8-2.8-2.8-5.2
		c0-2,0.7-3.6,2.1-4.8c1.4-1.2,3.2-1.8,5.4-1.8c2.3,0,4.4,0.6,6.2,1.8l-0.9,2.1c-1.6-0.7-3.2-1-4.7-1c-1.3,0-2.2,0.3-2.9,0.9
		c-0.7,0.6-1.1,1.4-1.1,2.3c0,1.5,1,2.7,3,3.8c1.7,0.9,5.3,3,5.3,3C-77.4,87.1-76.4,88.6-76.4,91"/>
	<path class="st11" d="M-34.7,65c-2.4-0.1-4.2,0.2-5.8,0.8c-0.4,0.2-1.2,0.2-1.2,0.7c0.2,0.2,0.3,0.6,0.5,1c0.4,0.6,1,1.4,1.5,1.8
		c0.6,0.5,1.2,0.9,1.9,1.4c1.2,0.7,2.5,1.1,3.6,1.8c0.7,0.4,1.3,0.9,2,1.4c0.3,0.2,0.5,0.6,0.9,0.8v-0.1c-0.2-0.3-0.3-0.7-0.5-1
		c-0.3-0.3-0.6-0.6-0.9-0.9c-0.9-1.2-1.9-2.2-3.1-3c-1-0.7-3-1.5-3.4-2.6c0,0,0,0-0.1-0.1c0.7-0.1,1.4-0.3,2.1-0.5
		c1-0.3,1.9-0.2,3-0.5c0.5-0.1,1-0.3,1.4-0.4v-0.3c-0.5-0.5-0.9-1.2-1.5-1.8c-1.5-1.3-3.2-2.6-4.9-3.7c-0.9-0.6-2.1-1-3.1-1.5
		c-0.4-0.2-0.9-0.3-1.2-0.6c-0.5-0.7-0.8-1.5-1.2-2.3c-0.9-1.6-1.7-3.4-2.4-5.2c-0.5-1.2-0.9-2.3-1.5-3.4C-51.7,42.1-55,39-60.1,36
		c-1.1-0.6-2.4-0.9-3.8-1.2c-0.7,0-1.5-0.1-2.2-0.1c-0.5-0.2-1-0.8-1.4-1c-1.7-1.1-6.1-3.4-7.3-0.3c-0.8,1.9,1.2,3.8,1.9,4.8
		c0.5,0.7,1.2,1.5,1.5,2.2c0.2,0.5,0.3,1,0.5,1.6c0.5,1.3,0.9,2.8,1.5,4c0.3,0.6,0.7,1.3,1.1,1.8c0.2,0.3,0.7,0.5,0.7,1
		c-0.4,0.6-0.4,1.5-0.7,2.2c-1.1,3.4-0.7,7.5,0.9,10c0.5,0.7,1.6,2.4,3.1,1.8c1.3-0.5,1-2.2,1.4-3.7c0.1-0.4,0-0.6,0.2-0.8v0.1
		c0.4,0.8,0.8,1.6,1.2,2.5c0.9,1.5,2.5,3,3.9,4c0.7,0.5,1.3,1.5,2.2,1.8v-0.1h-0.1c-0.2-0.3-0.4-0.4-0.7-0.6
		c-0.5-0.5-1.1-1.2-1.5-1.8c-1.2-1.7-2.3-3.5-3.3-5.4c-0.5-0.9-0.9-1.9-1.3-2.9c-0.2-0.4-0.2-0.9-0.5-1.1c-0.4,0.7-1.1,1.2-1.4,2
		c-0.6,1.3-0.6,2.9-0.8,4.5c-0.1,0-0.1,0-0.1,0.1c-0.9-0.2-1.3-1.2-1.6-2c-0.9-2.1-1-5.5-0.3-7.9c0.2-0.6,1.1-2.6,0.7-3.2
		c-0.2-0.6-0.8-0.9-1.1-1.3c-0.4-0.6-0.8-1.3-1.1-1.9c-0.7-1.7-1.1-3.5-1.8-5.2c-0.4-0.8-1-1.6-1.5-2.3c-0.6-0.8-1.2-1.4-1.6-2.3
		c-0.1-0.3-0.4-0.9-0.1-1.2c0.1-0.2,0.2-0.3,0.4-0.4c0.4-0.3,1.5,0.1,1.9,0.3c1.1,0.4,2,0.9,2.9,1.5c0.4,0.3,0.9,0.9,1.4,1h0.6
		c1,0.2,2,0.1,2.9,0.3c1.6,0.5,3,1.2,4.3,2c3.9,2.5,7.1,6,9.3,10.2c0.4,0.7,0.5,1.3,0.8,2c0.6,1.5,1.4,2.9,2,4.4
		c0.6,1.4,1.2,2.8,2.1,4c0.4,0.6,2.2,0.9,3,1.3c0.6,0.3,1.5,0.5,2.1,0.8c1,0.6,2,1.3,3,2C-36.3,63.6-34.8,64.4-34.7,65"/>
	<path class="st1" d="M-31.9,97.8h0.6v-3h-0.9l-0.8,2.1l-0.8-2.1h-0.9v3h0.6v-2.3h0l0.9,2.3h0.4l0.9-2.3V97.8z M-36.9,97.8h0.7v-2.5
		h0.9v-0.5h-2.4v0.5h0.9V97.8z"/>
</g>
<g class="st0">
	<ellipse class="st1" cx="-84.6" cy="68.4" rx="44.9" ry="22.7"/>
	<g class="st4">
		<path class="st6" d="M-104,61.4c2,0,3.4,0.4,4.1,1.1c0.7,0.8,0.8,2,0.5,3.9c-0.4,1.9-1.1,3.3-2.1,4.1c-1.1,0.8-2.7,1.2-4.8,1.2
			h-3.3l2-10.3H-104z M-117,82.2h5.4l1.3-6.5h4.6c2,0,3.7-0.2,5-0.6c1.3-0.4,2.5-1.1,3.6-2.1c0.9-0.8,1.6-1.7,2.2-2.7
			c0.6-1,1-2.1,1.2-3.3c0.6-2.9,0.1-5.2-1.3-6.8c-1.4-1.6-3.7-2.4-6.8-2.4h-10.3L-117,82.2z"/>
		<path class="st6" d="M-89.9,51h5.3l-1.3,6.5h4.7c3,0,5,0.5,6.2,1.6c1.1,1,1.5,2.7,1,5.1l-2.2,11.5h-5.4l2.1-10.9
			c0.2-1.2,0.2-2.1-0.3-2.5c-0.4-0.5-1.3-0.7-2.7-0.7h-4.3l-2.7,14.1h-5.3L-89.9,51z"/>
		<path class="st6" d="M-62.1,61.4c2,0,3.4,0.4,4.1,1.1c0.7,0.8,0.8,2,0.5,3.9c-0.4,1.9-1.1,3.3-2.1,4.1c-1.1,0.8-2.7,1.2-4.8,1.2
			h-3.3l2-10.3H-62.1z M-75.2,82.2h5.4l1.3-6.5h4.6c2,0,3.7-0.2,5-0.6c1.3-0.4,2.5-1.1,3.6-2.1c0.9-0.8,1.6-1.7,2.2-2.7
			c0.6-1,1-2.1,1.2-3.3c0.6-2.9,0.1-5.2-1.3-6.8c-1.4-1.6-3.7-2.4-6.8-2.4h-10.3L-75.2,82.2z"/>
	</g>
</g>
<g class="st0">
	<g id="test-tube_1_" class="st4">
		<path id="tube_1_" class="st5" d="M164,97L164,97c-0.8,0-1.6-0.1-2.4-0.4c-3.2-1.2-4.9-4.7-4.1-8l0,0l0.2-0.6l16.4-42.7
			c0.2-0.6,0.1-2.1,0-3c0-0.2,0-0.4,0-0.6l0,0c0,0,0-0.1,0-0.1c0.3-0.7,1.1-1,2.4-1c1.6,0,3.8,0.5,6,1.4c1.9,0.7,3.6,1.6,4.8,2.5
			c1.4,1.1,2,2,1.7,2.8c0,0,0,0.1,0,0.1l0,0c-0.1,0.2-0.2,0.3-0.3,0.4c-0.7,0.6-1.8,1.7-2,2.2L170,93.4l0,0
			C168.8,95.6,166.5,97,164,97z M158.8,88.3l0,0.1c-1.1,2.8,0.4,6,3.2,7.1c0.6,0.2,1.3,0.4,2,0.4c2.3,0,4.3-1.4,5.1-3.5l0.1-0.1
			l16.4-42.5c0.3-0.9,2-2.4,2.3-2.7l0,0c0,0,0,0,0,0l0,0c0-0.1-0.1-0.6-1.3-1.5c-1.1-0.8-2.7-1.7-4.5-2.4c-2.1-0.8-4.2-1.3-5.6-1.3
			c-0.9,0-1.3,0.2-1.3,0.3v0c0,0,0,0,0,0.1v0c0,0.2,0.3,2.4-0.1,3.6L158.8,88.3z"/>
		<path id="liquid_1_" class="st5" d="M179.9,61.3c0,0-2.3,2.6-4.3,3.5c-2.1,0.9-3.6,0.7-5.5,1.8c-1.9,1.1-2.8,2.6-2.8,2.6
			l-7.6,19.7c-0.8,2.2,0.4,4.8,2.7,5.7c2.3,0.9,4.8-0.3,5.7-2.5l0,0L179.9,61.3z M172.3,72.6c0.4-0.2,0.8,0,0.9,0.4
			c0.2,0.4,0,0.8-0.4,0.9c-0.4,0.2-0.8,0-0.9-0.4C171.7,73.2,171.9,72.8,172.3,72.6z M169.2,69.4c0.2-0.1,0.5,0,0.6,0.2
			s0,0.5-0.2,0.6c-0.2,0.1-0.5,0-0.6-0.2C168.9,69.8,169,69.5,169.2,69.4z M165.9,80.5c-0.4,0.2-0.8,0-0.9-0.4
			c-0.2-0.4,0-0.8,0.4-0.9c0.4-0.2,0.8,0,0.9,0.4C166.4,79.9,166.3,80.3,165.9,80.5z M166.6,77.9c-0.3-0.7,0-1.5,0.7-1.8
			c0.7-0.3,1.5,0,1.8,0.7c0.3,0.7,0,1.5-0.7,1.8C167.6,78.9,166.9,78.6,166.6,77.9z M168.3,84.7c0.2-0.1,0.5,0,0.6,0.2
			c0.1,0.2,0,0.5-0.2,0.6s-0.5,0-0.6-0.2C167.9,85.1,168,84.8,168.3,84.7z"/>

			<ellipse id="top_1_" transform="matrix(0.359 -0.9333 0.9333 0.359 74.3163 198.1327)" class="st5" cx="181.4" cy="45" rx="1.2" ry="4.6"/>
	</g>
	<path id="jekyll-text" class="st1" d="M81.3,66.7c0.7,0.6,2,0.2,2.9-0.7c0.9-1,1.1-2.3,0.3-2.9c-0.7-0.6-2-0.2-2.9,0.8
		C80.8,64.9,80.6,66.1,81.3,66.7z M79.2,68.6c-0.2,0-0.5,0.3-0.2,0.5c0.4,0.1,0.6,0.5,0.6,1c-0.3,2-2.8,4.3-3.8,5
		c-0.2,0.2,0.1,0.8,0.3,0.6c0.5-0.4,1.6-1.3,2.6-2.5c-1.5,3.3-4.4,7.7-5.5,9.2C68.8,88.4,62.1,94,57.6,94c-3.6,0-6.7-2.5-7.4-6.1
		c0-0.4-0.6-0.5-0.5,0c0.8,5,4.7,6.9,9.3,6.9c5.1,0,11.1-3.7,14.3-7.5c5.3-6.1,8.8-13.1,7.9-17.1C80.8,68.8,79.8,68.6,79.2,68.6z
		 M111.9,81.9c1.4-0.3,2.6-1.1,2.6-2.3c0-0.1-0.2-0.1-0.2,0c0,0.7-0.8,1.3-1.7,1.5c-2.2,0.3-6.5-2.2-8.5-4.8
		c2.2,0.8,6.6-0.4,8.7-1.9c1.9-1.4,2.7-2.9,2.9-4.2c0.2-2.1-2-3.3-5.2-2.1c-2,0.8-4.5,2.6-7,6c2.7-4.4,7.9-11.6,13-16.2
		c6.3-5.6,9.9-4.5,4.3,1.4c-2.3,2.4-6.7,5.6-9.7,6.9c-0.9,0.4-0.5,0.9,0.2,0.6c3.2-1.4,7.5-4.3,10-6.7c7.6-7.3,1.3-12.8-7.2-5.1
		c-5.7,5.3-9.5,10.8-12.7,18c-1.1,1.4-1.9,2.5-3,3.3c-0.1,0.1-0.2,0.2-0.3,0.3c-2.8,2.4-7.2,5.6-9.9,5.7c-1.9,0-2.8-1.4-2.4-3.3
		c0.5-2.9,3.6-6.4,6.2-7.7c3.4-1.5,5.4,1.4,0.9,3.9c-1.7,0.9-3.7,1.4-4.6,1.4c-1,0-0.9,0.4,0,0.4c1.4,0,3.5-0.5,5-1.2
		c4.6-2.2,4.8-6.2-0.1-6.4c-5.4-0.2-11.8,4.4-11.8,10.2c0,2.6,2.1,4,5,4c4.8,0,9-3.7,12.5-6.9c0.5-0.4,1-0.9,1.5-1.4
		c-1.2,3.1-1.8,6-1.5,8.1c0.2,1.5,1.1,2.3,1.7,2.8c0.1,0.1,0.4,0,0.2-0.3c-1-1.2-0.7-4.8,0.7-8.3C102.6,80,107.2,83,111.9,81.9z
		 M106.2,71.8c5.6-5,7.8-0.5,4.2,2.2c-1.8,1.4-5.5,2.5-6.6,1.8l-0.2-0.1c-0.1-0.2-0.3-0.5-0.4-0.7C104.1,73.8,105.1,72.8,106.2,71.8
		z M137.1,66.1c2.2,0.2,1.3-2.5-1-1.8c-1,0.3-2,2.2-2.7,3.9c-2.2,3.3-6,7.9-8.6,10.3c-2.3,2-4.5,2.5-1.8-1.2
		c1.1-1.5,2.4-3.1,3.2-4.7c1.8-4-2.1-5.8-5.2-3.4c-1.8,1.4-4.3,4.3-6.3,5.9c-0.5,0.4-0.4,1.1,0.1,0.6c1.5-1.3,4.3-4.1,6.6-5.8
		c1.9-1.5,2.7-0.5,1.6,0.7c-1.5,1.8-4.3,4.9-4.9,6.9c-1,2.9,0.2,4.3,2.1,4.3c2.7,0,6.6-4.2,9.3-7.5c0.9-1.1,1.8-2.4,2.7-3.7
		c-2.3,4.5-4.7,9.1-7.8,13.2c-4.3,5.8-9.6,10.2-14.6,10.2c-3.6,0-6.8-2.5-7.5-6.1c0-0.4-0.5-0.5-0.5,0c0.8,5,4.7,6.9,9.3,6.9
		c5.1,0,10-2.9,13.4-6.6c6.9-7.3,7.8-15.5,9.9-20.1C135.5,66.1,136.4,66,137.1,66.1z M165.3,59.1c1-1.7,1-3.1-1.4-3.1
		c-1.8,0-5,1.3-6.5,2.5c-0.3,0.3-0.2,0.5,0.2,0.3c0.3-0.1,0.6-0.3,1-0.4c1.7-0.9,1,1,0.6,1.7c-2,3.5-5.6,8.5-7.5,11
		c-0.9,1.2-1.9,2.4-2.9,3.5c-1.8,1.7-5.4,4.8-8.1,5.8c-8.8,3.3,2.4-11.7,3.3-12.9c2.1-2.6,6.7-7.2,8.1-9.4c1-1.7,1-3.1-1.4-3.1
		c-1.8,0-5,1.3-6.5,2.5c-0.3,0.3-0.2,0.5,0.2,0.3c0.3-0.1,0.6-0.3,1-0.4c1.7-0.9,1,1,0.6,1.7c-2,3.5-5.6,8.5-7.5,11
		c-1.5,2.1-3.4,4.2-4.9,5.3c-0.6,0.5-0.2,0.9,0.3,0.5c0.5-0.3,1.3-1.1,2.2-2c-1.6,3.2-2.9,7.7,1.3,8.2c3.6,0.5,7.9-3.2,10.6-5.9
		c0.3-0.3,0.6-0.6,1-1c0.1-0.1,0.2-0.2,0.2-0.2c-1.6,3.2-2.9,7.7,1.3,8.2c4.6,0.6,10.3-5.6,12.5-7.8c0.4-0.4,0.3-1.2-0.4-0.4
		c-1.3,1.4-5.7,5.4-8.9,6.6c-8.8,3.3,2.4-11.7,3.3-12.9C159.2,65.9,163.9,61.4,165.3,59.1z"/>
</g>
<g>
	<g>
		<path class="st5" d="M88.9,68.5c0,12.2,7.1,22.7,17.3,27.6L91.6,56C89.9,59.8,88.9,64,88.9,68.5z"/>
		<path class="st5" d="M140.4,66.9c0-3.8-1.4-6.4-2.5-8.5c-1.6-2.5-3-4.7-3-7.2c0-2.8,2.1-5.4,5.2-5.4c0.1,0,0.3,0,0.4,0
			c-5.5-5-12.7-8.1-20.7-8.1c-10.7,0-20.2,5.5-25.6,13.8c0.7,0,1.4,0,2,0c3.2,0,8.2-0.4,8.2-0.4c1.7-0.1,1.8,2.3,0.2,2.5
			c0,0-1.7,0.2-3.5,0.3L112,87.3l6.7-20.1L114,54.1c-1.7-0.1-3.2-0.3-3.2-0.3c-1.7-0.1-1.5-2.6,0.2-2.5c0,0,5.1,0.4,8.1,0.4
			c3.2,0,8.2-0.4,8.2-0.4c1.7-0.1,1.8,2.3,0.2,2.5c0,0-1.7,0.2-3.5,0.3l11.1,33l3.1-10.2C139.4,72.6,140.4,69.5,140.4,66.9z"/>
		<path class="st5" d="M120.2,71.2L111,97.9c2.8,0.8,5.7,1.3,8.7,1.3c3.6,0,7-0.6,10.2-1.7c-0.1-0.1-0.2-0.3-0.2-0.4L120.2,71.2z"/>
		<path class="st5" d="M146.6,53.7c0.1,1,0.2,2,0.2,3.2c0,3.1-0.6,6.6-2.3,11L135.1,95c9.1-5.3,15.3-15.2,15.3-26.5
			C150.3,63.1,149,58.1,146.6,53.7z"/>
		<path class="st5" d="M119.6,32.7c-19.7,0-35.8,16.1-35.8,35.8c0,19.7,16.1,35.8,35.8,35.8c19.7,0,35.8-16.1,35.8-35.8
			C155.4,48.7,139.4,32.7,119.6,32.7z M119.6,102.6c-18.8,0-34.1-15.3-34.1-34.1c0-18.8,15.3-34.1,34.1-34.1
			c18.8,0,34.1,15.3,34.1,34.1C153.8,87.3,138.5,102.6,119.6,102.6z"/>
	</g>
</g>
<g class="st0">
	<path class="st1" d="M140,61.6c0.8,1,1.7,2.5,1.7,4.6c0,5-3.9,8-9.7,8c-1.5,0-2.8-0.2-3.6-0.4l-1.5,2.4l4.4,0.3
		c7.8,0.5,12.5,0.7,12.5,6.8c0,5.2-4.6,8.2-12.5,8.2c-8.2,0-11.3-2.1-11.3-5.7c0-2,0.9-3.1,2.5-4.6c-1.5-0.6-2-1.8-2-3
		c0-1,0.5-1.9,1.3-2.8c0.8-0.9,1.7-1.7,2.8-2.7c-2.2-1.1-3.9-3.4-3.9-6.8c0-5.2,3.4-8.8,10.4-8.8c1.9,0,3.1,0.2,4.2,0.5h8.8v3.9
		L140,61.6z M126.6,82.3c-0.6,0.7-1.2,1.5-1.2,2.4c0,1.8,2.3,2.4,5.5,2.4c2.6,0,6.2-0.2,6.2-2.6c0-1.5-1.7-1.5-3.9-1.7L126.6,82.3z
		 M131.6,61.5c-2.5,0-4.3,1.2-4.3,4.2c0,2.2,1.2,3.8,4.2,3.8c2.5,0,4.3-1.5,4.3-3.9C135.7,62.9,134.1,61.5,131.6,61.5z"/>
	<path class="st1" d="M146.3,80.6V77l2.3-0.3c0.6-0.1,0.7-0.2,0.7-0.9V62.5c0-0.5-0.1-0.8-0.6-1l-2.4-0.9l0.5-3.7h9.4v18.8
		c0,0.7,0,0.8,0.7,0.9l2.3,0.3v3.6H146.3z M152.1,53.4c-2.6,0-4.1-1.5-4.1-4.1c0-2.6,1.5-4,4.1-4c2.6,0,4.1,1.4,4.1,4
		C156.3,51.9,154.8,53.4,152.1,53.4z"/>
	<path class="st1" d="M177.1,78.8c-1.9,1-4.8,1.8-7.4,1.8c-5.4,0-7.4-2.2-7.4-7.3V61.5c0-0.3,0-0.5-0.4-0.5h-3.2v-4
		c4-0.5,5.6-2.4,6.1-7.4h4.3V56c0,0.3,0,0.5,0.4,0.5h6.4V61h-6.8v10.8c0,2.7,0.6,3.7,3.1,3.7c1.3,0,2.6-0.3,3.7-0.7L177.1,78.8z"/>
	<g class="st4">
		<path class="st5" d="M110,66.9L89.3,46.2c-1.2-1.2-3.1-1.2-4.3,0l-4.3,4.3l5.5,5.5c1.3-0.4,2.7-0.1,3.7,0.9c1,1,1.3,2.5,0.9,3.8
			l5.3,5.3c1.3-0.4,2.7-0.2,3.8,0.9c1.4,1.4,1.4,3.7,0,5.1c-1.4,1.4-3.7,1.4-5.1,0c-1.1-1.1-1.3-2.6-0.8-4L88.9,63l0,12.9
			c0.3,0.2,0.7,0.4,1,0.7c1.4,1.4,1.4,3.7,0,5.1c-1.4,1.4-3.7,1.4-5.1,0c-1.4-1.4-1.4-3.7,0-5.1c0.4-0.4,0.8-0.6,1.2-0.8v-13
			c-0.4-0.2-0.8-0.4-1.2-0.8c-1.1-1.1-1.3-2.7-0.8-4l-5.4-5.4L64.3,66.9c-1.2,1.2-1.2,3.1,0,4.3L85,91.9c1.2,1.2,3.1,1.2,4.3,0
			L110,71.3C111.2,70.1,111.2,68.1,110,66.9z"/>
	</g>
</g>
<g class="st0">
	<path class="st11" d="M120.2,35.7c-18.5,0-33.5,15-33.5,33.5c0,14.8,9.6,27.4,22.9,31.8c1.7,0.3,2.3-0.7,2.3-1.6c0-0.8,0-3.4,0-6.2
		c-9.3,2-11.3-4-11.3-4c-1.5-3.9-3.7-4.9-3.7-4.9c-3-2.1,0.2-2,0.2-2c3.4,0.2,5.1,3.5,5.1,3.5c3,5.1,7.8,3.6,9.8,2.8
		c0.3-2.2,1.2-3.6,2.1-4.5c-7.4-0.8-15.3-3.7-15.3-16.6c0-3.7,1.3-6.7,3.5-9c-0.3-0.8-1.5-4.3,0.3-8.9c0,0,2.8-0.9,9.2,3.4
		c2.7-0.7,5.5-1.1,8.4-1.1c2.9,0,5.7,0.4,8.4,1.1c6.4-4.3,9.2-3.4,9.2-3.4c1.8,4.6,0.7,8,0.3,8.9c2.2,2.3,3.5,5.3,3.5,9
		c0,12.9-7.8,15.7-15.3,16.5c1.2,1,2.3,3.1,2.3,6.2c0,4.5,0,8.1,0,9.2c0,0.9,0.6,1.9,2.3,1.6c13.3-4.4,22.9-17,22.9-31.8
		C153.7,50.8,138.7,35.7,120.2,35.7z"/>
	<path class="st1" d="M99.4,83.9c-0.1,0.2-0.3,0.2-0.6,0.1c-0.2-0.1-0.4-0.3-0.3-0.5c0.1-0.2,0.3-0.2,0.6-0.1
		C99.3,83.5,99.4,83.7,99.4,83.9L99.4,83.9z M98.9,83.6"/>
	<path class="st1" d="M100.7,85.4c-0.2,0.1-0.5,0.1-0.7-0.2c-0.2-0.2-0.3-0.5-0.1-0.7c0.2-0.1,0.5-0.1,0.7,0.2
		C100.8,84.9,100.9,85.3,100.7,85.4L100.7,85.4z M100.4,85.1"/>
	<path class="st1" d="M102,87.3c-0.2,0.1-0.5,0-0.7-0.3c-0.2-0.3-0.2-0.7,0-0.8c0.2-0.1,0.5,0,0.7,0.3
		C102.2,86.8,102.2,87.2,102,87.3L102,87.3z M102,87.3"/>
	<path class="st1" d="M103.8,89.2c-0.2,0.2-0.6,0.1-0.9-0.1c-0.3-0.3-0.4-0.7-0.2-0.9c0.2-0.2,0.6-0.1,0.9,0.1
		C104,88.6,104,89,103.8,89.2L103.8,89.2z M103.8,89.2"/>
	<path class="st1" d="M106.3,90.3c-0.1,0.3-0.5,0.4-0.8,0.3c-0.4-0.1-0.6-0.4-0.6-0.7c0.1-0.3,0.5-0.4,0.8-0.3
		C106.2,89.7,106.4,90,106.3,90.3L106.3,90.3z M106.3,90.3"/>
	<path class="st1" d="M109.1,90.5c0,0.3-0.3,0.5-0.7,0.5c-0.4,0-0.7-0.2-0.7-0.5c0-0.3,0.3-0.5,0.7-0.5
		C108.8,90,109.1,90.2,109.1,90.5L109.1,90.5z M109.1,90.5"/>
	<path class="st1" d="M111.6,90.1c0,0.3-0.2,0.5-0.6,0.6c-0.4,0.1-0.7-0.1-0.8-0.4c0-0.3,0.2-0.6,0.6-0.6
		C111.2,89.6,111.6,89.8,111.6,90.1L111.6,90.1z M111.6,90.1"/>
</g>
</svg>
