<?xml version="1.0" encoding="utf-8"?>
<!-- Generator: Adobe Illustrator 21.0.0, SVG Export Plug-In . SVG Version: 6.00 Build 0)  -->
<svg version="1.1" id="Layer_1" xmlns="http://www.w3.org/2000/svg" xmlns:xlink="http://www.w3.org/1999/xlink" x="0px" y="0px"
	 viewBox="0 0 240 140" style="enable-background:new 0 0 240 140;" xml:space="preserve">
<style type="text/css">
	.st0{display:none;}
	.st1{display:inline;}
	.st2{fill:#333333;}
	.st3{display:inline;fill:#333333;}
	.st4{fill-rule:evenodd;clip-rule:evenodd;fill:#333333;}
</style>
<g class="st0">
	<g id="test-tube_1_" class="st1">
		<path id="tube_1_" class="st2" d="M164,97L164,97c-0.8,0-1.6-0.1-2.4-0.4c-3.2-1.2-4.9-4.7-4.1-8l0,0l0.2-0.6l16.4-42.7
			c0.2-0.6,0.1-2.1,0-3c0-0.2,0-0.4,0-0.6l0,0c0,0,0-0.1,0-0.1c0.3-0.7,1.1-1,2.4-1c1.6,0,3.8,0.5,6,1.4c1.9,0.7,3.6,1.6,4.8,2.5
			c1.4,1.1,2,2,1.7,2.8c0,0,0,0.1,0,0.1l0,0c-0.1,0.2-0.2,0.3-0.3,0.4c-0.7,0.6-1.8,1.7-2,2.2L170,93.4l0,0
			C168.8,95.6,166.5,97,164,97z M158.8,88.3l0,0.1c-1.1,2.8,0.4,6,3.2,7.1c0.6,0.2,1.3,0.4,2,0.4c2.3,0,4.3-1.4,5.1-3.5l0.1-0.1
			l16.4-42.5c0.3-0.9,2-2.4,2.3-2.7l0,0c0,0,0,0,0,0l0,0c0-0.1-0.1-0.6-1.3-1.5c-1.1-0.8-2.7-1.7-4.5-2.4c-2.1-0.8-4.2-1.3-5.6-1.3
			c-0.9,0-1.3,0.2-1.3,0.3v0c0,0,0,0,0,0.1v0c0,0.2,0.3,2.4-0.1,3.6L158.8,88.3z"/>
		<path id="liquid_1_" class="st2" d="M179.9,61.3c0,0-2.3,2.6-4.3,3.5c-2.1,0.9-3.6,0.7-5.5,1.8c-1.9,1.1-2.8,2.6-2.8,2.6
			l-7.6,19.7c-0.8,2.2,0.4,4.8,2.7,5.7c2.3,0.9,4.8-0.3,5.7-2.5l0,0L179.9,61.3z M172.3,72.6c0.4-0.2,0.8,0,0.9,0.4
			c0.2,0.4,0,0.8-0.4,0.9c-0.4,0.2-0.8,0-0.9-0.4C171.7,73.2,171.9,72.8,172.3,72.6z M169.2,69.4c0.2-0.1,0.5,0,0.6,0.2
			s0,0.5-0.2,0.6c-0.2,0.1-0.5,0-0.6-0.2C168.9,69.8,169,69.5,169.2,69.4z M165.9,80.5c-0.4,0.2-0.8,0-0.9-0.4
			c-0.2-0.4,0-0.8,0.4-0.9c0.4-0.2,0.8,0,0.9,0.4C166.4,79.9,166.3,80.3,165.9,80.5z M166.6,77.9c-0.3-0.7,0-1.5,0.7-1.8
			c0.7-0.3,1.5,0,1.8,0.7c0.3,0.7,0,1.5-0.7,1.8C167.6,78.9,166.9,78.6,166.6,77.9z M168.3,84.7c0.2-0.1,0.5,0,0.6,0.2
			c0.1,0.2,0,0.5-0.2,0.6s-0.5,0-0.6-0.2C167.9,85.1,168,84.8,168.3,84.7z"/>
		
			<ellipse id="top_1_" transform="matrix(0.359 -0.9333 0.9333 0.359 74.3163 198.1327)" class="st2" cx="181.4" cy="45" rx="1.2" ry="4.6"/>
	</g>
	<path id="jekyll-text" class="st3" d="M81.3,66.7c0.7,0.6,2,0.2,2.9-0.7c0.9-1,1.1-2.3,0.3-2.9c-0.7-0.6-2-0.2-2.9,0.8
		C80.8,64.9,80.6,66.1,81.3,66.7z M79.2,68.6c-0.2,0-0.5,0.3-0.2,0.5c0.4,0.1,0.6,0.5,0.6,1c-0.3,2-2.8,4.3-3.8,5
		c-0.2,0.2,0.1,0.8,0.3,0.6c0.5-0.4,1.6-1.3,2.6-2.5c-1.5,3.3-4.4,7.7-5.5,9.2C68.8,88.4,62.1,94,57.6,94c-3.6,0-6.7-2.5-7.4-6.1
		c0-0.4-0.6-0.5-0.5,0c0.8,5,4.7,6.9,9.3,6.9c5.1,0,11.1-3.7,14.3-7.5c5.3-6.1,8.8-13.1,7.9-17.1C80.8,68.8,79.8,68.6,79.2,68.6z
		 M111.9,81.9c1.4-0.3,2.6-1.1,2.6-2.3c0-0.1-0.2-0.1-0.2,0c0,0.7-0.8,1.3-1.7,1.5c-2.2,0.3-6.5-2.2-8.5-4.8
		c2.2,0.8,6.6-0.4,8.7-1.9c1.9-1.4,2.7-2.9,2.9-4.2c0.2-2.1-2-3.3-5.2-2.1c-2,0.8-4.5,2.6-7,6c2.7-4.4,7.9-11.6,13-16.2
		c6.3-5.6,9.9-4.5,4.3,1.4c-2.3,2.4-6.7,5.6-9.7,6.9c-0.9,0.4-0.5,0.9,0.2,0.6c3.2-1.4,7.5-4.3,10-6.7c7.6-7.3,1.3-12.8-7.2-5.1
		c-5.7,5.3-9.5,10.8-12.7,18c-1.1,1.4-1.9,2.5-3,3.3c-0.1,0.1-0.2,0.2-0.3,0.3c-2.8,2.4-7.2,5.6-9.9,5.7c-1.9,0-2.8-1.4-2.4-3.3
		c0.5-2.9,3.6-6.4,6.2-7.7c3.4-1.5,5.4,1.4,0.9,3.9c-1.7,0.9-3.7,1.4-4.6,1.4c-1,0-0.9,0.4,0,0.4c1.4,0,3.5-0.5,5-1.2
		c4.6-2.2,4.8-6.2-0.1-6.4c-5.4-0.2-11.8,4.4-11.8,10.2c0,2.6,2.1,4,5,4c4.8,0,9-3.7,12.5-6.9c0.5-0.4,1-0.9,1.5-1.4
		c-1.2,3.1-1.8,6-1.5,8.1c0.2,1.5,1.1,2.3,1.7,2.8c0.1,0.1,0.4,0,0.2-0.3c-1-1.2-0.7-4.8,0.7-8.3C102.6,80,107.2,83,111.9,81.9z
		 M106.2,71.8c5.6-5,7.8-0.5,4.2,2.2c-1.8,1.4-5.5,2.5-6.6,1.8l-0.2-0.1c-0.1-0.2-0.3-0.5-0.4-0.7C104.1,73.8,105.1,72.8,106.2,71.8
		z M137.1,66.1c2.2,0.2,1.3-2.5-1-1.8c-1,0.3-2,2.2-2.7,3.9c-2.2,3.3-6,7.9-8.6,10.3c-2.3,2-4.5,2.5-1.8-1.2
		c1.1-1.5,2.4-3.1,3.2-4.7c1.8-4-2.1-5.8-5.2-3.4c-1.8,1.4-4.3,4.3-6.3,5.9c-0.5,0.4-0.4,1.1,0.1,0.6c1.5-1.3,4.3-4.1,6.6-5.8
		c1.9-1.5,2.7-0.5,1.6,0.7c-1.5,1.8-4.3,4.9-4.9,6.9c-1,2.9,0.2,4.3,2.1,4.3c2.7,0,6.6-4.2,9.3-7.5c0.9-1.1,1.8-2.4,2.7-3.7
		c-2.3,4.5-4.7,9.1-7.8,13.2c-4.3,5.8-9.6,10.2-14.6,10.2c-3.6,0-6.8-2.5-7.5-6.1c0-0.4-0.5-0.5-0.5,0c0.8,5,4.7,6.9,9.3,6.9
		c5.1,0,10-2.9,13.4-6.6c6.9-7.3,7.8-15.5,9.9-20.1C135.5,66.1,136.4,66,137.1,66.1z M165.3,59.1c1-1.7,1-3.1-1.4-3.1
		c-1.8,0-5,1.3-6.5,2.5c-0.3,0.3-0.2,0.5,0.2,0.3c0.3-0.1,0.6-0.3,1-0.4c1.7-0.9,1,1,0.6,1.7c-2,3.5-5.6,8.5-7.5,11
		c-0.9,1.2-1.9,2.4-2.9,3.5c-1.8,1.7-5.4,4.8-8.1,5.8c-8.8,3.3,2.4-11.7,3.3-12.9c2.1-2.6,6.7-7.2,8.1-9.4c1-1.7,1-3.1-1.4-3.1
		c-1.8,0-5,1.3-6.5,2.5c-0.3,0.3-0.2,0.5,0.2,0.3c0.3-0.1,0.6-0.3,1-0.4c1.7-0.9,1,1,0.6,1.7c-2,3.5-5.6,8.5-7.5,11
		c-1.5,2.1-3.4,4.2-4.9,5.3c-0.6,0.5-0.2,0.9,0.3,0.5c0.5-0.3,1.3-1.1,2.2-2c-1.6,3.2-2.9,7.7,1.3,8.2c3.6,0.5,7.9-3.2,10.6-5.9
		c0.3-0.3,0.6-0.6,1-1c0.1-0.1,0.2-0.2,0.2-0.2c-1.6,3.2-2.9,7.7,1.3,8.2c4.6,0.6,10.3-5.6,12.5-7.8c0.4-0.4,0.3-1.2-0.4-0.4
		c-1.3,1.4-5.7,5.4-8.9,6.6c-8.8,3.3,2.4-11.7,3.3-12.9C159.2,65.9,163.9,61.4,165.3,59.1z"/>
</g>
<g class="st0">
	<g class="st1">
		<path class="st2" d="M88.9,68.5c0,12.2,7.1,22.7,17.3,27.6L91.6,56C89.9,59.8,88.9,64,88.9,68.5z"/>
		<path class="st2" d="M140.4,66.9c0-3.8-1.4-6.4-2.5-8.5c-1.6-2.5-3-4.7-3-7.2c0-2.8,2.1-5.4,5.2-5.4c0.1,0,0.3,0,0.4,0
			c-5.5-5-12.7-8.1-20.7-8.1c-10.7,0-20.2,5.5-25.6,13.8c0.7,0,1.4,0,2,0c3.2,0,8.2-0.4,8.2-0.4c1.7-0.1,1.8,2.3,0.2,2.5
			c0,0-1.7,0.2-3.5,0.3L112,87.3l6.7-20.1L114,54.1c-1.7-0.1-3.2-0.3-3.2-0.3c-1.7-0.1-1.5-2.6,0.2-2.5c0,0,5.1,0.4,8.1,0.4
			c3.2,0,8.2-0.4,8.2-0.4c1.7-0.1,1.8,2.3,0.2,2.5c0,0-1.7,0.2-3.5,0.3l11.1,33l3.1-10.2C139.4,72.6,140.4,69.5,140.4,66.9z"/>
		<path class="st2" d="M120.2,71.2L111,97.9c2.8,0.8,5.7,1.3,8.7,1.3c3.6,0,7-0.6,10.2-1.7c-0.1-0.1-0.2-0.3-0.2-0.4L120.2,71.2z"/>
		<path class="st2" d="M146.6,53.7c0.1,1,0.2,2,0.2,3.2c0,3.1-0.6,6.6-2.3,11L135.1,95c9.1-5.3,15.3-15.2,15.3-26.5
			C150.3,63.1,149,58.1,146.6,53.7z"/>
		<path class="st2" d="M119.6,32.7c-19.7,0-35.8,16.1-35.8,35.8c0,19.7,16.1,35.8,35.8,35.8c19.7,0,35.8-16.1,35.8-35.8
			C155.4,48.7,139.4,32.7,119.6,32.7z M119.6,102.6c-18.8,0-34.1-15.3-34.1-34.1c0-18.8,15.3-34.1,34.1-34.1
			c18.8,0,34.1,15.3,34.1,34.1C153.8,87.3,138.5,102.6,119.6,102.6z"/>
	</g>
</g>
<g class="st0">
	<path class="st3" d="M140,61.6c0.8,1,1.7,2.5,1.7,4.6c0,5-3.9,8-9.7,8c-1.5,0-2.8-0.2-3.6-0.4l-1.5,2.4l4.4,0.3
		c7.8,0.5,12.5,0.7,12.5,6.8c0,5.2-4.6,8.2-12.5,8.2c-8.2,0-11.3-2.1-11.3-5.7c0-2,0.9-3.1,2.5-4.6c-1.5-0.6-2-1.8-2-3
		c0-1,0.5-1.9,1.3-2.8c0.8-0.9,1.7-1.7,2.8-2.7c-2.2-1.1-3.9-3.4-3.9-6.8c0-5.2,3.4-8.8,10.4-8.8c1.9,0,3.1,0.2,4.2,0.5h8.8v3.9
		L140,61.6z M126.6,82.3c-0.6,0.7-1.2,1.5-1.2,2.4c0,1.8,2.3,2.4,5.5,2.4c2.6,0,6.2-0.2,6.2-2.6c0-1.5-1.7-1.5-3.9-1.7L126.6,82.3z
		 M131.6,61.5c-2.5,0-4.3,1.2-4.3,4.2c0,2.2,1.2,3.8,4.2,3.8c2.5,0,4.3-1.5,4.3-3.9C135.7,62.9,134.1,61.5,131.6,61.5z"/>
	<path class="st3" d="M146.3,80.6V77l2.3-0.3c0.6-0.1,0.7-0.2,0.7-0.9V62.5c0-0.5-0.1-0.8-0.6-1l-2.4-0.9l0.5-3.7h9.4v18.8
		c0,0.7,0,0.8,0.7,0.9l2.3,0.3v3.6H146.3z M152.1,53.4c-2.6,0-4.1-1.5-4.1-4.1c0-2.6,1.5-4,4.1-4c2.6,0,4.1,1.4,4.1,4
		C156.3,51.9,154.8,53.4,152.1,53.4z"/>
	<path class="st3" d="M177.1,78.8c-1.9,1-4.8,1.8-7.4,1.8c-5.4,0-7.4-2.2-7.4-7.3V61.5c0-0.3,0-0.5-0.4-0.5h-3.2v-4
		c4-0.5,5.6-2.4,6.1-7.4h4.3V56c0,0.3,0,0.5,0.4,0.5h6.4V61h-6.8v10.8c0,2.7,0.6,3.7,3.1,3.7c1.3,0,2.6-0.3,3.7-0.7L177.1,78.8z"/>
	<g class="st1">
		<path class="st2" d="M110,66.9L89.3,46.2c-1.2-1.2-3.1-1.2-4.3,0l-4.3,4.3l5.5,5.5c1.3-0.4,2.7-0.1,3.7,0.9c1,1,1.3,2.5,0.9,3.8
			l5.3,5.3c1.3-0.4,2.7-0.2,3.8,0.9c1.4,1.4,1.4,3.7,0,5.1c-1.4,1.4-3.7,1.4-5.1,0c-1.1-1.1-1.3-2.6-0.8-4L88.9,63l0,12.9
			c0.3,0.2,0.7,0.4,1,0.7c1.4,1.4,1.4,3.7,0,5.1c-1.4,1.4-3.7,1.4-5.1,0c-1.4-1.4-1.4-3.7,0-5.1c0.4-0.4,0.8-0.6,1.2-0.8v-13
			c-0.4-0.2-0.8-0.4-1.2-0.8c-1.1-1.1-1.3-2.7-0.8-4l-5.4-5.4L64.3,66.9c-1.2,1.2-1.2,3.1,0,4.3L85,91.9c1.2,1.2,3.1,1.2,4.3,0
			L110,71.3C111.2,70.1,111.2,68.1,110,66.9z"/>
	</g>
</g>
<g>
	<path class="st4" d="M120.2,35.7c-18.5,0-33.5,15-33.5,33.5c0,14.8,9.6,27.4,22.9,31.8c1.7,0.3,2.3-0.7,2.3-1.6c0-0.8,0-3.4,0-6.2
		c-9.3,2-11.3-4-11.3-4c-1.5-3.9-3.7-4.9-3.7-4.9c-3-2.1,0.2-2,0.2-2c3.4,0.2,5.1,3.5,5.1,3.5c3,5.1,7.8,3.6,9.8,2.8
		c0.3-2.2,1.2-3.6,2.1-4.5c-7.4-0.8-15.3-3.7-15.3-16.6c0-3.7,1.3-6.7,3.5-9c-0.3-0.8-1.5-4.3,0.3-8.9c0,0,2.8-0.9,9.2,3.4
		c2.7-0.7,5.5-1.1,8.4-1.1c2.9,0,5.7,0.4,8.4,1.1c6.4-4.3,9.2-3.4,9.2-3.4c1.8,4.6,0.7,8,0.3,8.9c2.2,2.3,3.5,5.3,3.5,9
		c0,12.9-7.8,15.7-15.3,16.5c1.2,1,2.3,3.1,2.3,6.2c0,4.5,0,8.1,0,9.2c0,0.9,0.6,1.9,2.3,1.6c13.3-4.4,22.9-17,22.9-31.8
		C153.7,50.8,138.7,35.7,120.2,35.7z"/>
	<path class="st2" d="M99.4,83.9c-0.1,0.2-0.3,0.2-0.6,0.1c-0.2-0.1-0.4-0.3-0.3-0.5c0.1-0.2,0.3-0.2,0.6-0.1
		C99.3,83.5,99.4,83.7,99.4,83.9L99.4,83.9z M98.9,83.6"/>
	<path class="st2" d="M100.7,85.4c-0.2,0.1-0.5,0.1-0.7-0.2c-0.2-0.2-0.3-0.5-0.1-0.7c0.2-0.1,0.5-0.1,0.7,0.2
		C100.8,84.9,100.9,85.3,100.7,85.4L100.7,85.4z M100.4,85.1"/>
	<path class="st2" d="M102,87.3c-0.2,0.1-0.5,0-0.7-0.3c-0.2-0.3-0.2-0.7,0-0.8c0.2-0.1,0.5,0,0.7,0.3
		C102.2,86.8,102.2,87.2,102,87.3L102,87.3z M102,87.3"/>
	<path class="st2" d="M103.8,89.2c-0.2,0.2-0.6,0.1-0.9-0.1c-0.3-0.3-0.4-0.7-0.2-0.9c0.2-0.2,0.6-0.1,0.9,0.1
		C104,88.6,104,89,103.8,89.2L103.8,89.2z M103.8,89.2"/>
	<path class="st2" d="M106.3,90.3c-0.1,0.3-0.5,0.4-0.8,0.3c-0.4-0.1-0.6-0.4-0.6-0.7c0.1-0.3,0.5-0.4,0.8-0.3
		C106.2,89.7,106.4,90,106.3,90.3L106.3,90.3z M106.3,90.3"/>
	<path class="st2" d="M109.1,90.5c0,0.3-0.3,0.5-0.7,0.5c-0.4,0-0.7-0.2-0.7-0.5c0-0.3,0.3-0.5,0.7-0.5
		C108.8,90,109.1,90.2,109.1,90.5L109.1,90.5z M109.1,90.5"/>
	<path class="st2" d="M111.6,90.1c0,0.3-0.2,0.5-0.6,0.6c-0.4,0.1-0.7-0.1-0.8-0.4c0-0.3,0.2-0.6,0.6-0.6
		C111.2,89.6,111.6,89.8,111.6,90.1L111.6,90.1z M111.6,90.1"/>
</g>
</svg>
