<?xml version="1.0" encoding="UTF-8" standalone="no"?>
<svg
   xmlns:dc="http://purl.org/dc/elements/1.1/"
   xmlns:cc="http://creativecommons.org/ns#"
   xmlns:rdf="http://www.w3.org/1999/02/22-rdf-syntax-ns#"
   xmlns:svg="http://www.w3.org/2000/svg"
   xmlns="http://www.w3.org/2000/svg"
   xmlns:sodipodi="http://sodipodi.sourceforge.net/DTD/sodipodi-0.dtd"
   xmlns:inkscape="http://www.inkscape.org/namespaces/inkscape"
   version="1.1"
   id="Layer_1"
   x="0px"
   y="0px"
   viewBox="0 0 240 140"
   enable-background="new 0 0 240 140"
   xml:space="preserve"
   sodipodi:docname="logo_docker.svg"
   inkscape:version="1.0beta1 (32d4812, 2019-09-19)"><metadata
   id="metadata134">
  <rdf:RDF>
    <cc:Work
   rdf:about="">
      <dc:format>image/svg+xml</dc:format>



      <dc:type
   rdf:resource="http://purl.org/dc/dcmitype/StillImage" />



      <dc:title />



    </cc:Work>



  </rdf:RDF>



</metadata>



<defs
   id="defs132" />



<sodipodi:namedview
   pagecolor="#ffffff"
   bordercolor="#666666"
   inkscape:document-rotation="0"
   borderopacity="1"
   objecttolerance="10"
   gridtolerance="10"
   guidetolerance="10"
   inkscape:pageopacity="0"
   inkscape:pageshadow="2"
   inkscape:window-width="1600"
   inkscape:window-height="1209"
   id="namedview130"
   showgrid="false"
   inkscape:snap-global="true"
   inkscape:zoom="1.52"
   inkscape:cx="29.310345"
   inkscape:cy="79.600726"
   inkscape:window-x="0"
   inkscape:window-y="23"
   inkscape:window-maximized="0"
   inkscape:current-layer="Layer_1" />




<g
   display="none"
   id="g113">
	<polygon
   display="inline"
   fill="#eeeeee"
   points="202.083,318.75 191.25,196.667 310.833,196.667 300,318.75 251.041,332.291  "
   id="polygon95" />




	<polygon
   display="inline"
   fill="#EBEBEB"
   points="251.041,251.875 231.25,251.875 229.792,236.667 251.041,236.667   251.041,221.667 251.041,221.667 213.542,221.667 213.958,225.625 217.5,266.875 251.041,266.875  "
   id="polygon97" />




	<polygon
   display="inline"
   fill="#EBEBEB"
   points="251.041,290.834 251.041,290.834 234.375,286.25 233.333,274.375   225.208,274.375 218.333,274.375 220.417,297.916 251.041,306.459 251.041,306.459  "
   id="polygon99" />




	<path
   display="inline"
   fill="#eeeeee"
   d="M202.5,163.542h7.708v7.5h6.875v-7.5h7.708v22.708h-7.708v-7.708h-6.875v7.708H202.5   V163.542L202.5,163.542z"
   id="path101" />




	<path
   display="inline"
   fill="#eeeeee"
   d="M234.583,171.042h-6.667v-7.5h21.042v7.5h-6.667v15.208h-7.708V171.042L234.583,171.042z"
   id="path103" />




	<path
   display="inline"
   fill="#eeeeee"
   d="M252.291,163.542h7.918l4.791,7.917l4.791-7.917h7.918v22.708h-7.5V175L265,183.125   h-0.209L259.584,175v11.25h-7.5L252.291,163.542L252.291,163.542z"
   id="path105" />




	<path
   display="inline"
   fill="#eeeeee"
   d="M281.666,163.542h7.709v15.208H300v7.5h-18.334V163.542z"
   id="path107" />




	<polygon
   display="inline"
   fill="#FFFFFF"
   points="251.041,251.875 251.041,266.875 269.375,266.875 267.709,286.25   251.041,290.834 251.041,306.459 281.666,297.916 281.875,295.416 285.416,256.041 285.834,251.875 281.666,251.875  "
   id="polygon109" />




	<polygon
   display="inline"
   fill="#FFFFFF"
   points="251.041,221.667 251.041,230.833 251.041,236.667 251.041,236.667   287.084,236.667 287.084,236.667 287.084,236.667 287.5,233.333 288.125,225.625 288.541,221.667  "
   id="polygon111" />




</g>




<g
   display="none"
   id="g117">
	<path
   display="inline"
   fill="#eeeeee"
   d="M323.542,259.584c-7.084,0-13.125,1.666-18.333,4.166c-1.875-3.75-3.75-7.084-4.168-9.584   c-0.416-2.916-0.832-4.583-0.416-7.916s2.5-8.333,2.5-8.542c0-0.417-0.416-2.083-4.584-2.083c-3.957,0-7.5,0.833-7.916,1.875   s-1.25,3.542-1.666,6.042c-0.625,3.75-8.125,16.875-12.293,23.75c-1.457-2.707-2.5-5-2.707-6.875   c-0.418-2.916-0.834-4.582-0.418-7.916c0.418-3.333,2.5-8.333,2.5-8.542c0-0.417-0.416-2.083-4.582-2.083   c-4.168,0-7.5,0.833-7.918,1.875c-0.416,1.042-0.832,3.542-1.666,6.042c-0.834,2.5-10.625,24.375-13.333,30.208   c-1.25,2.916-2.5,5.209-3.333,6.875l0,0c0,0,0,0.209-0.208,0.209c-0.625,1.457-1.042,2.082-1.042,2.082l0,0   c-0.625,1.043-1.042,1.875-1.458,1.875c-0.208,0-0.625-2.707,0-6.25c1.458-7.707,5-19.582,5-20c0-0.207,0.625-2.291-2.292-3.332   c-2.917-1.043-3.958,0.625-4.167,0.625c-0.208,0-0.417,0.625-0.417,0.625s3.125-13.334-6.042-13.334   c-5.833,0-13.958,6.459-17.917,12.084c-2.5,1.457-7.917,4.375-13.542,7.5c-2.083,1.25-4.375,2.5-6.458,3.541   c-0.208-0.209-0.208-0.416-0.417-0.416C185,260,163.958,251.459,165,235.208c0.417-5.833,2.292-21.458,40.208-40.208   c31.042-15.417,55.833-11.042,60.208-1.667c6.043,13.542-13.332,38.333-45.416,42.083c-12.292,1.458-18.75-3.333-20.208-5.208   c-1.667-1.875-1.875-1.875-2.5-1.667c-1.042,0.625-0.417,2.292,0,3.125c1.042,2.5,5,6.875,11.667,9.167   c5.833,1.875,20.208,2.917,37.708-3.75c19.375-7.5,34.583-28.542,30.208-46.042c-4.375-17.708-33.958-23.75-61.875-13.75   c-16.667,5.833-34.583,15.208-47.5,27.292c-15.417,14.375-17.917,26.875-16.875,32.083c3.542,18.542,29.167,30.625,39.583,39.792   c-0.417,0.207-1.042,0.625-1.458,0.832c-5.208,2.5-24.792,12.709-29.583,23.543c-5.625,12.291,0.833,21.041,5.208,22.291   c13.125,3.75,26.667-2.916,33.958-13.75s6.458-25,3.125-31.459c0,0,0-0.207-0.208-0.207c1.25-0.834,2.708-1.668,3.958-2.293   c2.708-1.457,5.208-2.916,7.5-4.166c-1.25,3.334-2.083,7.5-2.708,13.541c-0.625,6.876,2.292,16.043,6.042,19.584   c1.667,1.459,3.542,1.667,4.792,1.667c4.375,0,6.25-3.542,8.542-7.917c2.708-5.209,5-11.25,5-11.25s-2.917,16.459,5.208,16.459   c2.917,0,6.042-3.75,7.292-5.834l0,0c0,0,0-0.209,0.208-0.416c0.208-0.417,0.417-0.834,0.417-0.834l0,0   c1.25-2.084,3.75-6.666,7.709-14.584c5-10,10-22.5,10-22.5s0.416,3.125,1.875,8.125c0.832,2.918,2.707,6.25,4.166,9.375   c-1.25,1.668-1.875,2.5-1.875,2.5l0,0c-1.041,1.25-2.084,2.709-3.125,3.959c-3.959,4.791-8.75,10.209-9.584,11.875   c-0.832,1.875-0.625,3.334,0.834,4.375c1.042,0.834,2.917,0.834,5,0.834c3.541-0.209,6.25-1.043,7.5-1.668   c1.875-0.625,4.166-1.875,6.459-3.332c3.957-2.918,6.25-7.084,6.041-12.5c-0.209-3.125-1.041-6.043-2.291-8.959   c0.416-0.416,0.625-1.041,1.041-1.459c6.25-9.166,11.041-19.166,11.041-19.166s0.418,3.125,1.875,8.125   c0.834,2.5,2.293,5.416,3.543,8.125c-5.834,4.791-9.584,10.209-10.834,13.959c-2.291,6.666-0.416,9.791,2.916,10.416   c1.459,0.416,3.75-0.416,5.418-1.041c2.082-0.625,4.582-1.875,6.875-3.543c3.958-2.916,7.708-6.875,7.499-12.5   c-0.208-2.5-0.833-5-1.666-7.291c5-2.084,11.458-3.125,19.583-2.291c17.5,2.082,21.042,13.125,20.417,17.707   c-0.625,4.584-4.375,7.084-5.625,7.918c-1.25,0.833-1.667,1.041-1.459,1.666c0.209,0.834,0.834,0.834,1.875,0.625   c1.459-0.208,9.167-3.75,9.584-12.291C352.083,271.25,341.667,259.375,323.542,259.584L323.542,259.584z M187.917,305.209   c-5.833,6.25-13.958,8.75-17.5,6.666c-3.75-2.084-2.292-11.459,4.792-18.334c4.375-4.166,10-7.916,13.75-10.207   c0.833-0.418,2.083-1.25,3.542-2.084c0.208-0.209,0.417-0.209,0.417-0.209l0,0c0.208-0.207,0.625-0.416,0.833-0.625   C196.458,290,193.958,298.541,187.917,305.209L187.917,305.209z M230.417,276.25c-2.083,5-6.25,17.709-8.958,16.875   c-2.292-0.625-3.542-10.209-0.417-19.584c1.667-4.791,5-10.416,6.875-12.707c3.125-3.543,6.667-4.793,7.5-3.334   C236.458,259.584,231.667,273.334,230.417,276.25L230.417,276.25z M265.416,293.125c-0.832,0.416-1.666,0.834-2.082,0.416   c-0.209-0.207,0.416-0.832,0.416-0.832s4.375-4.793,6.041-6.875c1.043-1.25,2.084-2.709,3.334-4.375v0.416   C273.334,287.709,267.916,291.459,265.416,293.125L265.416,293.125z M292.5,286.875c-0.625-0.416-0.416-1.875,1.666-6.459   c0.834-1.875,2.709-4.791,6.043-7.707c0.416,1.25,0.625,2.291,0.625,3.332C300.625,283.125,295.416,285.834,292.5,286.875   L292.5,286.875z"
   id="path115" />




</g>




<g
   display="none"
   id="g123">
	<path
   display="inline"
   fill="#eeeeee"
   d="M185.208,177.5h131.25c2.709,0,4.792,2.083,4.792,4.792v131.25   c0,2.709-2.083,4.793-4.792,4.793h-131.25c-2.708,0-4.792-2.084-4.792-4.793v-131.25C180.625,179.583,182.708,177.5,185.208,177.5z   "
   id="path119" />




	<path
   display="inline"
   fill="#FFFFFF"
   d="M309.792,284.584c-1.042-6.459-5.208-11.875-17.708-16.875   c-4.375-2.084-9.168-3.334-10.625-6.668c-0.418-1.875-0.625-2.916-0.209-4.166c0.834-3.75,5.416-5,8.959-3.75   c1.25,0.416,2.5,1.25,3.541,2.291c1.666,1.668,4.166,1.668,6.041,0.418c0.834-0.625,1.459-1.043,2.084-1.459   c2.5-1.666,2.916-5,0.834-7.292l0,0c-3.75-4.167-8.75-6.25-16.875-6.042c-0.834,0-1.875,0.208-2.709,0.208   c-4.375,0.833-8.542,3.125-11.041,6.042c-6.668,7.5-4.793,20.833,3.332,26.25c7.918,6.043,19.793,7.293,21.25,12.918   c1.459,6.875-5,9.166-11.457,8.332c-3.543-0.625-5.834-2.291-7.918-4.582c-1.457-1.668-3.957-2.293-6.041-1.043   c-1.041,0.625-1.666,1.043-2.709,1.459c-2.5,1.459-3.125,5-1.25,7.291c0.417,0.625,1.042,1.043,1.668,1.875   c10.207,10.418,35.625,9.793,40.208-5.832C309.583,293.75,310.833,290.209,309.792,284.584z M257.084,242.083h-8.334   c-2.708,0-4.792,2.083-4.792,4.792c0,9.791,0,19.584,0,29.375c0,7.291,0.417,13.959-0.833,15.834   c-1.875,3.75-6.25,3.541-8.75,2.916c-0.417,0-0.625-0.209-1.042-0.416c-2.083-1.043-3.125-2.709-4.375-4.793   c-0.417-0.625-0.625-1.25-0.833-1.25c-2.292,1.25-4.375,2.709-6.667,3.959c-2.292,1.459-3.125,4.584-1.25,6.875   c1.458,1.875,3.125,3.334,5,4.584c5,2.916,11.667,3.957,18.75,2.291c4.583-1.25,8.542-4.166,10.625-8.334   c2.916-5.625,2.291-12.291,2.291-19.582C257.084,266.25,257.084,254.375,257.084,242.083L257.084,242.083z"
   id="path121" />




</g>





<path
   style="fill:#eeeeee;fill-opacity:1;stroke-width:0.276346"
   inkscape:connector-curvature="0"
   id="path12"
   d="m 128.08581,68.017185 h 11.60651 V 57.516044 h -11.60651 z m -13.8173,0 h 11.60653 V 57.516044 h -11.60653 z m -13.54094,0 h 11.60652 V 57.516044 h -11.60652 z m -13.540939,0 H 98.51681 V 57.516044 H 87.186631 Z m -13.817294,0 H 84.975863 V 57.516044 H 73.369337 Z M 87.186631,55.305276 H 98.51681 V 44.804135 H 87.186631 Z m 13.540939,0 h 11.60652 V 44.804135 h -11.60652 z m 13.54094,0 h 11.60653 V 44.804135 h -11.60653 z m 0,-12.7119 h 11.60653 V 32.092234 h -11.60653 z m 62.45415,20.725936 c 0,0 -4.97422,-4.697884 -15.19902,-3.039807 -1.10538,-8.014027 -9.67209,-12.711909 -9.67209,-12.711909 0,0 -8.01405,9.672111 -2.21077,20.449589 -1.65808,0.829039 -4.42154,1.934423 -8.56672,1.934423 H 65.078965 c -1.38173,5.250566 -1.38173,40.070122 36.753995,40.070122 27.35822,0 47.80782,-12.711893 57.47991,-35.92494 14.36999,1.105384 17.40979,-10.777478 17.40979,-10.777478 z"
   fill="#fff" />



<path
   style="fill:#eeeeee;stroke-width:0.582766;fill-opacity:0"
   d="M 102.31081,109.02348 C 85.654895,106.68787 74.516222,97.452686 69.638972,81.934921 68.760437,79.13972 68.258524,75.699993 68.044561,71.00805 l -0.312262,-6.847506 h 44.830571 c 38.63074,0 45.31092,-0.125046 48.30392,-0.904203 1.91034,-0.497312 3.69234,-1.122791 3.96001,-1.389955 0.26767,-0.267164 0.006,-1.36818 -0.58055,-2.446704 -0.80949,-1.487403 -1.06775,-3.227539 -1.06943,-7.20585 -0.002,-4.552208 0.21945,-5.724816 1.67618,-8.878731 0.92312,-1.998608 1.99584,-3.897287 2.38382,-4.219285 1.74939,-1.451857 10.79719,9.252103 10.79872,12.775364 3.3e-4,0.752448 0.91107,0.907709 5.39059,0.918978 4.59963,0.01157 5.88167,0.241893 8.7411,1.570367 1.843,0.856244 3.35091,1.712885 3.35091,1.903648 0,1.029236 -2.59994,5.192566 -4.31158,6.904205 -2.81803,2.818026 -6.74672,4.531846 -11.38664,4.967208 l -4.00413,0.375707 -2.25874,4.370748 c -3.41171,6.601799 -6.4357,10.893687 -11.19426,15.887786 -12.49058,13.108823 -28.3489,19.715433 -49.19414,20.494383 -3.90784,0.14603 -8.79386,0.0287 -10.85784,-0.26073 z"
   id="path216"
   inkscape:connector-curvature="0"
   transform="translate(121.5,175)" />



<path
   style="fill:#eeeeee;fill-opacity:0;stroke-width:0.582766"
   d="M 102.84198,109.04773 C 84.950429,106.51152 73.438773,96.759438 69.318193,80.648126 68.041004,75.654366 67.264753,67.910289 67.81973,65.699084 L 68.195848,64.20051 114.374,64.034836 c 42.49571,-0.152463 46.35787,-0.246906 48.43181,-1.184311 1.92376,-0.869521 2.1932,-1.210756 1.8406,-2.331065 -1.80041,-5.720599 -2.07421,-7.37848 -1.73051,-10.478001 0.45211,-4.077229 3.96027,-11.814901 5.06168,-11.16415 4.25276,2.512677 8.70766,7.948563 9.78107,11.934884 l 0.58268,2.163922 3.353,-0.304039 c 3.72931,-0.338162 9.80248,0.950255 12.48495,2.648671 l 1.62669,1.029952 -1.89221,3.152613 c -3.27875,5.462706 -9.11925,8.736597 -15.58577,8.736597 h -2.70082 l -1.30862,3.157291 c -1.75471,4.233549 -7.35687,12.617778 -11.40787,17.07308 -8.79123,9.668625 -21.75733,16.58071 -36.42749,19.41909 -6.55728,1.2687 -18.67452,1.86241 -23.64121,1.15836 z"
   id="path1041"
   inkscape:connector-curvature="0"
   transform="translate(121.5,175)" />



<path
   style="fill:#eeeeee;fill-opacity:0;stroke-width:0.582766"
   d="M 102.84198,109.04773 C 84.950429,106.51152 73.438773,96.759438 69.318193,80.648126 68.041004,75.654366 67.264753,67.910289 67.81973,65.699084 L 68.195848,64.20051 114.374,64.034836 c 42.49571,-0.152463 46.35787,-0.246906 48.43181,-1.184311 1.92376,-0.869521 2.1932,-1.210756 1.8406,-2.331065 -1.80041,-5.720599 -2.07421,-7.37848 -1.73051,-10.478001 0.45211,-4.077229 3.96027,-11.814901 5.06168,-11.16415 4.25276,2.512677 8.70766,7.948563 9.78107,11.934884 l 0.58268,2.163922 3.353,-0.304039 c 3.72931,-0.338162 9.80248,0.950255 12.48495,2.648671 l 1.62669,1.029952 -1.89221,3.152613 c -3.27875,5.462706 -9.11925,8.736597 -15.58577,8.736597 h -2.70082 l -1.30862,3.157291 c -1.75471,4.233549 -7.35687,12.617778 -11.40787,17.07308 -8.79123,9.668625 -21.75733,16.58071 -36.42749,19.41909 -6.55728,1.2687 -18.67452,1.86241 -23.64121,1.15836 z"
   id="path1043"
   inkscape:connector-curvature="0"
   transform="translate(121.5,175)" />



</svg>
