<?xml version="1.0" encoding="utf-8"?>
<!-- Generator: Adobe Illustrator 15.0.0, SVG Export Plug-In . SVG Version: 6.00 Build 0)  -->
<!DOCTYPE svg PUBLIC "-//W3C//DTD SVG 1.1//EN" "http://www.w3.org/Graphics/SVG/1.1/DTD/svg11.dtd">
<svg version="1.1" id="Layer_1" xmlns="http://www.w3.org/2000/svg" xmlns:xlink="http://www.w3.org/1999/xlink" x="0px" y="0px"
	 width="257px" height="150px" viewBox="0 -0.5 257 150" enable-background="new 0 -0.5 257 150" xml:space="preserve">
<g display="none">
	<polygon display="inline" fill="#333333" points="202.083,318.75 191.25,196.667 310.833,196.667 300,318.75 251.041,332.291 	"/>
	<polygon display="inline" fill="#EBEBEB" points="251.041,251.875 231.25,251.875 229.792,236.667 251.041,236.667 
		251.041,221.667 251.041,221.667 213.542,221.667 213.958,225.625 217.5,266.875 251.041,266.875 	"/>
	<polygon display="inline" fill="#EBEBEB" points="251.041,290.834 251.041,290.834 234.375,286.25 233.333,274.375 
		225.208,274.375 218.333,274.375 220.417,297.916 251.041,306.459 251.041,306.459 	"/>
	<path display="inline" fill="#333333" d="M202.5,163.542h7.708v7.5h6.875v-7.5h7.708v22.708h-7.708v-7.708h-6.875v7.708H202.5
		V163.542L202.5,163.542z"/>
	<path display="inline" fill="#333333" d="M234.583,171.042h-6.667v-7.5h21.042v7.5h-6.667v15.208h-7.708V171.042L234.583,171.042z"
		/>
	<path display="inline" fill="#333333" d="M252.291,163.542h7.918l4.791,7.917l4.791-7.917h7.918v22.708h-7.5V175L265,183.125
		h-0.209L259.584,175v11.25h-7.5L252.291,163.542L252.291,163.542z"/>
	<path display="inline" fill="#333333" d="M281.666,163.542h7.709v15.208H300v7.5h-18.334V163.542L281.666,163.542z"/>
	<polygon display="inline" fill="#FFFFFF" points="251.041,251.875 251.041,266.875 269.375,266.875 267.709,286.25 
		251.041,290.834 251.041,306.459 281.666,297.916 281.875,295.416 285.416,256.041 285.834,251.875 281.666,251.875 	"/>
	<polygon display="inline" fill="#FFFFFF" points="251.041,221.667 251.041,230.833 251.041,236.667 251.041,236.667 
		287.084,236.667 287.084,236.667 287.084,236.667 287.5,233.333 288.125,225.625 288.541,221.667 	"/>
</g>
<g display="none">
	<path display="inline" fill="#333333" d="M323.542,259.584c-7.084,0-13.125,1.666-18.333,4.166c-1.875-3.75-3.75-7.084-4.168-9.584
		c-0.416-2.916-0.832-4.583-0.416-7.916s2.5-8.333,2.5-8.542c0-0.417-0.416-2.083-4.584-2.083c-3.957,0-7.5,0.833-7.916,1.875
		s-1.25,3.542-1.666,6.042c-0.625,3.75-8.125,16.875-12.293,23.75c-1.457-2.707-2.5-5-2.707-6.875
		c-0.418-2.916-0.834-4.582-0.418-7.916c0.418-3.333,2.5-8.333,2.5-8.542c0-0.417-0.416-2.083-4.582-2.083
		c-4.168,0-7.5,0.833-7.918,1.875c-0.416,1.042-0.832,3.542-1.666,6.042s-10.625,24.375-13.333,30.208
		c-1.25,2.916-2.5,5.209-3.333,6.875l0,0c0,0,0,0.209-0.208,0.209c-0.625,1.457-1.042,2.082-1.042,2.082l0,0
		c-0.625,1.043-1.042,1.875-1.458,1.875c-0.208,0-0.625-2.707,0-6.25c1.458-7.707,5-19.582,5-20c0-0.207,0.625-2.291-2.292-3.332
		c-2.917-1.043-3.958,0.625-4.167,0.625c-0.208,0-0.417,0.625-0.417,0.625s3.125-13.334-6.042-13.334
		c-5.833,0-13.958,6.459-17.917,12.084c-2.5,1.457-7.917,4.375-13.542,7.5c-2.083,1.25-4.375,2.5-6.458,3.541
		c-0.208-0.209-0.208-0.416-0.417-0.416C185,260,163.958,251.459,165,235.208c0.417-5.833,2.292-21.458,40.208-40.208
		c31.042-15.417,55.833-11.042,60.208-1.667c6.043,13.542-13.332,38.333-45.416,42.083c-12.292,1.458-18.75-3.333-20.208-5.208
		c-1.667-1.875-1.875-1.875-2.5-1.667c-1.042,0.625-0.417,2.292,0,3.125c1.042,2.5,5,6.875,11.667,9.167
		c5.833,1.875,20.208,2.917,37.708-3.75c19.375-7.5,34.583-28.542,30.208-46.042c-4.375-17.708-33.958-23.75-61.875-13.75
		c-16.667,5.833-34.583,15.208-47.5,27.292c-15.417,14.375-17.917,26.875-16.875,32.083c3.542,18.542,29.167,30.625,39.583,39.792
		c-0.417,0.207-1.042,0.625-1.458,0.832c-5.208,2.5-24.792,12.709-29.583,23.543c-5.625,12.291,0.833,21.041,5.208,22.291
		c13.125,3.75,26.667-2.916,33.958-13.75s6.458-25,3.125-31.459c0,0,0-0.207-0.208-0.207c1.25-0.834,2.708-1.668,3.958-2.293
		c2.708-1.457,5.208-2.916,7.5-4.166c-1.25,3.334-2.083,7.5-2.708,13.541c-0.625,6.876,2.292,16.043,6.042,19.584
		c1.667,1.459,3.542,1.667,4.792,1.667c4.375,0,6.25-3.542,8.542-7.917c2.708-5.209,5-11.25,5-11.25s-2.917,16.459,5.208,16.459
		c2.917,0,6.042-3.75,7.292-5.834l0,0c0,0,0-0.209,0.208-0.416c0.208-0.417,0.417-0.834,0.417-0.834l0,0
		c1.25-2.084,3.75-6.666,7.709-14.584c5-10,10-22.5,10-22.5s0.416,3.125,1.875,8.125c0.832,2.918,2.707,6.25,4.166,9.375
		c-1.25,1.668-1.875,2.5-1.875,2.5l0,0c-1.041,1.25-2.084,2.709-3.125,3.959c-3.959,4.791-8.75,10.209-9.584,11.875
		c-0.832,1.875-0.625,3.334,0.834,4.375c1.042,0.834,2.917,0.834,5,0.834c3.541-0.209,6.25-1.043,7.5-1.668
		c1.875-0.625,4.166-1.875,6.459-3.332c3.957-2.918,6.25-7.084,6.041-12.5c-0.209-3.125-1.041-6.043-2.291-8.959
		c0.416-0.416,0.625-1.041,1.041-1.459c6.25-9.166,11.041-19.166,11.041-19.166s0.418,3.125,1.875,8.125
		c0.834,2.5,2.293,5.416,3.543,8.125c-5.834,4.791-9.584,10.209-10.834,13.959c-2.291,6.666-0.416,9.791,2.916,10.416
		c1.459,0.416,3.75-0.416,5.418-1.041c2.082-0.625,4.582-1.875,6.875-3.543c3.958-2.916,7.708-6.875,7.499-12.5
		c-0.208-2.5-0.833-5-1.666-7.291c5-2.084,11.458-3.125,19.583-2.291c17.5,2.082,21.042,13.125,20.417,17.707
		c-0.625,4.584-4.375,7.084-5.625,7.918c-1.25,0.833-1.667,1.041-1.459,1.666c0.209,0.834,0.834,0.834,1.875,0.625
		c1.459-0.208,9.167-3.75,9.584-12.291C352.083,271.25,341.667,259.375,323.542,259.584L323.542,259.584z M187.917,305.209
		c-5.833,6.25-13.958,8.75-17.5,6.666c-3.75-2.084-2.292-11.459,4.792-18.334c4.375-4.166,10-7.916,13.75-10.207
		c0.833-0.418,2.083-1.25,3.542-2.084c0.208-0.209,0.417-0.209,0.417-0.209l0,0c0.208-0.207,0.625-0.416,0.833-0.625
		C196.458,290,193.958,298.541,187.917,305.209L187.917,305.209z M230.417,276.25c-2.083,5-6.25,17.709-8.958,16.875
		c-2.292-0.625-3.542-10.209-0.417-19.584c1.667-4.791,5-10.416,6.875-12.707c3.125-3.543,6.667-4.793,7.5-3.334
		C236.458,259.584,231.667,273.334,230.417,276.25L230.417,276.25z M265.416,293.125c-0.832,0.416-1.666,0.834-2.082,0.416
		c-0.209-0.207,0.416-0.832,0.416-0.832s4.375-4.793,6.041-6.875c1.043-1.25,2.084-2.709,3.334-4.375v0.416
		C273.334,287.709,267.916,291.459,265.416,293.125L265.416,293.125z M292.5,286.875c-0.625-0.416-0.416-1.875,1.666-6.459
		c0.834-1.875,2.709-4.791,6.043-7.707c0.416,1.25,0.625,2.291,0.625,3.332C300.625,283.125,295.416,285.834,292.5,286.875
		L292.5,286.875z"/>
</g>
<g display="none">
	<path display="inline" fill="#333333" d="M185.208,177.5h131.25c2.709,0,4.792,2.083,4.792,4.792v131.25
		c0,2.709-2.083,4.793-4.792,4.793h-131.25c-2.708,0-4.792-2.084-4.792-4.793v-131.25C180.625,179.583,182.708,177.5,185.208,177.5z
		"/>
	<path display="inline" fill="#FFFFFF" d="M309.792,284.584c-1.042-6.459-5.208-11.875-17.708-16.875
		c-4.375-2.084-9.168-3.334-10.625-6.668c-0.418-1.875-0.625-2.916-0.209-4.166c0.834-3.75,5.416-5,8.959-3.75
		c1.25,0.416,2.5,1.25,3.541,2.291c1.666,1.668,4.166,1.668,6.041,0.418c0.834-0.625,1.459-1.043,2.084-1.459
		c2.5-1.666,2.916-5,0.834-7.292l0,0c-3.75-4.167-8.75-6.25-16.875-6.042c-0.834,0-1.875,0.208-2.709,0.208
		c-4.375,0.833-8.542,3.125-11.041,6.042c-6.668,7.5-4.793,20.833,3.332,26.25c7.918,6.043,19.793,7.293,21.25,12.918
		c1.459,6.875-5,9.166-11.457,8.332c-3.543-0.625-5.834-2.291-7.918-4.582c-1.457-1.668-3.957-2.293-6.041-1.043
		c-1.041,0.625-1.666,1.043-2.709,1.459c-2.5,1.459-3.125,5-1.25,7.291c0.417,0.625,1.042,1.043,1.668,1.875
		c10.207,10.418,35.625,9.793,40.208-5.832C309.583,293.75,310.833,290.209,309.792,284.584z M257.084,242.083h-8.334
		c-2.708,0-4.792,2.083-4.792,4.792c0,9.791,0,19.584,0,29.375c0,7.291,0.417,13.959-0.833,15.834
		c-1.875,3.75-6.25,3.541-8.75,2.916c-0.417,0-0.625-0.209-1.042-0.416c-2.083-1.043-3.125-2.709-4.375-4.793
		c-0.417-0.625-0.625-1.25-0.833-1.25c-2.292,1.25-4.375,2.709-6.667,3.959c-2.292,1.459-3.125,4.584-1.25,6.875
		c1.458,1.875,3.125,3.334,5,4.584c5,2.916,11.667,3.957,18.75,2.291c4.583-1.25,8.542-4.166,10.625-8.334
		c2.916-5.625,2.291-12.291,2.291-19.582C257.084,266.25,257.084,254.375,257.084,242.083L257.084,242.083z"/>
</g>
<g>
	<path fill="#41B883" d="M154.236,39.419h17.232l-43.078,74.311l-43.08-74.311h17.017h15.938l10.125,17.23l9.907-17.23H154.236
		L154.236,39.419z"/>
	<path fill="#333333" d="M83.014,35.271l45.377,78.459l45.596-78.459h-17.232l-28.363,48.734l-28.359-48.734H83.014L83.014,35.271z"
		/>
	<path fill="#FFFFFF" d="M102.328,39.419l26.062,44.802l25.848-44.802H138.3l-9.907,17.23l-10.125-17.23H102.328L102.328,39.419z"/>
</g>
<path fill="#333333" d="M102.328,35.271l26.062,44.803l25.848-44.803H138.3l-9.907,17.232l-10.125-17.232H102.328z"/>
</svg>
