<?xml version="1.0" encoding="utf-8"?>
<!-- Generator: Adobe Illustrator 21.0.0, SVG Export Plug-In . SVG Version: 6.00 Build 0)  -->
<svg version="1.1" id="Layer_1" xmlns="http://www.w3.org/2000/svg" xmlns:xlink="http://www.w3.org/1999/xlink" x="0px" y="0px"
	 viewBox="0 0 240 140" style="enable-background:new 0 0 240 140;" xml:space="preserve">
<style type="text/css">
	.st0{display:none;}
	.st1{display:inline;fill:#333333;}
	.st2{display:inline;fill:#EBEBEB;}
	.st3{display:inline;fill:#FFFFFF;}
	.st4{display:inline;}
	.st5{fill:#333333;}
	.st6{fill:#FFFFFF;}
	.st7{fill:url(#SVGID_1_);}
	.st8{opacity:5.000000e-02;}
	.st9{fill:#231F20;}
	.st10{opacity:5.000000e-02;fill:#231F20;}
</style>
<g class="st0">
	<polygon class="st1" points="97,103 91.8,44.4 149.2,44.4 144,103 120.5,109.5 	"/>
	<polygon class="st2" points="120.5,70.9 111,70.9 110.3,63.6 120.5,63.6 120.5,56.4 120.5,56.4 102.5,56.4 102.7,58.3 104.4,78.1 
		120.5,78.1 	"/>
	<polygon class="st2" points="120.5,89.6 120.5,89.6 112.5,87.4 112,81.7 108.1,81.7 104.8,81.7 105.8,93 120.5,97.1 120.5,97.1 	
		"/>
	<path class="st1" d="M97.2,28.5h3.7v3.6h3.3v-3.6h3.7v10.9h-3.7v-3.7h-3.3v3.7h-3.7L97.2,28.5L97.2,28.5z"/>
	<path class="st1" d="M112.6,32.1h-3.2v-3.6h10.1v3.6h-3.2v7.3h-3.7L112.6,32.1L112.6,32.1z"/>
	<path class="st1" d="M121.1,28.5h3.8l2.3,3.8l2.3-3.8h3.8v10.9h-3.6V34l-2.5,3.9h-0.1l-2.5-3.9v5.4h-3.6V28.5z"/>
	<path class="st1" d="M135.2,28.5h3.7v7.3h5.1v3.6h-8.8V28.5z"/>
	<polygon class="st3" points="120.5,70.9 120.5,78.1 129.3,78.1 128.5,87.4 120.5,89.6 120.5,97.1 135.2,93 135.3,91.8 137,72.9 
		137.2,70.9 135.2,70.9 	"/>
	<polygon class="st3" points="120.5,56.4 120.5,60.8 120.5,63.6 120.5,63.6 137.8,63.6 137.8,63.6 137.8,63.6 138,62 138.3,58.3 
		138.5,56.4 	"/>
</g>
<g class="st0">
	<g class="st4">
		<polygon class="st5" points="143.4,103.1 119.7,109.5 95.9,103.1 90.5,43.8 148.9,43.8 		"/>
		<g>
			<polygon class="st5" points="106.2,36.6 106.2,33.1 111.4,33.1 111.4,29.2 102.3,29.2 102.3,40.1 111.4,40.1 111.4,36.6 			"/>
			<path class="st5" d="M120.6,33.1h3.6v-3.9h-9c0,0,0,1.9,0,3.9c1.2,1.2,1.8,1.8,3.6,3.5c-1,0-3.6,0-3.6,0v3.5h9v-3.5L120.6,33.1z"
				/>
			<path class="st5" d="M133.4,33.1h3.6v-3.9h-9c0,0,0,1.9,0,3.9c1.2,1.2,1.8,1.8,3.6,3.5c-1,0-3.6,0-3.6,0v3.5h9v-3.5L133.4,33.1z"
				/>
		</g>
		<g>
			<polygon class="st6" points="119.7,63.4 102.7,70.5 103.2,77.5 119.7,70.5 137.1,63 137.8,55.8 			"/>
			<linearGradient id="SVGID_1_" gradientUnits="userSpaceOnUse" x1="111.1612" y1="77.4888" x2="111.1612" y2="63.4113">
				<stop  offset="0.3865" style="stop-color:#D0D2D3;stop-opacity:0"/>
				<stop  offset="1" style="stop-color:#D0D2D3"/>
			</linearGradient>
			<polygon class="st7" points="102.7,70.5 103.2,77.5 119.7,70.5 119.7,63.4 			"/>
			<polygon class="st6" points="137.8,55.8 119.7,63.4 119.7,70.5 137.1,63 			"/>
			<polygon class="st6" points="102.7,70.5 103.3,77.5 128.5,77.6 127.9,86.9 119.6,89.2 111.6,87.2 111.1,81.4 103.7,81.4 
				104.7,92.6 119.7,97 134.6,92.7 136.5,70.5 			"/>
			<g class="st8">
				<polygon class="st9" points="119.7,70.5 102.7,70.5 103.2,77.5 119.7,77.5 				"/>
				<polygon class="st9" points="119.7,89.2 119.6,89.2 111.6,87.2 111.1,81.4 103.7,81.4 104.7,92.6 119.7,97 				"/>
			</g>
			<polygon class="st6" points="101.1,55.8 137.8,55.8 137.1,63 102,63 			"/>
			<polygon class="st10" points="119.7,55.8 101.1,55.8 102,63 119.7,63 			"/>
		</g>
	</g>
</g>
<g>
	<path class="st5" d="M155.3,74.6c-3.4,0-6.3,0.8-8.8,2c-0.9-1.8-1.8-3.4-2-4.6c-0.2-1.4-0.4-2.2-0.2-3.8c0.2-1.6,1.2-4,1.2-4.1
		c0-0.2-0.2-1-2.2-1c-1.9,0-3.6,0.4-3.8,0.9s-0.6,1.7-0.8,2.9c-0.3,1.8-3.9,8.1-5.9,11.4c-0.7-1.3-1.2-2.4-1.3-3.3
		c-0.2-1.4-0.4-2.2-0.2-3.8c0.2-1.6,1.2-4,1.2-4.1c0-0.2-0.2-1-2.2-1s-3.6,0.4-3.8,0.9c-0.2,0.5-0.4,1.7-0.8,2.9s-5.1,11.7-6.4,14.5
		c-0.6,1.4-1.2,2.5-1.6,3.3l0,0c0,0,0,0.1-0.1,0.1c-0.3,0.7-0.5,1-0.5,1s0,0,0,0c-0.3,0.5-0.5,0.9-0.7,0.9c-0.1,0-0.3-1.3,0-3
		c0.7-3.7,2.4-9.4,2.4-9.6c0-0.1,0.3-1.1-1.1-1.6c-1.4-0.5-1.9,0.3-2,0.3s-0.2,0.3-0.2,0.3s1.5-6.4-2.9-6.4c-2.8,0-6.7,3.1-8.6,5.8
		c-1.2,0.7-3.8,2.1-6.5,3.6c-1,0.6-2.1,1.2-3.1,1.7c-0.1-0.1-0.1-0.2-0.2-0.2c-5.4-5.8-15.5-9.9-15-17.7c0.2-2.8,1.1-10.3,19.3-19.3
		c14.9-7.4,26.8-5.3,28.9-0.8c2.9,6.5-6.4,18.4-21.8,20.2c-5.9,0.7-9-1.6-9.7-2.5c-0.8-0.9-0.9-0.9-1.2-0.8c-0.5,0.3-0.2,1.1,0,1.5
		c0.5,1.2,2.4,3.3,5.6,4.4c2.8,0.9,9.7,1.4,18.1-1.8c9.3-3.6,16.6-13.7,14.5-22.1c-2.1-8.5-16.3-11.4-29.7-6.6
		c-8,2.8-16.6,7.3-22.8,13.1c-7.4,6.9-8.6,12.9-8.1,15.4c1.7,8.9,14,14.7,19,19.1c-0.2,0.1-0.5,0.3-0.7,0.4
		c-2.5,1.2-11.9,6.1-14.2,11.3c-2.7,5.9,0.4,10.1,2.5,10.7c6.3,1.8,12.8-1.4,16.3-6.6s3.1-12,1.5-15.1c0,0,0-0.1-0.1-0.1
		c0.6-0.4,1.3-0.8,1.9-1.1c1.3-0.7,2.5-1.4,3.6-2c-0.6,1.6-1,3.6-1.3,6.5c-0.3,3.3,1.1,7.7,2.9,9.4c0.8,0.7,1.7,0.8,2.3,0.8
		c2.1,0,3-1.7,4.1-3.8c1.3-2.5,2.4-5.4,2.4-5.4s-1.4,7.9,2.5,7.9c1.4,0,2.9-1.8,3.5-2.8v0c0,0,0-0.1,0.1-0.2
		c0.1-0.2,0.2-0.4,0.2-0.4v0c0.6-1,1.8-3.2,3.7-7c2.4-4.8,4.8-10.8,4.8-10.8s0.2,1.5,0.9,3.9c0.4,1.4,1.3,3,2,4.5
		c-0.6,0.8-0.9,1.2-0.9,1.2s0,0,0,0c-0.5,0.6-1,1.3-1.5,1.9c-1.9,2.3-4.2,4.9-4.6,5.7c-0.4,0.9-0.3,1.6,0.4,2.1
		c0.5,0.4,1.4,0.4,2.4,0.4c1.7-0.1,3-0.5,3.6-0.8c0.9-0.3,2-0.9,3.1-1.6c1.9-1.4,3-3.4,2.9-6c-0.1-1.5-0.5-2.9-1.1-4.3
		c0.2-0.2,0.3-0.5,0.5-0.7c3-4.4,5.3-9.2,5.3-9.2s0.2,1.5,0.9,3.9c0.4,1.2,1.1,2.6,1.7,3.9c-2.8,2.3-4.6,4.9-5.2,6.7
		c-1.1,3.2-0.2,4.7,1.4,5c0.7,0.2,1.8-0.2,2.6-0.5c1-0.3,2.2-0.9,3.3-1.7c1.9-1.4,3.7-3.3,3.6-6c-0.1-1.2-0.4-2.4-0.8-3.5
		c2.4-1,5.5-1.5,9.4-1.1c8.4,1,10.1,6.3,9.8,8.5c-0.3,2.2-2.1,3.4-2.7,3.8s-0.8,0.5-0.7,0.8c0.1,0.4,0.4,0.4,0.9,0.3
		c0.7-0.1,4.4-1.8,4.6-5.9C169,80.2,164,74.5,155.3,74.6L155.3,74.6z M90.2,96.5c-2.8,3-6.7,4.2-8.4,3.2c-1.8-1-1.1-5.5,2.3-8.8
		c2.1-2,4.8-3.8,6.6-4.9c0.4-0.2,1-0.6,1.7-1c0.1-0.1,0.2-0.1,0.2-0.1l0,0c0.1-0.1,0.3-0.2,0.4-0.3C94.3,89.2,93.1,93.3,90.2,96.5
		L90.2,96.5z M110.6,82.6c-1,2.4-3,8.5-4.3,8.1c-1.1-0.3-1.7-4.9-0.2-9.4c0.8-2.3,2.4-5,3.3-6.1c1.5-1.7,3.2-2.3,3.6-1.6
		C113.5,74.6,111.2,81.2,110.6,82.6L110.6,82.6z M127.4,90.7c-0.4,0.2-0.8,0.4-1,0.2c-0.1-0.1,0.2-0.4,0.2-0.4s2.1-2.3,2.9-3.3
		c0.5-0.6,1-1.3,1.6-2.1v0.2C131.2,88.1,128.6,89.9,127.4,90.7L127.4,90.7z M140.4,87.7c-0.3-0.2-0.2-0.9,0.8-3.1
		c0.4-0.9,1.3-2.3,2.9-3.7c0.2,0.6,0.3,1.1,0.3,1.6C144.3,85.9,141.8,87.2,140.4,87.7L140.4,87.7z"/>
</g>
<g class="st0">
	<path class="st1" d="M88.9,35.2h63c1.3,0,2.3,1,2.3,2.3v63c0,1.3-1,2.3-2.3,2.3h-63c-1.3,0-2.3-1-2.3-2.3v-63
		C86.7,36.2,87.7,35.2,88.9,35.2z"/>
	<path class="st3" d="M148.7,86.6c-0.5-3.1-2.5-5.7-8.5-8.1c-2.1-1-4.4-1.6-5.1-3.2c-0.2-0.9-0.3-1.4-0.1-2c0.4-1.8,2.6-2.4,4.3-1.8
		c0.6,0.2,1.2,0.6,1.7,1.1c0.8,0.8,2,0.8,2.9,0.2c0.4-0.3,0.7-0.5,1-0.7c1.2-0.8,1.4-2.4,0.4-3.5c0,0,0,0,0,0c-1.8-2-4.2-3-8.1-2.9
		c-0.4,0-0.9,0.1-1.3,0.1c-2.1,0.4-4.1,1.5-5.3,2.9c-3.2,3.6-2.3,10,1.6,12.6c3.8,2.9,9.5,3.5,10.2,6.2c0.7,3.3-2.4,4.4-5.5,4
		c-1.7-0.3-2.8-1.1-3.8-2.2c-0.7-0.8-1.9-1.1-2.9-0.5c-0.5,0.3-0.8,0.5-1.3,0.7c-1.2,0.7-1.5,2.4-0.6,3.5c0.2,0.3,0.5,0.5,0.8,0.9
		c4.9,5,17.1,4.7,19.3-2.8C148.6,91,149.2,89.3,148.7,86.6z M123.4,66.2h-4c-1.3,0-2.3,1-2.3,2.3c0,4.7,0,9.4,0,14.1
		c0,3.5,0.2,6.7-0.4,7.6c-0.9,1.8-3,1.7-4.2,1.4c-0.2,0-0.3-0.1-0.5-0.2c-1-0.5-1.5-1.3-2.1-2.3c-0.2-0.3-0.3-0.6-0.4-0.6
		c-1.1,0.6-2.1,1.3-3.2,1.9c-1.1,0.7-1.5,2.2-0.6,3.3c0.7,0.9,1.5,1.6,2.4,2.2c2.4,1.4,5.6,1.9,9,1.1c2.2-0.6,4.1-2,5.1-4
		c1.4-2.7,1.1-5.9,1.1-9.4C123.4,77.8,123.4,72.1,123.4,66.2L123.4,66.2z"/>
</g>
</svg>
