<?xml version="1.0" encoding="utf-8"?>
<!-- Generator: Adobe Illustrator 21.0.0, SVG Export Plug-In . SVG Version: 6.00 Build 0)  -->
<svg version="1.1" id="Layer_1" xmlns="http://www.w3.org/2000/svg" xmlns:xlink="http://www.w3.org/1999/xlink" x="0px" y="0px"
	 viewBox="0 0 240 140" style="enable-background:new 0 0 240 140;" xml:space="preserve">
<style type="text/css">
	.st0{display:none;}
	.st1{display:inline;fill:#eeeeee;}
	.st2{display:inline;fill:#EBEBEB;}
	.st3{display:inline;fill:#FFFFFF;}
	.st4{display:inline;}
	.st5{fill:#eeeeee;}
	.st6{fill:#FFFFFF;}
	.st7{fill:url(#SVGID_1_);}
	.st8{opacity:5.000000e-02;}
	.st9{fill:#231F20;}
	.st10{opacity:5.000000e-02;fill:#231F20;}
</style>
<g class="st0">
	<polygon class="st1" points="-80,103 -85.2,44.4 -27.8,44.4 -33,103 -56.5,109.5 	"/>
	<polygon class="st2" points="-56.5,70.9 -66,70.9 -66.7,63.6 -56.5,63.6 -56.5,56.4 -56.5,56.4 -74.5,56.4 -74.3,58.3 -72.6,78.1 
		-56.5,78.1 	"/>
	<polygon class="st2" points="-56.5,89.6 -56.5,89.6 -64.5,87.4 -65,81.7 -68.9,81.7 -72.2,81.7 -71.2,93 -56.5,97.1 -56.5,97.1 	
		"/>
	<path class="st1" d="M-79.8,28.5h3.7v3.6h3.3v-3.6h3.7v10.9h-3.7v-3.7h-3.3v3.7h-3.7L-79.8,28.5L-79.8,28.5z"/>
	<path class="st1" d="M-64.4,32.1h-3.2v-3.6h10.1v3.6h-3.2v7.3h-3.7L-64.4,32.1L-64.4,32.1z"/>
	<path class="st1" d="M-55.9,28.5h3.8l2.3,3.8l2.3-3.8h3.8v10.9h-3.6V34l-2.5,3.9h-0.1l-2.5-3.9v5.4h-3.6V28.5z"/>
	<path class="st1" d="M-41.8,28.5h3.7v7.3h5.1v3.6h-8.8V28.5z"/>
	<polygon class="st3" points="-56.5,70.9 -56.5,78.1 -47.7,78.1 -48.5,87.4 -56.5,89.6 -56.5,97.1 -41.8,93 -41.7,91.8 -40,72.9 
		-39.8,70.9 -41.8,70.9 	"/>
	<polygon class="st3" points="-56.5,56.4 -56.5,60.8 -56.5,63.6 -56.5,63.6 -39.2,63.6 -39.2,63.6 -39.2,63.6 -39,62 -38.7,58.3 
		-38.5,56.4 	"/>
</g>
<g class="st0">
	<g class="st4">
		<polygon class="st5" points="-33.6,103.1 -57.3,109.5 -81.1,103.1 -86.5,43.8 -28.1,43.8 		"/>
		<g>
			<polygon class="st5" points="-70.8,36.6 -70.8,33.1 -65.6,33.1 -65.6,29.2 -74.7,29.2 -74.7,40.1 -65.6,40.1 -65.6,36.6 			"/>
			<path class="st5" d="M-56.4,33.1h3.6v-3.9h-9c0,0,0,1.9,0,3.9c1.2,1.2,1.8,1.8,3.6,3.5c-1,0-3.6,0-3.6,0v3.5h9v-3.5L-56.4,33.1z"
				/>
			<path class="st5" d="M-43.6,33.1h3.6v-3.9h-9c0,0,0,1.9,0,3.9c1.2,1.2,1.8,1.8,3.6,3.5c-1,0-3.6,0-3.6,0v3.5h9v-3.5L-43.6,33.1z"
				/>
		</g>
		<g>
			<polygon class="st6" points="-57.3,63.4 -74.3,70.5 -73.8,77.5 -57.3,70.5 -39.9,63 -39.2,55.8 			"/>
			<linearGradient id="SVGID_1_" gradientUnits="userSpaceOnUse" x1="-65.8388" y1="77.4888" x2="-65.8388" y2="63.4113">
				<stop  offset="0.3865" style="stop-color:#D0D2D3;stop-opacity:0"/>
				<stop  offset="1" style="stop-color:#D0D2D3"/>
			</linearGradient>
			<polygon class="st7" points="-74.3,70.5 -73.8,77.5 -57.3,70.5 -57.3,63.4 			"/>
			<polygon class="st6" points="-39.2,55.8 -57.3,63.4 -57.3,70.5 -39.9,63 			"/>
			<polygon class="st6" points="-74.3,70.5 -73.7,77.5 -48.5,77.6 -49.1,86.9 -57.4,89.2 -65.4,87.2 -65.9,81.4 -73.3,81.4 
				-72.3,92.6 -57.3,97 -42.4,92.7 -40.5,70.5 			"/>
			<g class="st8">
				<polygon class="st9" points="-57.3,70.5 -74.3,70.5 -73.8,77.5 -57.3,77.5 				"/>
				<polygon class="st9" points="-57.3,89.2 -57.4,89.2 -65.4,87.2 -65.9,81.4 -73.3,81.4 -72.3,92.6 -57.3,97 				"/>
			</g>
			<polygon class="st6" points="-75.9,55.8 -39.2,55.8 -39.9,63 -75,63 			"/>
			<polygon class="st10" points="-57.3,55.8 -75.9,55.8 -75,63 -57.3,63 			"/>
		</g>
	</g>
</g>
<g class="st0">
	<path class="st1" d="M-21.7,74.6c-3.4,0-6.3,0.8-8.8,2c-0.9-1.8-1.8-3.4-2-4.6c-0.2-1.4-0.4-2.2-0.2-3.8c0.2-1.6,1.2-4,1.2-4.1
		c0-0.2-0.2-1-2.2-1c-1.9,0-3.6,0.4-3.8,0.9c-0.2,0.5-0.6,1.7-0.8,2.9c-0.3,1.8-3.9,8.1-5.9,11.4c-0.7-1.3-1.2-2.4-1.3-3.3
		c-0.2-1.4-0.4-2.2-0.2-3.8c0.2-1.6,1.2-4,1.2-4.1s-0.2-1-2.2-1c-1.9,0-3.6,0.4-3.8,0.9c-0.2,0.5-0.4,1.7-0.8,2.9
		c-0.4,1.2-5.1,11.7-6.4,14.5c-0.6,1.4-1.2,2.5-1.6,3.3l0,0c0,0,0,0.1-0.1,0.1c-0.3,0.7-0.5,1-0.5,1s0,0,0,0
		c-0.3,0.5-0.5,0.9-0.7,0.9c-0.1,0-0.3-1.3,0-3c0.7-3.7,2.4-9.4,2.4-9.6c0-0.1,0.3-1.1-1.1-1.6c-1.4-0.5-1.9,0.3-2,0.3
		c-0.1,0-0.2,0.3-0.2,0.3s1.5-6.4-2.9-6.4c-2.8,0-6.7,3.1-8.6,5.8c-1.2,0.7-3.8,2.1-6.5,3.6c-1,0.6-2.1,1.2-3.1,1.7
		c-0.1-0.1-0.1-0.2-0.2-0.2c-5.4-5.8-15.5-9.9-15-17.7c0.2-2.8,1.1-10.3,19.3-19.3c14.9-7.4,26.8-5.3,28.9-0.8
		c2.9,6.5-6.4,18.4-21.8,20.2c-5.9,0.7-9-1.6-9.7-2.5c-0.8-0.9-0.9-0.9-1.2-0.8c-0.5,0.3-0.2,1.1,0,1.5c0.5,1.2,2.4,3.3,5.6,4.4
		c2.8,0.9,9.7,1.4,18.1-1.8c9.3-3.6,16.6-13.7,14.5-22.1c-2.1-8.5-16.3-11.4-29.7-6.6c-8,2.8-16.6,7.3-22.8,13.1
		c-7.4,6.9-8.6,12.9-8.1,15.4c1.7,8.9,14,14.7,19,19.1c-0.2,0.1-0.5,0.3-0.7,0.4c-2.5,1.2-11.9,6.1-14.2,11.3
		c-2.7,5.9,0.4,10.1,2.5,10.7c6.3,1.8,12.8-1.4,16.3-6.6s3.1-12,1.5-15.1c0,0,0-0.1-0.1-0.1c0.6-0.4,1.3-0.8,1.9-1.1
		c1.3-0.7,2.5-1.4,3.6-2c-0.6,1.6-1,3.6-1.3,6.5c-0.3,3.3,1.1,7.7,2.9,9.4c0.8,0.7,1.7,0.8,2.3,0.8c2.1,0,3-1.7,4.1-3.8
		c1.3-2.5,2.4-5.4,2.4-5.4s-1.4,7.9,2.5,7.9c1.4,0,2.9-1.8,3.5-2.8v0c0,0,0-0.1,0.1-0.2c0.1-0.2,0.2-0.4,0.2-0.4v0
		c0.6-1,1.8-3.2,3.7-7c2.4-4.8,4.8-10.8,4.8-10.8s0.2,1.5,0.9,3.9c0.4,1.4,1.3,3,2,4.5c-0.6,0.8-0.9,1.2-0.9,1.2s0,0,0,0
		c-0.5,0.6-1,1.3-1.5,1.9c-1.9,2.3-4.2,4.9-4.6,5.7c-0.4,0.9-0.3,1.6,0.4,2.1c0.5,0.4,1.4,0.4,2.4,0.4c1.7-0.1,3-0.5,3.6-0.8
		c0.9-0.3,2-0.9,3.1-1.6c1.9-1.4,3-3.4,2.9-6c-0.1-1.5-0.5-2.9-1.1-4.3c0.2-0.2,0.3-0.5,0.5-0.7c3-4.4,5.3-9.2,5.3-9.2
		s0.2,1.5,0.9,3.9c0.4,1.2,1.1,2.6,1.7,3.9c-2.8,2.3-4.6,4.9-5.2,6.7c-1.1,3.2-0.2,4.7,1.4,5c0.7,0.2,1.8-0.2,2.6-0.5
		c1-0.3,2.2-0.9,3.3-1.7c1.9-1.4,3.7-3.3,3.6-6c-0.1-1.2-0.4-2.4-0.8-3.5c2.4-1,5.5-1.5,9.4-1.1c8.4,1,10.1,6.3,9.8,8.5
		s-2.1,3.4-2.7,3.8s-0.8,0.5-0.7,0.8c0.1,0.4,0.4,0.4,0.9,0.3c0.7-0.1,4.4-1.8,4.6-5.9C-8,80.2-13,74.5-21.7,74.6L-21.7,74.6z
		 M-86.8,96.5c-2.8,3-6.7,4.2-8.4,3.2c-1.8-1-1.1-5.5,2.3-8.8c2.1-2,4.8-3.8,6.6-4.9c0.4-0.2,1-0.6,1.7-1c0.1-0.1,0.2-0.1,0.2-0.1
		l0,0c0.1-0.1,0.3-0.2,0.4-0.3C-82.7,89.2-83.9,93.3-86.8,96.5L-86.8,96.5z M-66.4,82.6c-1,2.4-3,8.5-4.3,8.1
		c-1.1-0.3-1.7-4.9-0.2-9.4c0.8-2.3,2.4-5,3.3-6.1c1.5-1.7,3.2-2.3,3.6-1.6C-63.5,74.6-65.8,81.2-66.4,82.6L-66.4,82.6z M-49.6,90.7
		c-0.4,0.2-0.8,0.4-1,0.2c-0.1-0.1,0.2-0.4,0.2-0.4s2.1-2.3,2.9-3.3c0.5-0.6,1-1.3,1.6-2.1v0.2C-45.8,88.1-48.4,89.9-49.6,90.7
		L-49.6,90.7z M-36.6,87.7c-0.3-0.2-0.2-0.9,0.8-3.1c0.4-0.9,1.3-2.3,2.9-3.7c0.2,0.6,0.3,1.1,0.3,1.6
		C-32.7,85.9-35.2,87.2-36.6,87.7L-36.6,87.7z"/>
</g>
<g class="st0">
	<path class="st1" d="M-88.1,35.2h63c1.3,0,2.3,1,2.3,2.3v63c0,1.3-1,2.3-2.3,2.3h-63c-1.3,0-2.3-1-2.3-2.3v-63
		C-90.3,36.2-89.3,35.2-88.1,35.2z"/>
	<path class="st3" d="M-28.3,86.6c-0.5-3.1-2.5-5.7-8.5-8.1c-2.1-1-4.4-1.6-5.1-3.2c-0.2-0.9-0.3-1.4-0.1-2c0.4-1.8,2.6-2.4,4.3-1.8
		c0.6,0.2,1.2,0.6,1.7,1.1c0.8,0.8,2,0.8,2.9,0.2c0.4-0.3,0.7-0.5,1-0.7c1.2-0.8,1.4-2.4,0.4-3.5c0,0,0,0,0,0c-1.8-2-4.2-3-8.1-2.9
		c-0.4,0-0.9,0.1-1.3,0.1c-2.1,0.4-4.1,1.5-5.3,2.9c-3.2,3.6-2.3,10,1.6,12.6c3.8,2.9,9.5,3.5,10.2,6.2c0.7,3.3-2.4,4.4-5.5,4
		c-1.7-0.3-2.8-1.1-3.8-2.2c-0.7-0.8-1.9-1.1-2.9-0.5c-0.5,0.3-0.8,0.5-1.3,0.7c-1.2,0.7-1.5,2.4-0.6,3.5c0.2,0.3,0.5,0.5,0.8,0.9
		c4.9,5,17.1,4.7,19.3-2.8C-28.4,91-27.8,89.3-28.3,86.6z M-53.6,66.2h-4c-1.3,0-2.3,1-2.3,2.3c0,4.7,0,9.4,0,14.1
		c0,3.5,0.2,6.7-0.4,7.6c-0.9,1.8-3,1.7-4.2,1.4c-0.2,0-0.3-0.1-0.5-0.2c-1-0.5-1.5-1.3-2.1-2.3c-0.2-0.3-0.3-0.6-0.4-0.6
		c-1.1,0.6-2.1,1.3-3.2,1.9c-1.1,0.7-1.5,2.2-0.6,3.3c0.7,0.9,1.5,1.6,2.4,2.2c2.4,1.4,5.6,1.9,9,1.1c2.2-0.6,4.1-2,5.1-4
		c1.4-2.7,1.1-5.9,1.1-9.4C-53.6,77.8-53.6,72.1-53.6,66.2L-53.6,66.2z"/>
</g>
<g>
	<path class="st5" d="M43.7,58.5c-2.6,3.7-2.3,8.5-0.3,12.4c0,0.1,0.1,0.2,0.1,0.3c0,0.1,0.1,0.1,0.1,0.2c0,0,0,0.1,0.1,0.1
		c0,0.1,0.1,0.1,0.1,0.2c0.1,0.1,0.1,0.2,0.2,0.3c0,0.1,0.1,0.1,0.1,0.2c0.1,0.1,0.1,0.2,0.2,0.3c0,0,0.1,0.1,0.1,0.1
		c0.1,0.2,0.2,0.3,0.3,0.5c0,0,0,0,0,0c0,0,0,0,0.1,0.1c0.1,0.1,0.2,0.3,0.3,0.4c0,0,0.1,0.1,0.1,0.1c0.1,0.1,0.2,0.2,0.3,0.3
		c0,0,0.1,0.1,0.1,0.1c0.1,0.1,0.2,0.3,0.4,0.4c0,0,0,0,0,0c0,0,0,0,0,0c0.1,0.1,0.2,0.3,0.4,0.4c0,0,0.1,0.1,0.1,0.1
		c0.1,0.1,0.2,0.2,0.3,0.3c0,0,0.1,0.1,0.1,0.1c0.1,0.1,0.3,0.3,0.4,0.4c0,0,0,0,0,0c0,0,0,0,0.1,0.1c0.1,0.1,0.2,0.2,0.4,0.3
		c0.1,0,0.1,0.1,0.2,0.1c0.1,0.1,0.2,0.2,0.3,0.2c0.1,0,0.1,0.1,0.2,0.1c0.1,0.1,0.2,0.2,0.3,0.3c0,0,0.1,0.1,0.1,0.1c0,0,0,0,0,0
		c0.1,0.1,0.2,0.1,0.3,0.2c0.1,0,0.1,0.1,0.1,0.1c0.2,0.1,0.4,0.2,0.5,0.3c0.1,0,0.1,0.1,0.1,0.1c0.1,0.1,0.3,0.2,0.4,0.2
		c0.1,0,0.1,0.1,0.2,0.1c0.1,0,0.2,0.1,0.3,0.1c0,0,0,0,0.1,0c0,0,0.1,0,0.1,0.1c0.1,0.1,0.3,0.1,0.5,0.2c0,0,0.1,0,0.1,0
		c0.2,0.1,0.3,0.1,0.5,0.2c0,0,0.1,0,0.1,0c0.2,0.1,0.3,0.1,0.5,0.2c0,0,0,0,0.1,0c0.2,0.1,0.4,0.1,0.6,0.2c0,0,0.1,0,0.1,0
		c0.2,0.1,0.4,0.1,0.6,0.2c12.4,2.3,16-7.5,16-7.5c-3,4-8.4,5-13.5,3.8c-0.2,0-0.4-0.1-0.6-0.2c0,0-0.1,0-0.1,0
		c-0.2-0.1-0.4-0.1-0.5-0.2c0,0-0.1,0-0.1,0c-0.2-0.1-0.3-0.1-0.5-0.2c0,0-0.1,0-0.1-0.1c-0.2-0.1-0.4-0.1-0.5-0.2c0,0-0.1,0-0.1,0
		c-0.1-0.1-0.3-0.1-0.4-0.2c0,0-0.1,0-0.1-0.1c-0.1-0.1-0.2-0.1-0.3-0.2c-0.1,0-0.2-0.1-0.2-0.1c-0.1-0.1-0.3-0.2-0.4-0.2
		c0,0-0.1-0.1-0.1-0.1c-0.2-0.1-0.4-0.2-0.5-0.3c-0.1,0-0.1-0.1-0.1-0.1c-0.1-0.1-0.3-0.2-0.4-0.3c0,0-0.1-0.1-0.1-0.1
		c-0.1-0.1-0.2-0.2-0.4-0.3c-0.1,0-0.1-0.1-0.2-0.1c-0.1-0.1-0.2-0.2-0.3-0.3c0,0-0.1-0.1-0.1-0.1c-0.1-0.1-0.3-0.2-0.4-0.3
		c0,0,0,0,0,0c-0.1-0.1-0.3-0.3-0.4-0.4c0,0-0.1-0.1-0.1-0.1c-0.1-0.1-0.2-0.2-0.3-0.3c0,0-0.1-0.1-0.1-0.1
		c-0.1-0.1-0.3-0.3-0.4-0.4c0,0,0,0,0,0c-0.1-0.1-0.3-0.3-0.4-0.4c0,0-0.1-0.1-0.1-0.1c-0.1-0.1-0.2-0.2-0.3-0.3
		c0,0-0.1-0.1-0.1-0.1c-0.1-0.1-0.2-0.3-0.3-0.4c-2.8-3.9-3.9-9.2-1.6-13.6"/>
	<path class="st5" d="M51.7,55.4c-1.9,2.7-1.8,6.3-0.3,9.1c0.2,0.5,0.5,0.9,0.8,1.4c0.3,0.4,0.6,0.9,1,1.2c0.1,0.1,0.3,0.3,0.4,0.4
		c0,0,0.1,0.1,0.1,0.1c0.1,0.1,0.3,0.3,0.4,0.4c0,0,0,0,0,0c0,0,0,0,0,0c0.2,0.1,0.3,0.3,0.5,0.4c0,0,0.1,0.1,0.1,0.1
		c0.2,0.1,0.3,0.3,0.5,0.4c0,0,0,0,0,0c0.1,0.1,0.2,0.1,0.2,0.2c0,0,0.1,0.1,0.1,0.1c0.1,0.1,0.3,0.2,0.4,0.2c0,0,0,0,0.1,0
		c0.1,0.1,0.2,0.1,0.3,0.2c0,0,0.1,0,0.1,0.1c0.1,0,0.2,0.1,0.2,0.1c0,0,0,0,0,0c0.2,0.1,0.3,0.2,0.5,0.2c0,0,0.1,0,0.1,0
		c0.1,0.1,0.3,0.1,0.4,0.2c0.1,0,0.1,0,0.2,0.1c0.1,0,0.3,0.1,0.4,0.1c0.1,0,0.1,0,0.2,0.1c0.2,0.1,0.4,0.1,0.5,0.2
		c9.6,1.6,11.8-5.8,11.8-5.8c-2,2.9-5.9,4.3-10,3.2c-0.2,0-0.4-0.1-0.5-0.2c-0.1,0-0.1,0-0.2-0.1c-0.1,0-0.3-0.1-0.4-0.1
		c-0.1,0-0.1,0-0.2-0.1c-0.1-0.1-0.3-0.1-0.4-0.2c0,0-0.1,0-0.1,0c-0.2-0.1-0.3-0.2-0.5-0.2c-0.1,0-0.2-0.1-0.3-0.1
		c-0.1,0-0.1,0-0.1-0.1c-0.1-0.1-0.2-0.1-0.3-0.2c0,0-0.1,0-0.1,0c-0.1-0.1-0.3-0.2-0.4-0.2c0,0-0.1-0.1-0.1-0.1
		c-0.1-0.1-0.2-0.1-0.3-0.2c-0.2-0.1-0.3-0.2-0.5-0.4c0,0-0.1-0.1-0.1-0.1c-1.8-1.4-3.2-3.4-3.9-5.6c-0.7-2.3-0.6-4.9,0.7-7"/>
	<path class="st5" d="M58.4,53.1c-1.1,1.6-1.2,3.6-0.4,5.4c0.8,1.9,2.5,3.4,4.4,4.1c0.1,0,0.2,0.1,0.2,0.1c0,0,0.1,0,0.1,0
		c0.1,0,0.2,0.1,0.3,0.1c5.3,1,6.7-2.7,7.1-3.3c-1.3,1.8-3.4,2.2-6,1.6c-0.2,0-0.4-0.1-0.6-0.2c-0.3-0.1-0.5-0.2-0.7-0.3
		c-0.5-0.2-0.9-0.5-1.3-0.8c-2.3-1.8-3.8-5.1-2.2-7.9"/>
	<path class="st5" d="M181.3,60.7l0.2,0.9c0.1,0.3-0.1,0.5-0.4,0.5"/>
	<path class="st5" d="M164.6,59.2c-0.1,0.2-0.1,0.6-0.2,0.8l-1.8,8.6l1.9-9L164.6,59.2z"/>
	<polygon class="st5" points="109.6,64.9 108.6,68.5 109.6,64.9 	"/>
	<path class="st5" d="M181.5,61.5l-0.5-2.2c-0.4-1.6-1.6-2.4-4.3-2.4h-11.2c-0.3,0-0.5,0.1-0.6,0.4l-4.2,20.1
		c-0.1,0.3-0.1,0.4,0,0.6c0,0.1,0.5,0.1,0.8,0.1h3.9c0.3,0,0.7,0,0.9,0c0.1-0.1,0.2-0.4,0.3-0.7l1.4-7l1.7-7.8
		c0.1-0.3,0.3-0.5,0.6-0.5l11.1,0C181.4,62,181.6,61.8,181.5,61.5"/>
	<path class="st5" d="M197.2,53.4c-0.3,0-4.9,0-4.9,0c-0.3,0-0.6,0.3-0.7,0.5L183,66.6c-0.1,0.2-0.3,0.2-0.4,0l-0.6-2.8
		c-0.1-0.3-0.3-0.5-0.6-0.5h-5.5c-0.3,0-0.4,0.2-0.3,0.5l2.5,8.7c0.1,0.2,0.1,0.7,0,0.9l-1.2,4.4c-0.1,0.2,0.1,0.3,0.4,0.3h5.5
		c0.3,0,0.5-0.1,0.6-0.3l1.2-4.5c0.1-0.2,0.2-0.6,0.4-0.8l14.1-18.6c0.2-0.2,0.1-0.4-0.1-0.4L197.2,53.4z"/>
	<path class="st5" d="M139.6,56.9h-5c-0.3,0-0.5,0.1-0.6,0.3l-1.7,7.7l-1.6,7.4c-0.1,0.3-0.3,0.2-0.6,0.2h-3.3
		c-3.2,0-2.9-2.1-2.2-5.1c0,0,2.1-10.2,2.1-10.2c0-0.3-0.1-0.3-0.4-0.3h-4.8c-0.3,0-0.5,0.1-0.6,0.3l-1.9,10.2
		c-1,5.5-1,10.4,5.4,10.6c0.1,0,10.1,0,10.1,0c0.3,0,0.5-0.1,0.6-0.3l2.2-10.3l2.2-10.3C139.6,57.2,139.7,56.9,139.6,56.9z"/>
	<path class="st5" d="M89.8,56.9h-5.4c-0.3,0-0.5,0.1-0.6,0.3l-1,4.2c-0.1,0.2,0.1,0.4,0.4,0.4h5.1c0.3,0,0.5-0.2,0.6-0.5l0.9-4.2
		C89.9,57.2,90,56.9,89.8,56.9z"/>
	<path class="st5" d="M83,63.3c-0.3,0-0.5,0.2-0.6,0.5l-0.7,3.2L80,74.3c0,0-0.9,3.9-0.9,4.2c0,0-0.7,2.8-2.4,2.7
		c-0.8-0.1-1.7-0.2-1.7-0.2h0c-0.5-0.1-0.5,0.4-0.6,0.6l-1.1,4.6c-0.1,0.3,0.1,0.5,0.4,0.5c0,0,2.3,0.3,3.9,0.3h0.3
		c4,0,6.1-2.4,7.5-8.8l1.6-7.4l1.5-6.9c0.1-0.3-0.1-0.5-0.4-0.5"/>
	<path class="st5" d="M152.2,56.9c-9,0-11.2,5.6-12.4,11.1c-1.2,5.6-1.1,10.1,8.2,10.1h0.3c3.7,0,8.2,0,8.2,0c0.3,0,0.5-0.2,0.6-0.5
		l0.9-3.6c0.1-0.3-0.1-0.3-0.4-0.3h-8.4c-3,0-4.1-0.9-4-3c0-0.2,0.3-0.8,0.5-0.8h12.9c0.6,0,0.6-0.3,0.6-0.3
		C160.7,63.5,160.8,56.9,152.2,56.9 M154.6,65.7c0,0.3-0.9,0.2-0.9,0.2l-7-0.1c-0.2,0-0.3-0.3-0.3-0.6c0,0,0-0.3,0-0.4
		c0.5-1.9,2.2-3,4.7-3c2.9,0,3.5,1.4,3.5,3"/>
	<path class="st5" d="M113.3,72.3c0,0,2.5-6.1,3.1-9.7c0.8-4.7-1.6-11.6-10.8-11.6c-9.1,0-13.1,6.6-14.6,13.7
		c-1.5,7.2,0.5,13.4,9.5,13.4l13.8,0c0.3,0,0.5-0.2,0.6-0.5l1.2-4.4c0.1-0.3-0.1-0.5-0.4-0.5l-1.1,0l-1.1,0c-0.2,0-0.3-0.1-0.3-0.3
		C113.3,72.3,113.3,72.3,113.3,72.3 M108.5,68.5l-1,3.5c-0.1,0.2-0.4,0.4-0.6,0.4h-5.4c-4.1,0-5.1-3.1-4.1-7.8c1-4.8,3-7.8,7-8.1
		c5.5-0.4,6.6,3.4,5.3,7.9L108.5,68.5z"/>
</g>
</svg>
