<svg id="Layer_1" xmlns="http://www.w3.org/2000/svg" viewBox="0 0 240 140"><style>.st0{display:none}.st1,.st2{display:inline;fill:#333}.st2{fill:#ebebeb}.st3{fill:#fff}.st3,.st4{display:inline}.st5{fill:#333}.st6{fill:#fff}.st7{fill:url(#SVGID_1_)}.st8{opacity:5e-2}.st10,.st9{fill:#231f20}.st10{opacity:5e-2}</style><g class="st0"><path class="st1" d="M97 103l-5.2-58.6h57.4L144 103l-23.5 6.5z"/><path class="st2" d="M120.5 70.9H111l-.7-7.3h10.2v-7.2h-18l.2 1.9 1.7 19.8h16.1zm0 18.7l-8-2.2-.5-5.7h-7.2l1 11.3 14.7 4.1z"/><path class="st1" d="M97.2 28.5h3.7v3.6h3.3v-3.6h3.7v10.9h-3.7v-3.7h-3.3v3.7h-3.7V28.5zm15.4 3.6h-3.2v-3.6h10.1v3.6h-3.2v7.3h-3.7v-7.3zm8.5-3.6h3.8l2.3 3.8 2.3-3.8h3.8v10.9h-3.6V34l-2.5 3.9h-.1l-2.5-3.9v5.4H121V28.5zm14.1 0h3.7v7.3h5.1v3.6h-8.8V28.5z"/><path class="st3" d="M120.5 70.9v7.2h8.8l-.8 9.3-8 2.2v7.5l14.7-4.1.1-1.2 1.7-18.9.2-2h-2zm0-14.5v7.2h17.3l.2-1.6.3-3.7.2-1.9z"/></g><g class="st0"><g class="st4"><path class="st5" d="M143.4 103.1l-23.7 6.4-23.8-6.4-5.4-59.3h58.4zm-37.2-66.5v-3.5h5.2v-3.9h-9.1v10.9h9.1v-3.5zm14.4-3.5h3.6v-3.9h-9v3.9c1.2 1.2 1.8 1.8 3.6 3.5h-3.6v3.5h9v-3.5l-3.6-3.5zm12.8 0h3.6v-3.9h-9v3.9c1.2 1.2 1.8 1.8 3.6 3.5H128v3.5h9v-3.5l-3.6-3.5z"/><path class="st6" d="M119.7 63.4l-17 7.1.5 7 16.5-7 17.4-7.5.7-7.2z"/><linearGradient id="SVGID_1_" gradientUnits="userSpaceOnUse" x1="111.161" y1="77.489" x2="111.161" y2="63.411"><stop offset=".387" stop-color="#d0d2d3" stop-opacity="0"/><stop offset="1" stop-color="#d0d2d3"/></linearGradient><path class="st7" d="M102.7 70.5l.5 7 16.5-7v-7.1z"/><path class="st6" d="M137.8 55.8l-18.1 7.6v7.1l17.4-7.5zm-35.1 14.7l.6 7 25.2.1-.6 9.3-8.3 2.3-8-2-.5-5.8h-7.4l1 11.2 15 4.4 14.9-4.3 1.9-22.2z"/><g class="st8"><path class="st9" d="M119.7 70.5h-17l.5 7h16.5zm0 18.7h-.1l-8-2-.5-5.8h-7.4l1 11.2 15 4.4z"/></g><path class="st6" d="M101.1 55.8h36.7l-.7 7.2H102z"/><path class="st10" d="M119.7 55.8h-18.6l.9 7.2h17.7z"/></g></g><path class="st5" d="M155.3 74.6c-3.4 0-6.3.8-8.8 2-.9-1.8-1.8-3.4-2-4.6-.2-1.4-.4-2.2-.2-3.8.2-1.6 1.2-4 1.2-4.1 0-.2-.2-1-2.2-1-1.9 0-3.6.4-3.8.9s-.6 1.7-.8 2.9c-.3 1.8-3.9 8.1-5.9 11.4-.7-1.3-1.2-2.4-1.3-3.3-.2-1.4-.4-2.2-.2-3.8.2-1.6 1.2-4 1.2-4.1 0-.2-.2-1-2.2-1s-3.6.4-3.8.9c-.2.5-.4 1.7-.8 2.9s-5.1 11.7-6.4 14.5c-.6 1.4-1.2 2.5-1.6 3.3 0 0 0 .1-.1.1-.3.7-.5 1-.5 1-.3.5-.5.9-.7.9-.1 0-.3-1.3 0-3 .7-3.7 2.4-9.4 2.4-9.6 0-.1.3-1.1-1.1-1.6-1.4-.5-1.9.3-2 .3s-.2.3-.2.3 1.5-6.4-2.9-6.4c-2.8 0-6.7 3.1-8.6 5.8-1.2.7-3.8 2.1-6.5 3.6-1 .6-2.1 1.2-3.1 1.7-.1-.1-.1-.2-.2-.2-5.4-5.8-15.5-9.9-15-17.7.2-2.8 1.1-10.3 19.3-19.3 14.9-7.4 26.8-5.3 28.9-.8 2.9 6.5-6.4 18.4-21.8 20.2-5.9.7-9-1.6-9.7-2.5-.8-.9-.9-.9-1.2-.8-.5.3-.2 1.1 0 1.5.5 1.2 2.4 3.3 5.6 4.4 2.8.9 9.7 1.4 18.1-1.8 9.3-3.6 16.6-13.7 14.5-22.1-2.1-8.5-16.3-11.4-29.7-6.6-8 2.8-16.6 7.3-22.8 13.1-7.4 6.9-8.6 12.9-8.1 15.4 1.7 8.9 14 14.7 19 19.1-.2.1-.5.3-.7.4-2.5 1.2-11.9 6.1-14.2 11.3-2.7 5.9.4 10.1 2.5 10.7 6.3 1.8 12.8-1.4 16.3-6.6s3.1-12 1.5-15.1c0 0 0-.1-.1-.1.6-.4 1.3-.8 1.9-1.1 1.3-.7 2.5-1.4 3.6-2-.6 1.6-1 3.6-1.3 6.5-.3 3.3 1.1 7.7 2.9 9.4.8.7 1.7.8 2.3.8 2.1 0 3-1.7 4.1-3.8 1.3-2.5 2.4-5.4 2.4-5.4s-1.4 7.9 2.5 7.9c1.4 0 2.9-1.8 3.5-2.8 0 0 0-.1.1-.2l.2-.4c.6-1 1.8-3.2 3.7-7 2.4-4.8 4.8-10.8 4.8-10.8s.2 1.5.9 3.9c.4 1.4 1.3 3 2 4.5l-.9 1.2c-.5.6-1 1.3-1.5 1.9-1.9 2.3-4.2 4.9-4.6 5.7-.4.9-.3 1.6.4 2.1.5.4 1.4.4 2.4.4 1.7-.1 3-.5 3.6-.8.9-.3 2-.9 3.1-1.6 1.9-1.4 3-3.4 2.9-6-.1-1.5-.5-2.9-1.1-4.3.2-.2.3-.5.5-.7 3-4.4 5.3-9.2 5.3-9.2s.2 1.5.9 3.9c.4 1.2 1.1 2.6 1.7 3.9-2.8 2.3-4.6 4.9-5.2 6.7-1.1 3.2-.2 4.7 1.4 5 .7.2 1.8-.2 2.6-.5 1-.3 2.2-.9 3.3-1.7 1.9-1.4 3.7-3.3 3.6-6-.1-1.2-.4-2.4-.8-3.5 2.4-1 5.5-1.5 9.4-1.1 8.4 1 10.1 6.3 9.8 8.5-.3 2.2-2.1 3.4-2.7 3.8s-.8.5-.7.8c.1.4.4.4.9.3.7-.1 4.4-1.8 4.6-5.9-.1-5.5-5.1-11.2-13.8-11.1zM90.2 96.5c-2.8 3-6.7 4.2-8.4 3.2-1.8-1-1.1-5.5 2.3-8.8 2.1-2 4.8-3.8 6.6-4.9.4-.2 1-.6 1.7-1 .1-.1.2-.1.2-.1.1-.1.3-.2.4-.3 1.3 4.6.1 8.7-2.8 11.9zm20.4-13.9c-1 2.4-3 8.5-4.3 8.1-1.1-.3-1.7-4.9-.2-9.4.8-2.3 2.4-5 3.3-6.1 1.5-1.7 3.2-2.3 3.6-1.6.5 1-1.8 7.6-2.4 9zm16.8 8.1c-.4.2-.8.4-1 .2-.1-.1.2-.4.2-.4s2.1-2.3 2.9-3.3c.5-.6 1-1.3 1.6-2.1v.2c.1 2.8-2.5 4.6-3.7 5.4zm13-3c-.3-.2-.2-.9.8-3.1.4-.9 1.3-2.3 2.9-3.7.2.6.3 1.1.3 1.6-.1 3.4-2.6 4.7-4 5.2z"/><g class="st0"><path class="st1" d="M88.9 35.2h63c1.3 0 2.3 1 2.3 2.3v63c0 1.3-1 2.3-2.3 2.3h-63c-1.3 0-2.3-1-2.3-2.3v-63c.1-1.3 1.1-2.3 2.3-2.3z"/><path class="st3" d="M148.7 86.6c-.5-3.1-2.5-5.7-8.5-8.1-2.1-1-4.4-1.6-5.1-3.2-.2-.9-.3-1.4-.1-2 .4-1.8 2.6-2.4 4.3-1.8.6.2 1.2.6 1.7 1.1.8.8 2 .8 2.9.2.4-.3.7-.5 1-.7 1.2-.8 1.4-2.4.4-3.5-1.8-2-4.2-3-8.1-2.9-.4 0-.9.1-1.3.1-2.1.4-4.1 1.5-5.3 2.9-3.2 3.6-2.3 10 1.6 12.6 3.8 2.9 9.5 3.5 10.2 6.2.7 3.3-2.4 4.4-5.5 4-1.7-.3-2.8-1.1-3.8-2.2-.7-.8-1.9-1.1-2.9-.5-.5.3-.8.5-1.3.7-1.2.7-1.5 2.4-.6 3.5.2.3.5.5.8.9 4.9 5 17.1 4.7 19.3-2.8.2-.1.8-1.8.3-4.5zm-25.3-20.4h-4c-1.3 0-2.3 1-2.3 2.3v14.1c0 3.5.2 6.7-.4 7.6-.9 1.8-3 1.7-4.2 1.4-.2 0-.3-.1-.5-.2-1-.5-1.5-1.3-2.1-2.3-.2-.3-.3-.6-.4-.6-1.1.6-2.1 1.3-3.2 1.9-1.1.7-1.5 2.2-.6 3.3.7.9 1.5 1.6 2.4 2.2 2.4 1.4 5.6 1.9 9 1.1 2.2-.6 4.1-2 5.1-4 1.4-2.7 1.1-5.9 1.1-9.4.1-5.8.1-11.5.1-17.4z"/></g></svg>