<svg version="1.1" id="Layer_1" xmlns="http://www.w3.org/2000/svg" x="0" y="0" viewBox="0 0 240 140" xml:space="preserve"><style>.st0{display:none}.st1{display:inline;fill:#eee}.st3{fill:#fff}.st3,.st4{display:inline}.st5{fill:#eee}.st6{fill:#fff}.st11{fill-rule:evenodd;clip-rule:evenodd;fill:#eee}</style><g class="st0"><path class="st1" d="M-80 103l-5.2-58.6h57.4L-33 103l-23.5 6.5z"/><path d="M-56.5 70.9H-66l-.7-7.3h10.2v-7.2h-18l.2 1.9 1.7 19.8h16.1zm0 18.7l-8-2.2-.5-5.7h-7.2l1 11.3 14.7 4.1z" fill="#ebebeb"/><path class="st1" d="M-79.8 28.5h3.7v3.6h3.3v-3.6h3.7v10.9h-3.7v-3.7h-3.3v3.7h-3.7V28.5zm15.4 3.6h-3.2v-3.6h10.1v3.6h-3.2v7.3h-3.7v-7.3zm8.5-3.6h3.8l2.3 3.8 2.3-3.8h3.8v10.9h-3.6V34l-2.5 3.9h-.1l-2.5-3.9v5.4H-56V28.5zm14.1 0h3.7v7.3h5.1v3.6h-8.8V28.5z"/><path class="st3" d="M-56.5 70.9v7.2h8.8l-.8 9.3-8 2.2v7.5l14.7-4.1.1-1.2 1.7-18.9.2-2h-2zm0-14.5v7.2h17.3l.2-1.6.3-3.7.2-1.9z"/></g><g class="st0"><g class="st4"><path class="st5" d="M-33.6 103.1l-23.7 6.4-23.8-6.4-5.4-59.3h58.4zm-37.2-66.5v-3.5h5.2v-3.9h-9.1v10.9h9.1v-3.5zm14.4-3.5h3.6v-3.9h-9v3.9c1.2 1.2 1.8 1.8 3.6 3.5h-3.6v3.5h9v-3.5l-3.6-3.5zm12.8 0h3.6v-3.9h-9v3.9c1.2 1.2 1.8 1.8 3.6 3.5H-49v3.5h9v-3.5l-3.6-3.5z"/><path class="st6" d="M-57.3 63.4l-17 7.1.5 7 16.5-7 17.4-7.5.7-7.2z"/><linearGradient id="SVGID_1_" gradientUnits="userSpaceOnUse" x1="-65.839" y1="77.489" x2="-65.839" y2="63.411"><stop offset=".387" stop-color="#d0d2d3" stop-opacity="0"/><stop offset="1" stop-color="#d0d2d3"/></linearGradient><path fill="url(#SVGID_1_)" d="M-74.3 70.5l.5 7 16.5-7v-7.1z"/><path class="st6" d="M-39.2 55.8l-18.1 7.6v7.1l17.4-7.5zm-35.1 14.7l.6 7 25.2.1-.6 9.3-8.3 2.3-8-2-.5-5.8h-7.4l1 11.2 15 4.4 14.9-4.3 1.9-22.2z"/><path d="M-57.3 70.5h-17l.5 7h16.5zm0 18.7h-.1l-8-2-.5-5.8h-7.4l1 11.2 15 4.4z" fill="#231f20" opacity=".05"/><path class="st6" d="M-75.9 55.8h36.7l-.7 7.2H-75z"/><path opacity=".05" fill="#231f20" d="M-57.3 55.8h-18.6l.9 7.2h17.7z"/></g></g><g class="st0"><path class="st1" d="M-21.7 74.6c-3.4 0-6.3.8-8.8 2-.9-1.8-1.8-3.4-2-4.6-.2-1.4-.4-2.2-.2-3.8.2-1.6 1.2-4 1.2-4.1 0-.2-.2-1-2.2-1-1.9 0-3.6.4-3.8.9-.2.5-.6 1.7-.8 2.9-.3 1.8-3.9 8.1-5.9 11.4-.7-1.3-1.2-2.4-1.3-3.3-.2-1.4-.4-2.2-.2-3.8.2-1.6 1.2-4 1.2-4.1s-.2-1-2.2-1c-1.9 0-3.6.4-3.8.9-.2.5-.4 1.7-.8 2.9s-5.1 11.7-6.4 14.5c-.6 1.4-1.2 2.5-1.6 3.3 0 0 0 .1-.1.1-.3.7-.5 1-.5 1-.3.5-.5.9-.7.9-.1 0-.3-1.3 0-3 .7-3.7 2.4-9.4 2.4-9.6 0-.1.3-1.1-1.1-1.6-1.4-.5-1.9.3-2 .3-.1 0-.2.3-.2.3s1.5-6.4-2.9-6.4c-2.8 0-6.7 3.1-8.6 5.8-1.2.7-3.8 2.1-6.5 3.6-1 .6-2.1 1.2-3.1 1.7-.1-.1-.1-.2-.2-.2-5.4-5.8-15.5-9.9-15-17.7.2-2.8 1.1-10.3 19.3-19.3 14.9-7.4 26.8-5.3 28.9-.8 2.9 6.5-6.4 18.4-21.8 20.2-5.9.7-9-1.6-9.7-2.5-.8-.9-.9-.9-1.2-.8-.5.3-.2 1.1 0 1.5.5 1.2 2.4 3.3 5.6 4.4 2.8.9 9.7 1.4 18.1-1.8 9.3-3.6 16.6-13.7 14.5-22.1-2.1-8.5-16.3-11.4-29.7-6.6-8 2.8-16.6 7.3-22.8 13.1-7.4 6.9-8.6 12.9-8.1 15.4 1.7 8.9 14 14.7 19 19.1-.2.1-.5.3-.7.4-2.5 1.2-11.9 6.1-14.2 11.3-2.7 5.9.4 10.1 2.5 10.7 6.3 1.8 12.8-1.4 16.3-6.6s3.1-12 1.5-15.1c0 0 0-.1-.1-.1.6-.4 1.3-.8 1.9-1.1 1.3-.7 2.5-1.4 3.6-2-.6 1.6-1 3.6-1.3 6.5-.3 3.3 1.1 7.7 2.9 9.4.8.7 1.7.8 2.3.8 2.1 0 3-1.7 4.1-3.8 1.3-2.5 2.4-5.4 2.4-5.4s-1.4 7.9 2.5 7.9c1.4 0 2.9-1.8 3.5-2.8 0 0 0-.1.1-.2l.2-.4c.6-1 1.8-3.2 3.7-7 2.4-4.8 4.8-10.8 4.8-10.8s.2 1.5.9 3.9c.4 1.4 1.3 3 2 4.5l-.9 1.2c-.5.6-1 1.3-1.5 1.9-1.9 2.3-4.2 4.9-4.6 5.7-.4.9-.3 1.6.4 2.1.5.4 1.4.4 2.4.4 1.7-.1 3-.5 3.6-.8.9-.3 2-.9 3.1-1.6 1.9-1.4 3-3.4 2.9-6-.1-1.5-.5-2.9-1.1-4.3.2-.2.3-.5.5-.7 3-4.4 5.3-9.2 5.3-9.2s.2 1.5.9 3.9c.4 1.2 1.1 2.6 1.7 3.9-2.8 2.3-4.6 4.9-5.2 6.7-1.1 3.2-.2 4.7 1.4 5 .7.2 1.8-.2 2.6-.5 1-.3 2.2-.9 3.3-1.7 1.9-1.4 3.7-3.3 3.6-6-.1-1.2-.4-2.4-.8-3.5 2.4-1 5.5-1.5 9.4-1.1 8.4 1 10.1 6.3 9.8 8.5s-2.1 3.4-2.7 3.8-.8.5-.7.8c.1.4.4.4.9.3.7-.1 4.4-1.8 4.6-5.9-.1-5.5-5.1-11.2-13.8-11.1zm-65.1 21.9c-2.8 3-6.7 4.2-8.4 3.2-1.8-1-1.1-5.5 2.3-8.8 2.1-2 4.8-3.8 6.6-4.9.4-.2 1-.6 1.7-1 .1-.1.2-.1.2-.1.1-.1.3-.2.4-.3 1.3 4.6.1 8.7-2.8 11.9zm20.4-13.9c-1 2.4-3 8.5-4.3 8.1-1.1-.3-1.7-4.9-.2-9.4.8-2.3 2.4-5 3.3-6.1 1.5-1.7 3.2-2.3 3.6-1.6.5 1-1.8 7.6-2.4 9zm16.8 8.1c-.4.2-.8.4-1 .2-.1-.1.2-.4.2-.4s2.1-2.3 2.9-3.3c.5-.6 1-1.3 1.6-2.1v.2c.1 2.8-2.5 4.6-3.7 5.4zm13-3c-.3-.2-.2-.9.8-3.1.4-.9 1.3-2.3 2.9-3.7.2.6.3 1.1.3 1.6-.1 3.4-2.6 4.7-4 5.2z"/></g><g class="st0"><path class="st1" d="M-88.1 35.2h63c1.3 0 2.3 1 2.3 2.3v63c0 1.3-1 2.3-2.3 2.3h-63c-1.3 0-2.3-1-2.3-2.3v-63c.1-1.3 1.1-2.3 2.3-2.3z"/><path class="st3" d="M-28.3 86.6c-.5-3.1-2.5-5.7-8.5-8.1-2.1-1-4.4-1.6-5.1-3.2-.2-.9-.3-1.4-.1-2 .4-1.8 2.6-2.4 4.3-1.8.6.2 1.2.6 1.7 1.1.8.8 2 .8 2.9.2.4-.3.7-.5 1-.7 1.2-.8 1.4-2.4.4-3.5-1.8-2-4.2-3-8.1-2.9-.4 0-.9.1-1.3.1-2.1.4-4.1 1.5-5.3 2.9-3.2 3.6-2.3 10 1.6 12.6 3.8 2.9 9.5 3.5 10.2 6.2.7 3.3-2.4 4.4-5.5 4-1.7-.3-2.8-1.1-3.8-2.2-.7-.8-1.9-1.1-2.9-.5-.5.3-.8.5-1.3.7-1.2.7-1.5 2.4-.6 3.5.2.3.5.5.8.9 4.9 5 17.1 4.7 19.3-2.8.2-.1.8-1.8.3-4.5zm-25.3-20.4h-4c-1.3 0-2.3 1-2.3 2.3v14.1c0 3.5.2 6.7-.4 7.6-.9 1.8-3 1.7-4.2 1.4-.2 0-.3-.1-.5-.2-1-.5-1.5-1.3-2.1-2.3-.2-.3-.3-.6-.4-.6-1.1.6-2.1 1.3-3.2 1.9-1.1.7-1.5 2.2-.6 3.3.7.9 1.5 1.6 2.4 2.2 2.4 1.4 5.6 1.9 9 1.1 2.2-.6 4.1-2 5.1-4 1.4-2.7 1.1-5.9 1.1-9.4.1-5.8.1-11.5.1-17.4z"/></g><g class="st0"><path class="st1" d="M43.7 58.5c-2.6 3.7-2.3 8.5-.3 12.4 0 .1.1.2.1.3 0 .1.1.1.1.2 0 0 0 .1.1.1 0 .1.1.1.1.2.1.1.1.2.2.3 0 .1.1.1.1.2.1.1.1.2.2.3l.1.1c.1.2.2.3.3.5l.1.1c.1.1.2.3.3.4l.1.1.3.3.1.1c.1.1.2.3.4.4.1.1.2.3.4.4l.1.1.3.3.1.1.4.4.1.1c.1.1.2.2.4.3.1 0 .1.1.2.1.1.1.2.2.3.2.1 0 .1.1.2.1l.3.3.1.1c.1.1.2.1.3.2.1 0 .1.1.1.1.2.1.4.2.5.3.1 0 .1.1.1.1.1.1.3.2.4.2.1 0 .1.1.2.1s.2.1.3.1h.1s.1 0 .1.1c.1.1.3.1.5.2h.1c.2.1.3.1.5.2h.1c.2.1.3.1.5.2h.1c.2.1.4.1.6.2h.1c.2.1.4.1.6.2 12.4 2.3 16-7.5 16-7.5-3 4-8.4 5-13.5 3.8-.2 0-.4-.1-.6-.2h-.1c-.2-.1-.4-.1-.5-.2h-.1c-.2-.1-.3-.1-.5-.2 0 0-.1 0-.1-.1-.2-.1-.4-.1-.5-.2h-.1c-.1-.1-.3-.1-.4-.2 0 0-.1 0-.1-.1-.1-.1-.2-.1-.3-.2-.1 0-.2-.1-.2-.1-.1-.1-.3-.2-.4-.2l-.1-.1c-.2-.1-.4-.2-.5-.3-.1 0-.1-.1-.1-.1-.1-.1-.3-.2-.4-.3l-.1-.1c-.1-.1-.2-.2-.4-.3-.1 0-.1-.1-.2-.1l-.3-.3-.1-.1c-.1-.1-.3-.2-.4-.3l-.4-.4-.1-.1-.3-.3-.1-.1-.4-.4-.4-.4-.1-.1-.3-.3-.1-.1c-.1-.1-.2-.3-.3-.4-2.8-3.9-3.9-9.2-1.6-13.6"/><path class="st1" d="M51.7 55.4c-1.9 2.7-1.8 6.3-.3 9.1.2.5.5.9.8 1.4.3.4.6.9 1 1.2l.4.4.1.1.4.4c.2.1.3.3.5.4l.1.1c.2.1.3.3.5.4.1.1.2.1.2.2l.1.1c.1.1.3.2.4.2h.1c.1.1.2.1.3.2 0 0 .1 0 .1.1.1 0 .2.1.2.1.2.1.3.2.5.2h.1c.1.1.3.1.4.2.1 0 .1 0 .2.1.1 0 .3.1.4.1.1 0 .1 0 .2.1.2.1.4.1.5.2 9.6 1.6 11.8-5.8 11.8-5.8-2 2.9-5.9 4.3-10 3.2-.2 0-.4-.1-.5-.2-.1 0-.1 0-.2-.1-.1 0-.3-.1-.4-.1-.1 0-.1 0-.2-.1s-.3-.1-.4-.2h-.1c-.2-.1-.3-.2-.5-.2-.1 0-.2-.1-.3-.1-.1 0-.1 0-.1-.1-.1-.1-.2-.1-.3-.2h-.1c-.1-.1-.3-.2-.4-.2l-.1-.1c-.1-.1-.2-.1-.3-.2-.2-.1-.3-.2-.5-.4l-.1-.1c-1.8-1.4-3.2-3.4-3.9-5.6-.7-2.3-.6-4.9.7-7"/><path class="st1" d="M58.4 53.1c-1.1 1.6-1.2 3.6-.4 5.4.8 1.9 2.5 3.4 4.4 4.1.1 0 .2.1.2.1h.1c.1 0 .2.1.3.1 5.3 1 6.7-2.7 7.1-3.3-1.3 1.8-3.4 2.2-6 1.6-.2 0-.4-.1-.6-.2-.3-.1-.5-.2-.7-.3-.5-.2-.9-.5-1.3-.8-2.3-1.8-3.8-5.1-2.2-7.9m122 8.8l.2.9c.1.3-.1.5-.4.5m-16.5-2.9c-.1.2-.1.6-.2.8l-1.8 8.6 1.9-9 .1-.4zm-55 5.7l-1 3.6 1-3.6z"/><path class="st1" d="M181.5 61.5l-.5-2.2c-.4-1.6-1.6-2.4-4.3-2.4h-11.2c-.3 0-.5.1-.6.4l-4.2 20.1c-.1.3-.1.4 0 .6 0 .1.5.1.8.1h4.8c.1-.1.2-.4.3-.7l1.4-7 1.7-7.8c.1-.3.3-.5.6-.5h11.1c0-.1.2-.3.1-.6"/><path class="st1" d="M197.2 53.4h-4.9c-.3 0-.6.3-.7.5L183 66.6c-.1.2-.3.2-.4 0l-.6-2.8c-.1-.3-.3-.5-.6-.5h-5.5c-.3 0-.4.2-.3.5l2.5 8.7c.1.2.1.7 0 .9l-1.2 4.4c-.1.2.1.3.4.3h5.5c.3 0 .5-.1.6-.3l1.2-4.5c.1-.2.2-.6.4-.8l14.1-18.6c.2-.2.1-.4-.1-.4l-1.8-.1zm-57.6 3.5h-5c-.3 0-.5.1-.6.3l-1.7 7.7-1.6 7.4c-.1.3-.3.2-.6.2h-3.3c-3.2 0-2.9-2.1-2.2-5.1l2.1-10.2c0-.3-.1-.3-.4-.3h-4.8c-.3 0-.5.1-.6.3L119 67.4c-1 5.5-1 10.4 5.4 10.6h10.1c.3 0 .5-.1.6-.3l2.2-10.3 2.2-10.3c.1.1.2-.2.1-.2zm-49.8 0h-5.4c-.3 0-.5.1-.6.3l-1 4.2c-.1.2.1.4.4.4h5.1c.3 0 .5-.2.6-.5l.9-4.2c.1.1.2-.2 0-.2zM83 63.3c-.3 0-.5.2-.6.5l-.7 3.2-1.7 7.3s-.9 3.9-.9 4.2c0 0-.7 2.8-2.4 2.7-.8-.1-1.7-.2-1.7-.2-.5-.1-.5.4-.6.6l-1.1 4.6c-.1.3.1.5.4.5 0 0 2.3.3 3.9.3h.3c4 0 6.1-2.4 7.5-8.8l1.6-7.4 1.5-6.9c.1-.3-.1-.5-.4-.5m64.1-6.5c-9 0-11.2 5.6-12.4 11.1-1.2 5.6-1.1 10.1 8.2 10.1h8.5c.3 0 .5-.2.6-.5l.9-3.6c.1-.3-.1-.3-.4-.3h-8.4c-3 0-4.1-.9-4-3 0-.2.3-.8.5-.8h12.9c.6 0 .6-.3.6-.3 1.5-6.1 1.6-12.7-7-12.7m2.4 8.8c0 .3-.9.2-.9.2l-7-.1c-.2 0-.3-.3-.3-.6v-.4c.5-1.9 2.2-3 4.7-3 2.9 0 3.5 1.4 3.5 3m-41.3 7.5s2.5-6.1 3.1-9.7c.8-4.7-1.6-11.6-10.8-11.6-9.1 0-13.1 6.6-14.6 13.7-1.5 7.2.5 13.4 9.5 13.4h13.8c.3 0 .5-.2.6-.5l1.2-4.4c.1-.3-.1-.5-.4-.5h-2.2c-.2 0-.3-.1-.3-.3l.1-.1m-4.8-3.8l-1 3.5c-.1.2-.4.4-.6.4h-5.4c-4.1 0-5.1-3.1-4.1-7.8 1-4.8 3-7.8 7-8.1 5.5-.4 6.6 3.4 5.3 7.9l-1.2 4.1z"/></g><g class="st0"><path class="st1" d="M87.8 92.3c0 4.5 3.7 8.2 8.2 8.2h47.3c4.5 0 8.2-3.7 8.2-8.2V44.9c0-4.5-3.7-8.2-8.2-8.2H96c-4.5 0-8.2 3.7-8.2 8.2v47.4z"/><path class="st3" d="M114.3 64.9v-9h7.9c.8 0 1.5.1 2.2.2.7.1 1.3.4 1.9.7.5.3 1 .8 1.3 1.4.3.6.5 1.3.5 2.2 0 1.6-.5 2.8-1.5 3.5s-2.2 1.1-3.7 1.1h-8.6v-.1zm-8.5-15.6v38.6h18.7c1.7 0 3.4-.2 5.1-.6 1.6-.4 3.1-1.1 4.4-2s2.3-2.1 3.1-3.5c.8-1.4 1.1-3.1 1.1-5.1 0-2.4-.6-4.5-1.8-6.2s-2.9-2.9-5.3-3.6c1.7-.8 3-1.9 3.9-3.2.9-1.3 1.3-2.9 1.3-4.9 0-1.8-.3-3.3-.9-4.5-.6-1.2-1.4-2.2-2.5-2.9s-2.4-1.3-3.9-1.6-3.2-.5-5-.5h-18.2zm8.5 32V70.7h9.2c1.8 0 3.3.4 4.4 1.3s1.7 2.3 1.7 4.2c0 1-.2 1.8-.5 2.5-.3.6-.8 1.2-1.4 1.5-.6.4-1.2.6-2 .8-.8.2-1.5.2-2.4.2h-9v.1z"/></g><path class="st5" d="M92 97.8h-4.1c-.1-6.9-.5-13.5-1.2-19.6l-6.3 19.6h-3.1L71 78.2c-.5 5.9-.8 12.4-.9 19.6h-3.8c.2-8.7.8-16.9 1.8-24.6h5.1l5.9 18.1 6-18.1H90c1.2 9 1.8 17.2 2 24.6m17.9-18.1c-1.7 9.1-3.9 15.7-6.6 19.8-2.1 3.2-4.5 4.8-7 4.8-.7 0-1.5-.2-2.5-.6v-2.2c.5.1 1.1.1 1.7.1 1.2 0 2.1-.3 2.9-1 .9-.8 1.3-1.7 1.3-2.7 0-.7-.3-2.1-1-4.2l-4.5-14h4l3.2 10.5c.7 2.4 1 4 .9 5 1.8-4.7 3-9.9 3.7-15.5h3.9zm54.7 18.1h-11.7V73.2h4v21.6h7.7z"/><path class="st11" d="M149.9 98.4l-4.5-2.2c.4-.3.8-.7 1.1-1.1 1.9-2.3 2.9-5.6 2.9-10 0-8.1-3.2-12.2-9.6-12.2-3.1 0-5.6 1-7.3 3.1-1.9 2.3-2.9 5.6-2.9 10 0 4.3.8 7.5 2.5 9.5 1.6 1.8 3.9 2.7 7 2.7 1.2 0 2.2-.1 3.2-.4l5.9 3.4 1.7-2.8zm-14.7-5.5c-1-1.6-1.5-4.2-1.5-7.7 0-6.2 1.9-9.3 5.6-9.3 2 0 3.4.7 4.3 2.2 1 1.6 1.5 4.2 1.5 7.7 0 6.2-1.9 9.4-5.6 9.4-1.9-.1-3.3-.8-4.3-2.3"/><path class="st5" d="M127.9 91c0 2.1-.8 3.8-2.3 5.1-1.5 1.3-3.6 2-6.2 2-2.4 0-4.7-.8-7-2.3l1.1-2.1c1.9 1 3.7 1.5 5.3 1.5 1.5 0 2.6-.3 3.5-1 .8-.7 1.3-1.6 1.3-2.7 0-1.5-1-2.7-2.9-3.8-1.7-.9-5.2-2.9-5.2-2.9-1.9-1.4-2.8-2.8-2.8-5.2 0-2 .7-3.6 2.1-4.8 1.4-1.2 3.2-1.8 5.4-1.8 2.3 0 4.4.6 6.2 1.8l-.9 2.1c-1.6-.7-3.2-1-4.7-1-1.3 0-2.2.3-2.9.9-.7.6-1.1 1.4-1.1 2.3 0 1.5 1 2.7 3 3.8 1.7.9 5.3 3 5.3 3 1.8 1.2 2.8 2.7 2.8 5.1"/><path class="st11" d="M169.6 65c-2.4-.1-4.2.2-5.8.8-.4.2-1.2.2-1.2.7.2.2.3.6.5 1 .4.6 1 1.4 1.5 1.8.6.5 1.2.9 1.9 1.4 1.2.7 2.5 1.1 3.6 1.8.7.4 1.3.9 2 1.4.3.2.5.6.9.8v-.1c-.2-.3-.3-.7-.5-1l-.9-.9c-.9-1.2-1.9-2.2-3.1-3-1-.7-3-1.5-3.4-2.6l-.1-.1c.7-.1 1.4-.3 2.1-.5 1-.3 1.9-.2 3-.5.5-.1 1-.3 1.4-.4v-.3c-.5-.5-.9-1.2-1.5-1.8-1.5-1.3-3.2-2.6-4.9-3.7-.9-.6-2.1-1-3.1-1.5-.4-.2-.9-.3-1.2-.6-.5-.7-.8-1.5-1.2-2.3-.9-1.6-1.7-3.4-2.4-5.2-.5-1.2-.9-2.3-1.5-3.4-3.1-5.1-6.4-8.1-11.5-11.1-1.1-.6-2.4-.9-3.8-1.2-.7 0-1.5-.1-2.2-.1-.5-.2-1-.8-1.4-1-1.7-1.1-6.1-3.4-7.3-.3-.8 1.9 1.2 3.8 1.9 4.8.5.7 1.2 1.5 1.5 2.2.2.5.3 1 .5 1.6.5 1.3.9 2.8 1.5 4 .3.6.7 1.3 1.1 1.8.2.3.7.5.7 1-.4.6-.4 1.5-.7 2.2-1.1 3.4-.7 7.5.9 10 .5.7 1.6 2.4 3.1 1.8 1.3-.5 1-2.2 1.4-3.7.1-.4 0-.6.2-.8v.1c.4.8.8 1.6 1.2 2.5.9 1.5 2.5 3 3.9 4 .7.5 1.3 1.5 2.2 1.8v-.1h-.1c-.2-.3-.4-.4-.7-.6-.5-.5-1.1-1.2-1.5-1.8-1.2-1.7-2.3-3.5-3.3-5.4-.5-.9-.9-1.9-1.3-2.9-.2-.4-.2-.9-.5-1.1-.4.7-1.1 1.2-1.4 2-.6 1.3-.6 2.9-.8 4.5-.1 0-.1 0-.1.1-.9-.2-1.3-1.2-1.6-2-.9-2.1-1-5.5-.3-7.9.2-.6 1.1-2.6.7-3.2-.2-.6-.8-.9-1.1-1.3-.4-.6-.8-1.3-1.1-1.9-.7-1.7-1.1-3.5-1.8-5.2-.4-.8-1-1.6-1.5-2.3-.6-.8-1.2-1.4-1.6-2.3-.1-.3-.4-.9-.1-1.2.1-.2.2-.3.4-.4.4-.3 1.5.1 1.9.3 1.1.4 2 .9 2.9 1.5.4.3.9.9 1.4 1h.6c1 .2 2 .1 2.9.3 1.6.5 3 1.2 4.3 2 3.9 2.5 7.1 6 9.3 10.2.4.7.5 1.3.8 2 .6 1.5 1.4 2.9 2 4.4.6 1.4 1.2 2.8 2.1 4 .4.6 2.2.9 3 1.3.6.3 1.5.5 2.1.8 1 .6 2 1.3 3 2 .5.4 2 1.2 2.1 1.8"/><path class="st5" d="M172.4 97.8h.6v-3h-.9l-.8 2.1-.8-2.1h-.9v3h.6v-2.3l.9 2.3h.4l.9-2.3v2.3zm-4.9 0h.7v-2.5h.9v-.5h-2.4v.5h.9v2.5z"/><g class="st0"><ellipse class="st1" cx="119.8" cy="68.4" rx="44.9" ry="22.7"/><g class="st4"><path class="st6" d="M100.4 61.4c2 0 3.4.4 4.1 1.1.7.8.8 2 .5 3.9-.4 1.9-1.1 3.3-2.1 4.1-1.1.8-2.7 1.2-4.8 1.2h-3.3l2-10.3h3.6zM87.3 82.2h5.4l1.3-6.5h4.6c2 0 3.7-.2 5-.6 1.3-.4 2.5-1.1 3.6-2.1.9-.8 1.6-1.7 2.2-2.7.6-1 1-2.1 1.2-3.3.6-2.9.1-5.2-1.3-6.8-1.4-1.6-3.7-2.4-6.8-2.4H92.1l-4.8 24.4zM114.4 51h5.3l-1.3 6.5h4.7c3 0 5 .5 6.2 1.6 1.1 1 1.5 2.7 1 5.1l-2.2 11.5h-5.4l2.1-10.9c.2-1.2.2-2.1-.3-2.5-.4-.5-1.3-.7-2.7-.7h-4.3l-2.7 14.1h-5.3l4.9-24.7zm27.8 10.4c2 0 3.4.4 4.1 1.1.7.8.8 2 .5 3.9-.4 1.9-1.1 3.3-2.1 4.1-1.1.8-2.7 1.2-4.8 1.2h-3.3l2-10.3h3.6zm-13.1 20.8h5.4l1.3-6.5h4.6c2 0 3.7-.2 5-.6 1.3-.4 2.5-1.1 3.6-2.1.9-.8 1.6-1.7 2.2-2.7.6-1 1-2.1 1.2-3.3.6-2.9.1-5.2-1.3-6.8-1.4-1.6-3.7-2.4-6.8-2.4H134l-4.9 24.4z"/></g></g></svg>