<svg xmlns="http://www.w3.org/2000/svg" viewBox="0 0 240 140"><path d="M128.086 68.017h11.606V57.516h-11.606zm-13.817 0h11.606V57.516h-11.606zm-13.541 0h11.606V57.516h-11.606zm-13.541 0h11.33V57.516h-11.33zm-13.818 0h11.607V57.516H73.369zm13.818-12.712h11.33v-10.5h-11.33zm13.54 0h11.607v-10.5h-11.606zm13.542 0h11.606v-10.5h-11.606zm0-12.712h11.606v-10.5h-11.606zm62.454 20.726s-4.975-4.698-15.2-3.04c-1.105-8.014-9.671-12.711-9.671-12.711s-8.014 9.672-2.211 20.45c-1.658.828-4.422 1.934-8.567 1.934H65.08c-1.382 5.25-1.382 40.07 36.754 40.07 27.358 0 47.808-12.712 57.48-35.925 14.37 1.105 17.41-10.778 17.41-10.778z" fill="#eee"/><path d="M223.81 284.023c-16.655-2.335-27.794-11.57-32.671-27.088-.879-2.795-1.38-6.235-1.594-10.927l-.313-6.847h44.83c38.632 0 45.312-.126 48.305-.905 1.91-.497 3.692-1.122 3.96-1.39.267-.267.006-1.368-.58-2.446-.81-1.488-1.069-3.228-1.07-7.206-.002-4.552.22-5.725 1.676-8.879.923-1.999 1.996-3.897 2.384-4.22 1.75-1.451 10.797 9.253 10.799 12.776 0 .753.91.908 5.39.92 4.6.01 5.882.241 8.741 1.57 1.843.856 3.351 1.712 3.351 1.903 0 1.03-2.6 5.193-4.311 6.904-2.818 2.818-6.747 4.532-11.387 4.968l-4.004.375-2.259 4.371c-3.412 6.602-6.436 10.894-11.194 15.888-12.49 13.109-28.35 19.715-49.194 20.494-3.908.146-8.794.029-10.858-.26z" fill="none"/><path d="M224.342 284.048c-17.892-2.536-29.403-12.289-33.524-28.4-1.277-4.994-2.053-12.738-1.498-14.949l.376-1.498 46.178-.166c42.496-.153 46.358-.247 48.432-1.184 1.924-.87 2.193-1.211 1.84-2.332-1.8-5.72-2.074-7.378-1.73-10.478.452-4.077 3.96-11.814 5.062-11.164 4.252 2.513 8.707 7.949 9.78 11.935l.583 2.164 3.353-.304c3.73-.338 9.803.95 12.485 2.649l1.627 1.03-1.892 3.152c-3.279 5.463-9.12 8.737-15.586 8.737h-2.7l-1.31 3.157c-1.754 4.234-7.356 12.618-11.407 17.073-8.792 9.669-21.758 16.581-36.428 19.42-6.557 1.268-18.674 1.862-23.641 1.158z" fill="none"/><path d="M224.342 284.048c-17.892-2.536-29.403-12.289-33.524-28.4-1.277-4.994-2.053-12.738-1.498-14.949l.376-1.498 46.178-.166c42.496-.153 46.358-.247 48.432-1.184 1.924-.87 2.193-1.211 1.84-2.332-1.8-5.72-2.074-7.378-1.73-10.478.452-4.077 3.96-11.814 5.062-11.164 4.252 2.513 8.707 7.949 9.78 11.935l.583 2.164 3.353-.304c3.73-.338 9.803.95 12.485 2.649l1.627 1.03-1.892 3.152c-3.279 5.463-9.12 8.737-15.586 8.737h-2.7l-1.31 3.157c-1.754 4.234-7.356 12.618-11.407 17.073-8.792 9.669-21.758 16.581-36.428 19.42-6.557 1.268-18.674 1.862-23.641 1.158z" fill="none"/></svg>