<svg version="1.1" id="Layer_1" xmlns="http://www.w3.org/2000/svg" x="0" y="0" viewBox="0 0 240 140" xml:space="preserve"><style>.st0{fill:#333}.st1{display:none}.st2,.st3{display:inline}.st3{fill:#333}</style><g id="test-tube_1_"><path id="tube_1_" class="st0" d="M164 97c-.8 0-1.6-.1-2.4-.4-3.2-1.2-4.9-4.7-4.1-8l.2-.6 16.4-42.7c.2-.6.1-2.1 0-3v-.7c.3-.7 1.1-1 2.4-1 1.6 0 3.8.5 6 1.4 1.9.7 3.6 1.6 4.8 2.5 1.4 1.1 2 2 1.7 2.8v.1c-.1.2-.2.3-.3.4-.7.6-1.8 1.7-2 2.2L170 93.4c-1.2 2.2-3.5 3.6-6 3.6zm-5.2-8.7v.1c-1.1 2.8.4 6 3.2 7.1.6.2 1.3.4 2 .4 2.3 0 4.3-1.4 5.1-3.5l.1-.1 16.4-42.5c.3-.9 2-2.4 2.3-2.7 0-.1-.1-.6-1.3-1.5-1.1-.8-2.7-1.7-4.5-2.4-2.1-.8-4.2-1.3-5.6-1.3-.9 0-1.3.2-1.3.3v.1c0 .2.3 2.4-.1 3.6l-16.3 42.4z"/><path id="liquid_1_" class="st0" d="M179.9 61.3s-2.3 2.6-4.3 3.5c-2.1.9-3.6.7-5.5 1.8s-2.8 2.6-2.8 2.6l-7.6 19.7c-.8 2.2.4 4.8 2.7 5.7 2.3.9 4.8-.3 5.7-2.5l11.8-30.8zm-7.6 11.3c.4-.2.8 0 .9.4.2.4 0 .8-.4.9-.4.2-.8 0-.9-.4-.2-.3 0-.7.4-.9zm-3.1-3.2c.2-.1.5 0 .6.2s0 .5-.2.6c-.2.1-.5 0-.6-.2-.1-.2 0-.5.2-.6zm-3.3 11.1c-.4.2-.8 0-.9-.4-.2-.4 0-.8.4-.9.4-.2.8 0 .9.4.1.3 0 .7-.4.9zm.7-2.6c-.3-.7 0-1.5.7-1.8.7-.3 1.5 0 1.8.7.3.7 0 1.5-.7 1.8-.8.3-1.5 0-1.8-.7zm1.7 6.8c.2-.1.5 0 .6.2.1.2 0 .5-.2.6s-.5 0-.6-.2c-.2-.2-.1-.5.2-.6z"/><ellipse id="top_1_" transform="rotate(-68.96 181.414 44.962)" class="st0" cx="181.4" cy="45" rx="1.2" ry="4.6"/></g><path id="jekyll-text" class="st0" d="M81.3 66.7c.7.6 2 .2 2.9-.7.9-1 1.1-2.3.3-2.9-.7-.6-2-.2-2.9.8-.8 1-1 2.2-.3 2.8zm-2.1 1.9c-.2 0-.5.3-.2.5.4.1.6.5.6 1-.3 2-2.8 4.3-3.8 5-.2.2.1.8.3.6.5-.4 1.6-1.3 2.6-2.5-1.5 3.3-4.4 7.7-5.5 9.2-4.4 6-11.1 11.6-15.6 11.6-3.6 0-6.7-2.5-7.4-6.1 0-.4-.6-.5-.5 0 .8 5 4.7 6.9 9.3 6.9 5.1 0 11.1-3.7 14.3-7.5 5.3-6.1 8.8-13.1 7.9-17.1-.4-1.4-1.4-1.6-2-1.6zm32.7 13.3c1.4-.3 2.6-1.1 2.6-2.3 0-.1-.2-.1-.2 0 0 .7-.8 1.3-1.7 1.5-2.2.3-6.5-2.2-8.5-4.8 2.2.8 6.6-.4 8.7-1.9 1.9-1.4 2.7-2.9 2.9-4.2.2-2.1-2-3.3-5.2-2.1-2 .8-4.5 2.6-7 6 2.7-4.4 7.9-11.6 13-16.2 6.3-5.6 9.9-4.5 4.3 1.4-2.3 2.4-6.7 5.6-9.7 6.9-.9.4-.5.9.2.6 3.2-1.4 7.5-4.3 10-6.7 7.6-7.3 1.3-12.8-7.2-5.1-5.7 5.3-9.5 10.8-12.7 18-1.1 1.4-1.9 2.5-3 3.3l-.3.3c-2.8 2.4-7.2 5.6-9.9 5.7-1.9 0-2.8-1.4-2.4-3.3.5-2.9 3.6-6.4 6.2-7.7 3.4-1.5 5.4 1.4.9 3.9-1.7.9-3.7 1.4-4.6 1.4-1 0-.9.4 0 .4 1.4 0 3.5-.5 5-1.2 4.6-2.2 4.8-6.2-.1-6.4-5.4-.2-11.8 4.4-11.8 10.2 0 2.6 2.1 4 5 4 4.8 0 9-3.7 12.5-6.9.5-.4 1-.9 1.5-1.4-1.2 3.1-1.8 6-1.5 8.1.2 1.5 1.1 2.3 1.7 2.8.1.1.4 0 .2-.3-1-1.2-.7-4.8.7-8.3 1.1 2.4 5.7 5.4 10.4 4.3zm-5.7-10.1c5.6-5 7.8-.5 4.2 2.2-1.8 1.4-5.5 2.5-6.6 1.8l-.2-.1c-.1-.2-.3-.5-.4-.7.9-1.2 1.9-2.2 3-3.2zm30.9-5.7c2.2.2 1.3-2.5-1-1.8-1 .3-2 2.2-2.7 3.9-2.2 3.3-6 7.9-8.6 10.3-2.3 2-4.5 2.5-1.8-1.2 1.1-1.5 2.4-3.1 3.2-4.7 1.8-4-2.1-5.8-5.2-3.4-1.8 1.4-4.3 4.3-6.3 5.9-.5.4-.4 1.1.1.6 1.5-1.3 4.3-4.1 6.6-5.8 1.9-1.5 2.7-.5 1.6.7-1.5 1.8-4.3 4.9-4.9 6.9-1 2.9.2 4.3 2.1 4.3 2.7 0 6.6-4.2 9.3-7.5.9-1.1 1.8-2.4 2.7-3.7-2.3 4.5-4.7 9.1-7.8 13.2-4.3 5.8-9.6 10.2-14.6 10.2-3.6 0-6.8-2.5-7.5-6.1 0-.4-.5-.5-.5 0 .8 5 4.7 6.9 9.3 6.9 5.1 0 10-2.9 13.4-6.6 6.9-7.3 7.8-15.5 9.9-20.1 1.1-2 2-2.1 2.7-2zm28.2-7c1-1.7 1-3.1-1.4-3.1-1.8 0-5 1.3-6.5 2.5-.3.3-.2.5.2.3.3-.1.6-.3 1-.4 1.7-.9 1 1 .6 1.7-2 3.5-5.6 8.5-7.5 11-.9 1.2-1.9 2.4-2.9 3.5-1.8 1.7-5.4 4.8-8.1 5.8-8.8 3.3 2.4-11.7 3.3-12.9 2.1-2.6 6.7-7.2 8.1-9.4 1-1.7 1-3.1-1.4-3.1-1.8 0-5 1.3-6.5 2.5-.3.3-.2.5.2.3.3-.1.6-.3 1-.4 1.7-.9 1 1 .6 1.7-2 3.5-5.6 8.5-7.5 11-1.5 2.1-3.4 4.2-4.9 5.3-.6.5-.2.9.3.5.5-.3 1.3-1.1 2.2-2-1.6 3.2-2.9 7.7 1.3 8.2 3.6.5 7.9-3.2 10.6-5.9l1-1 .2-.2c-1.6 3.2-2.9 7.7 1.3 8.2 4.6.6 10.3-5.6 12.5-7.8.4-.4.3-1.2-.4-.4-1.3 1.4-5.7 5.4-8.9 6.6-8.8 3.3 2.4-11.7 3.3-12.9 2.2-2.8 6.9-7.3 8.3-9.6z"/><g class="st1"><g class="st2"><path class="st0" d="M88.9 68.5c0 12.2 7.1 22.7 17.3 27.6L91.6 56c-1.7 3.8-2.7 8-2.7 12.5zm51.5-1.6c0-3.8-1.4-6.4-2.5-8.5-1.6-2.5-3-4.7-3-7.2 0-2.8 2.1-5.4 5.2-5.4h.4c-5.5-5-12.7-8.1-20.7-8.1-10.7 0-20.2 5.5-25.6 13.8h2c3.2 0 8.2-.4 8.2-.4 1.7-.1 1.8 2.3.2 2.5 0 0-1.7.2-3.5.3L112 87.3l6.7-20.1-4.7-13.1c-1.7-.1-3.2-.3-3.2-.3-1.7-.1-1.5-2.6.2-2.5 0 0 5.1.4 8.1.4 3.2 0 8.2-.4 8.2-.4 1.7-.1 1.8 2.3.2 2.5 0 0-1.7.2-3.5.3l11.1 33 3.1-10.2c1.2-4.3 2.2-7.4 2.2-10z"/><path class="st0" d="M120.2 71.2L111 97.9c2.8.8 5.7 1.3 8.7 1.3 3.6 0 7-.6 10.2-1.7-.1-.1-.2-.3-.2-.4l-9.5-25.9zm26.4-17.5c.1 1 .2 2 .2 3.2 0 3.1-.6 6.6-2.3 11L135.1 95c9.1-5.3 15.3-15.2 15.3-26.5-.1-5.4-1.4-10.4-3.8-14.8z"/><path class="st0" d="M119.6 32.7c-19.7 0-35.8 16.1-35.8 35.8 0 19.7 16.1 35.8 35.8 35.8 19.7 0 35.8-16.1 35.8-35.8 0-19.8-16-35.8-35.8-35.8zm0 69.9c-18.8 0-34.1-15.3-34.1-34.1s15.3-34.1 34.1-34.1 34.1 15.3 34.1 34.1c.1 18.8-15.2 34.1-34.1 34.1z"/></g></g><g class="st1"><path class="st3" d="M140 61.6c.8 1 1.7 2.5 1.7 4.6 0 5-3.9 8-9.7 8-1.5 0-2.8-.2-3.6-.4l-1.5 2.4 4.4.3c7.8.5 12.5.7 12.5 6.8 0 5.2-4.6 8.2-12.5 8.2-8.2 0-11.3-2.1-11.3-5.7 0-2 .9-3.1 2.5-4.6-1.5-.6-2-1.8-2-3 0-1 .5-1.9 1.3-2.8.8-.9 1.7-1.7 2.8-2.7-2.2-1.1-3.9-3.4-3.9-6.8 0-5.2 3.4-8.8 10.4-8.8 1.9 0 3.1.2 4.2.5h8.8v3.9l-4.1.1zm-13.4 20.7c-.6.7-1.2 1.5-1.2 2.4 0 1.8 2.3 2.4 5.5 2.4 2.6 0 6.2-.2 6.2-2.6 0-1.5-1.7-1.5-3.9-1.7l-6.6-.5zm5-20.8c-2.5 0-4.3 1.2-4.3 4.2 0 2.2 1.2 3.8 4.2 3.8 2.5 0 4.3-1.5 4.3-3.9-.1-2.7-1.7-4.1-4.2-4.1zm14.7 19.1V77l2.3-.3c.6-.1.7-.2.7-.9V62.5c0-.5-.1-.8-.6-1l-2.4-.9.5-3.7h9.4v18.8c0 .7 0 .8.7.9l2.3.3v3.6h-12.9zm5.8-27.2c-2.6 0-4.1-1.5-4.1-4.1 0-2.6 1.5-4 4.1-4 2.6 0 4.1 1.4 4.1 4 .1 2.6-1.4 4.1-4.1 4.1zm25 25.4c-1.9 1-4.8 1.8-7.4 1.8-5.4 0-7.4-2.2-7.4-7.3V61.5c0-.3 0-.5-.4-.5h-3.2v-4c4-.5 5.6-2.4 6.1-7.4h4.3V56c0 .3 0 .5.4.5h6.4V61h-6.8v10.8c0 2.7.6 3.7 3.1 3.7 1.3 0 2.6-.3 3.7-.7l1.2 4z"/><g class="st2"><path class="st0" d="M110 66.9L89.3 46.2c-1.2-1.2-3.1-1.2-4.3 0l-4.3 4.3 5.5 5.5c1.3-.4 2.7-.1 3.7.9s1.3 2.5.9 3.8l5.3 5.3c1.3-.4 2.7-.2 3.8.9 1.4 1.4 1.4 3.7 0 5.1-1.4 1.4-3.7 1.4-5.1 0-1.1-1.1-1.3-2.6-.8-4l-5.1-5v12.9c.3.2.7.4 1 .7 1.4 1.4 1.4 3.7 0 5.1-1.4 1.4-3.7 1.4-5.1 0-1.4-1.4-1.4-3.7 0-5.1.4-.4.8-.6 1.2-.8v-13c-.4-.2-.8-.4-1.2-.8-1.1-1.1-1.3-2.7-.8-4l-5.4-5.4-14.3 14.3c-1.2 1.2-1.2 3.1 0 4.3L85 91.9c1.2 1.2 3.1 1.2 4.3 0L110 71.3c1.2-1.2 1.2-3.2 0-4.4z"/></g></g><g class="st1"><path d="M120.2 35.7c-18.5 0-33.5 15-33.5 33.5 0 14.8 9.6 27.4 22.9 31.8 1.7.3 2.3-.7 2.3-1.6v-6.2c-9.3 2-11.3-4-11.3-4-1.5-3.9-3.7-4.9-3.7-4.9-3-2.1.2-2 .2-2 3.4.2 5.1 3.5 5.1 3.5 3 5.1 7.8 3.6 9.8 2.8.3-2.2 1.2-3.6 2.1-4.5-7.4-.8-15.3-3.7-15.3-16.6 0-3.7 1.3-6.7 3.5-9-.3-.8-1.5-4.3.3-8.9 0 0 2.8-.9 9.2 3.4 2.7-.7 5.5-1.1 8.4-1.1 2.9 0 5.7.4 8.4 1.1 6.4-4.3 9.2-3.4 9.2-3.4 1.8 4.6.7 8 .3 8.9 2.2 2.3 3.5 5.3 3.5 9 0 12.9-7.8 15.7-15.3 16.5 1.2 1 2.3 3.1 2.3 6.2v9.2c0 .9.6 1.9 2.3 1.6 13.3-4.4 22.9-17 22.9-31.8-.1-18.4-15.1-33.5-33.6-33.5z" fill-rule="evenodd" clip-rule="evenodd" fill="#333"/><path class="st3" d="M99.4 83.9c-.1.2-.3.2-.6.1-.2-.1-.4-.3-.3-.5.1-.2.3-.2.6-.1.2.1.3.3.3.5zm1.3 1.5c-.2.1-.5.1-.7-.2-.2-.2-.3-.5-.1-.7.2-.1.5-.1.7.2.2.2.3.6.1.7zm1.3 1.9c-.2.1-.5 0-.7-.3-.2-.3-.2-.7 0-.8.2-.1.5 0 .7.3.2.3.2.7 0 .8zm1.8 1.9c-.2.2-.6.1-.9-.1-.3-.3-.4-.7-.2-.9.2-.2.6-.1.9.1.4.3.4.7.2.9zm2.5 1.1c-.1.3-.5.4-.8.3-.4-.1-.6-.4-.6-.7.1-.3.5-.4.8-.3.5.1.7.4.6.7zm2.8.2c0 .3-.3.5-.7.5-.4 0-.7-.2-.7-.5s.3-.5.7-.5c.4 0 .7.2.7.5zm2.5-.4c0 .3-.2.5-.6.6-.4.1-.7-.1-.8-.4 0-.3.2-.6.6-.6.4-.1.8.1.8.4zm0 0"/></g></svg>