<svg xmlns="http://www.w3.org/2000/svg" width="257" height="150" viewBox="121.5 175 257 150"><path fill="#333" stroke="#333" stroke-width="2" stroke-miterlimit="10" d="M257.746 286.014a1.817 1.817 0 0 1-1.557-.881l-13.723-22.886-25.637 6.972a1.815 1.815 0 0 1-2.079-.899l-29.97-56.378a1.814 1.814 0 0 1 1.361-2.65l25.467-3.427a1.816 1.816 0 0 1 1.798.866l30.759 51.294 35.724-9.715-11.932-16.817a1.814 1.814 0 0 1 1.063-2.815l16.714-3.948a1.815 1.815 0 0 1 1.835.631l14.463 18.059a1.813 1.813 0 0 1-.94 2.885l-15.237 4.143 13.284 18.725a1.815 1.815 0 0 1-.879 2.763l-39.915 13.976c-.196.068-.4.102-.599.102m-11.642-24.757l12.437 20.742 36.244-12.692-12.659-17.845-36.022 9.795zm-56.895-48.716l28.065 52.796 23.253-6.323-29.619-49.393-21.699 2.92zm83.268 19.048l11.143 15.706 13.853-3.767-12.018-15.005-12.978 3.066z"/></svg>