<?xml version="1.0" encoding="utf-8"?>
<!-- Generator: Adobe Illustrator 19.2.1, SVG Export Plug-In . SVG Version: 6.00 Build 0)  -->
<!DOCTYPE svg PUBLIC "-//W3C//DTD SVG 1.1//EN" "http://www.w3.org/Graphics/SVG/1.1/DTD/svg11.dtd">
<svg version="1.1" id="Layer_1" xmlns="http://www.w3.org/2000/svg" xmlns:xlink="http://www.w3.org/1999/xlink" x="0px" y="0px"
	 width="60px" height="60px" viewBox="0 0 60 60" enable-background="new 0 0 60 60" xml:space="preserve">
<circle fill="#007BB6" cx="30" cy="30" r="30"/>
<g>
	<rect x="18.8" y="24.8" fill="#FFFFFF" width="5" height="16.5"/>
	<path fill="#FFFFFF" d="M21.3,16.5c1.7,0,3.1,1.3,3.1,3.1c0,1.7-1.3,3.1-3.1,3.1c-1.7,0-3.1-1.3-3.1-3.1
		C18.4,17.7,19.5,16.5,21.3,16.5"/>
	<path fill="#FFFFFF" d="M27.2,24.8h5v2.3l0,0c0.6-1.3,2.3-2.9,4.8-2.9c5.4,0,6.2,3.5,6.2,7.9v9h-5v-8.3c0-1.9,0-4.4-2.9-4.4
		s-3.1,1.9-3.1,4.2v8.1h-5V24.8z"/>
</g>
</svg>
