<?xml version="1.0" encoding="utf-8"?>
<!-- Generator: Adobe Illustrator 19.2.1, SVG Export Plug-In . SVG Version: 6.00 Build 0)  -->
<!DOCTYPE svg PUBLIC "-//W3C//DTD SVG 1.1//EN" "http://www.w3.org/Graphics/SVG/1.1/DTD/svg11.dtd">
<svg version="1.1" id="Layer_1" xmlns="http://www.w3.org/2000/svg" xmlns:xlink="http://www.w3.org/1999/xlink" x="0px" y="0px"
	 width="60px" height="60px" viewBox="0 0 60 60" enable-background="new 0 0 60 60" xml:space="preserve">
<circle fill="#333333" cx="30" cy="30" r="30"/>
<g>
	<path fill="#FFFFFF" d="M20.7,26.4c0.4,0.1,1.4,0.9,3,1.9c1.5,1,2.8,1.9,3.7,2.5c0.1,0,0.4,0.1,0.5,0.4c0.4,0.1,0.5,0.3,0.6,0.5
		c0.1,0.1,0.4,0.4,0.6,0.5c0.4,0.1,0.5,0.4,0.9,0.4c0.1,0,0.5,0.1,0.6,0.1l0,0c0.1,0,0.5,0,0.6-0.1c0.1,0,0.5-0.1,0.9-0.4
		c0.4-0.1,0.5-0.4,0.6-0.5c0.1-0.1,0.5-0.4,0.6-0.5c0.4-0.1,0.5-0.4,0.5-0.4c0.9-0.5,3-2.1,6.5-4.5c0.6-0.5,1.3-1,1.8-1.8
		c0.5-0.6,0.6-1.4,0.6-2.1c0-0.5-0.1-1-0.6-1.5c-0.4-0.4-0.9-0.6-1.5-0.6H20.7c-0.6,0-1.3,0.1-1.5,0.6c-0.3,0.5-0.5,0.9-0.5,1.7
		c0,0.5,0.1,1.3,0.6,1.9C19.7,25.4,20.2,25.9,20.7,26.4L20.7,26.4z"/>
	<path fill="#FFFFFF" d="M41.9,27.8c-3,2.1-5.3,3.7-6.8,4.8c-0.5,0.4-0.9,0.6-1.3,0.9c-0.4,0.1-0.6,0.4-1.3,0.6
		c-0.5,0.1-1,0.4-1.5,0.4l0,0c-0.5,0-1-0.1-1.5-0.4c-0.5-0.1-1-0.5-1.3-0.6c-0.4-0.1-0.6-0.5-1.3-0.9c-1.2-0.9-3.5-2.6-6.8-4.8
		c-0.6-0.4-1.3-0.6-1.5-1.3v11c0,0.5,0.1,1,0.6,1.5c0.4,0.4,0.9,0.6,1.7,0.6H41c0.5,0,1-0.1,1.5-0.6c0.4-0.4,0.6-0.9,0.6-1.5v-11
		C42.7,27,42.4,27.4,41.9,27.8L41.9,27.8z"/>
</g>
</svg>
